<svg width="131" height="130" viewBox="0 0 131 130" fill="none" xmlns="http://www.w3.org/2000/svg">
<g clip-path="url(#clip0_1_742)">
<path d="M127.961 26.7484C129.363 26.7484 130.5 25.6114 130.5 24.2094V14.0117C130.5 12.6094 129.363 11.4727 127.961 11.4727H3.03906C1.63674 11.4727 0.5 12.6094 0.5 14.0117V24.2094C0.5 25.6114 1.63674 26.7484 3.03906 26.7484H10.6976V67.8805C6.3048 69.0116 3.04947 73.0063 3.04947 77.7473C3.04947 82.4882 6.3048 86.4829 10.6976 87.6141V98.153H10.6562C5.05609 98.153 0.5 102.709 0.5 108.309V115.989C0.5 117.391 1.63674 118.528 3.03906 118.528H127.961C129.363 118.528 130.5 117.391 130.5 115.989V108.309C130.5 102.709 125.944 98.153 120.344 98.153H120.302V26.7484H127.961ZM5.57812 16.5508H125.422V21.6703C119.598 21.6703 16.1536 21.6703 5.57812 21.6703V16.5508ZM99.9172 72.6382C102.735 72.6382 105.027 74.9299 105.027 77.7473C105.027 80.5646 102.735 82.8564 99.9172 82.8564C97.0999 82.8564 94.8081 80.5646 94.8081 77.7473C94.8081 74.9299 97.0999 72.6382 99.9172 72.6382ZM97.3782 67.8805C95.369 68.3977 93.5998 69.5159 92.2691 71.0289C90.9384 69.5159 89.1689 68.3977 87.1597 67.8805V26.7484H97.3782V67.8805ZM38.7309 72.6382C41.5483 72.6382 43.8403 74.9299 43.8403 77.7473C43.8403 80.5646 41.5483 82.8564 38.7309 82.8564C35.9136 82.8564 33.6218 80.5646 33.6218 77.7473C33.6218 74.9299 35.9138 72.6382 38.7309 72.6382ZM41.27 67.8805V26.7484H51.4884V67.8805C49.4793 68.3977 47.7101 69.5159 46.3793 71.0289C45.0486 69.5159 43.2794 68.3977 41.27 67.8805ZM54.0275 72.6382C56.8448 72.6382 59.1366 74.9299 59.1366 77.7473C59.1366 80.5646 56.8448 82.8564 54.0275 82.8564C51.2102 82.8564 48.9184 80.5646 48.9184 77.7473C48.9184 74.9299 51.2104 72.6382 54.0275 72.6382ZM56.5666 67.8805V26.7484H66.785V67.8805C64.7756 68.3977 63.0064 69.5159 61.6757 71.0289C60.3452 69.5159 58.576 68.3977 56.5666 67.8805ZM69.3241 72.6382C72.1414 72.6382 74.4332 74.9299 74.4332 77.7473C74.4332 80.5646 72.1414 82.8564 69.3241 82.8564C66.5067 82.8564 64.2147 80.5646 64.2147 77.7473C64.2147 74.9299 66.507 72.6382 69.3241 72.6382ZM71.8631 67.8805V26.7484H82.0813V67.8805C80.0722 68.3977 78.303 69.5159 76.9723 71.0289C75.6418 69.5159 73.8726 68.3977 71.8631 67.8805ZM84.6207 72.6382C87.438 72.6382 89.73 74.9299 89.73 77.7473C89.73 80.5646 87.438 82.8564 84.6207 82.8564C81.8033 82.8564 79.5116 80.5646 79.5116 77.7473C79.5116 74.9299 81.8033 72.6382 84.6207 72.6382ZM23.8221 26.7484L15.7758 53.0935V26.7484H23.8221ZM8.1276 77.7473C8.1276 74.9327 10.415 72.643 13.2286 72.6384C16.2115 72.6694 18.3461 75.0523 18.3461 77.7473C18.3461 80.5646 16.054 82.8564 13.2367 82.8564C10.4194 82.8564 8.1276 80.5646 8.1276 77.7473ZM125.422 108.309V113.45H5.57812V108.309C5.57812 105.509 7.85617 103.231 10.6562 103.231H120.344C123.144 103.231 125.422 105.509 125.422 108.309ZM115.224 98.153H15.7758V87.6141C20.1686 86.4829 23.4242 82.488 23.4242 77.7473C23.4242 73.2722 20.522 69.4643 16.5019 68.0998L29.1315 26.7482H36.1919V67.8802C31.799 69.0114 28.5437 73.0061 28.5437 77.747C28.5437 83.3642 33.1138 87.9342 38.7309 87.9342C41.7758 87.9342 44.5108 86.5898 46.3793 84.4654C50.4441 89.087 57.605 89.0938 61.6757 84.4654C65.7488 89.0964 72.9098 89.0847 76.9723 84.4654C81.0452 89.0964 88.2063 89.0844 92.2688 84.4654C94.1371 86.5898 96.8724 87.9342 99.917 87.9342C105.534 87.9342 110.104 83.3642 110.104 77.747C110.104 73.0061 106.849 69.0111 102.456 67.8802V26.7484H115.224V98.153H115.224Z" fill="black"/>
</g>
<defs>
<clipPath id="clip0_1_742">
<rect width="130" height="130" fill="white" transform="translate(0.5)"/>
</clipPath>
</defs>
</svg>
