<svg width="796" height="625" viewBox="0 0 796 625" fill="none" xmlns="http://www.w3.org/2000/svg">
<g clip-path="url(#clip0_1_516)">
<path d="M132.174 503.977C132.089 503.587 131.966 503.206 131.808 502.841H131.934C132.119 502.788 132.302 502.726 132.481 502.653C137.568 508.343 142.2 514.455 146.33 520.926V523.006C142.138 516.259 137.402 509.894 132.174 503.977Z" fill="#1A1A1A"/>
<path d="M106.923 481.642C107.026 481.228 107.074 480.802 107.065 480.375C112.94 484.393 118.516 488.864 123.744 493.75C123.825 494.376 123.942 494.996 124.095 495.608C118.733 490.492 112.991 485.823 106.923 481.642Z" fill="#1A1A1A"/>
<path d="M96.9761 475.381C89.942 471.342 82.6224 467.864 75.0803 464.977C72.6334 464.04 70.2085 463.182 67.8163 462.386C68.2796 462.201 68.7133 461.945 69.1027 461.625C71.1992 462.335 73.3177 463.091 75.4634 463.898C83.6298 467.009 91.537 470.81 99.1055 475.261C98.9413 475.261 98.7825 475.261 98.6183 475.261C98.0691 475.267 97.5207 475.307 96.9761 475.381Z" fill="#1A1A1A"/>
<path d="M61.1553 460.33C52.2774 457.787 43.2295 455.934 34.0865 454.784C34.2463 454.434 34.3622 454.063 34.4314 453.682C42.9993 454.778 51.484 456.487 59.8251 458.796C60.2279 459.344 60.6727 459.857 61.1553 460.33Z" fill="#1A1A1A"/>
<path d="M111.444 418.012C117.451 423.3 123.183 428.916 128.616 434.836C127.974 434.613 127.315 434.448 126.646 434.341C121.489 428.811 116.068 423.552 110.404 418.586C110.778 418.456 111.13 418.264 111.444 418.017V418.012Z" fill="#1A1A1A"/>
<path d="M19.7942 367.466C21.8031 368.034 24.7207 368.875 28.4102 370.102C27.7183 370.225 27.036 370.4 26.3684 370.625C24.7262 370.085 23.2099 369.625 21.929 369.25C21.0313 368.989 20.2376 368.761 19.5479 368.574C19.6097 368.407 19.6608 368.236 19.7011 368.062C19.7427 367.865 19.7738 367.666 19.7942 367.466Z" fill="#1A1A1A"/>
<path d="M36.6695 373.051C44.8532 376.165 52.8744 379.721 60.7002 383.705C60.0173 383.709 59.3354 383.759 58.6584 383.852H58.5271C50.5789 379.875 43.3149 376.79 37.1403 374.421C37.0677 374.01 36.9483 373.609 36.7845 373.227C36.7626 373.182 36.7079 373.119 36.6695 373.051Z" fill="#1A1A1A"/>
<path d="M134.884 441.966C137.917 445.568 140.882 449.335 143.779 453.267C143.681 453.797 143.612 454.332 143.571 454.869C140.714 450.937 137.782 447.168 134.775 443.562C134.775 443.437 134.835 443.312 134.851 443.182C134.9 442.779 134.911 442.371 134.884 441.966Z" fill="#1A1A1A"/>
<path d="M70.099 388.739C74.8066 391.386 79.662 394.318 84.6104 397.568C89.3946 400.705 94.2555 404.142 99.1382 407.887C99.3298 408.546 99.5433 409.188 99.7842 409.807C94.4909 405.688 89.2085 401.932 84.0247 398.529C79.3882 395.483 74.8284 392.722 70.4 390.205C70.4 390.085 70.4 389.966 70.4 389.847C70.3394 389.467 70.2384 389.095 70.099 388.739Z" fill="#1A1A1A"/>
<path d="M156.703 473C156.391 473.199 156.09 473.409 155.789 473.625C153.983 470.504 152.125 467.474 150.217 464.534C150.612 464.496 151.002 464.418 151.382 464.301C153.2 467.127 154.973 470.027 156.703 473Z" fill="#1A1A1A"/>
<path d="M191.944 433.71C192.2 433.601 192.44 433.453 192.656 433.273C192.77 433.178 192.876 433.073 192.974 432.96C194.073 445.258 195.775 457.49 198.075 469.608H196.98C194.726 457.737 193.045 445.756 191.944 433.71Z" fill="#1A1A1A"/>
<path d="M189.717 394.886C190.095 394.836 190.464 394.726 190.811 394.562C190.937 400.386 191.189 407.528 191.654 415.466C191.294 416.204 190.974 416.963 190.696 417.739C190.143 409.011 189.859 401.188 189.717 394.886Z" fill="#1A1A1A"/>
<path d="M192.656 433.273C192.44 433.453 192.201 433.6 191.945 433.71C190.302 434.432 187.96 433.886 185.261 432.574C183.517 431.694 181.839 430.68 180.241 429.54C176.494 426.877 172.993 423.86 169.781 420.529C168.407 419.113 167.138 417.594 165.982 415.983C163.951 413.074 162.993 410.421 163.951 408.563C164.909 406.705 167.668 406.091 171.417 406.886C173.551 407.365 175.615 408.129 177.559 409.159C182.254 411.64 186.357 415.177 189.569 419.512L189.974 420.08C189.848 420.612 189.749 421.15 189.678 421.693C189.361 424.193 189.678 426.301 190.33 427.699C190.981 429.097 191.923 429.801 192.919 429.869C193.237 429.893 193.557 429.862 193.866 429.779C193.97 430.924 193.642 432.066 192.952 432.966C192.861 433.076 192.762 433.179 192.656 433.273Z" fill="#2A6049"/>
<path d="M192.941 429.864C191.945 429.796 191.014 429.102 190.352 427.693C189.689 426.284 189.383 424.188 189.7 421.688C189.771 421.145 189.87 420.606 189.996 420.074C190.178 419.269 190.41 418.478 190.691 417.705C190.969 416.929 191.289 416.17 191.649 415.432C191.934 414.864 192.246 414.262 192.585 413.682C194.262 410.891 196.359 408.397 198.798 406.296C200.978 404.426 203.337 402.792 205.838 401.421C207.729 400.368 209.699 399.475 211.728 398.75C213.204 398.198 214.745 397.854 216.309 397.727C217.607 397.659 218.696 397.898 219.44 398.608C220.185 399.318 220.497 400.438 220.322 401.904C220.018 403.736 219.341 405.479 218.335 407.017C217.049 409.065 215.548 410.958 213.857 412.659C212.078 414.506 210.113 416.267 208.18 417.938C206.248 419.608 204.617 421.051 203.122 422.387L199.176 425.96C198.021 427.017 196.953 427.966 195.963 428.705C195.345 429.188 194.647 429.55 193.904 429.773C193.59 429.859 193.265 429.889 192.941 429.864Z" fill="#2A6049"/>
<path d="M189.568 394.887C185.556 395.296 181.702 389.205 180.957 381.318C180.213 373.432 182.857 366.688 186.869 366.279C190.882 365.87 194.73 371.961 195.474 379.847C196.142 386.898 194.1 393.023 190.805 394.54C190.458 394.704 190.089 394.813 189.71 394.864L189.568 394.887Z" fill="#2A6049"/>
<path d="M131.807 502.841C132.141 503.605 132.327 504.429 132.354 505.267C132.356 507.256 131.71 509.186 130.521 510.745C129.523 512.23 128.049 513.297 126.361 513.756C124.674 514.216 122.885 514.036 121.314 513.25C119.54 512.498 118.063 511.147 117.121 509.415C116.645 508.502 116.396 507.481 116.396 506.444C116.396 505.406 116.645 504.385 117.121 503.472C117.705 502.388 118.499 501.441 119.452 500.69C120.405 499.94 121.497 499.401 122.66 499.108C123.539 498.871 124.446 498.764 125.353 498.79C125.601 499.266 125.883 499.722 126.196 500.154C127.817 502.364 129.908 503.279 131.807 502.841Z" fill="#2A6049"/>
<path d="M131.808 502.841C129.908 503.284 127.817 502.369 126.169 500.153C125.856 499.721 125.574 499.266 125.327 498.79C124.836 497.875 124.448 496.905 124.172 495.898C124.172 495.795 124.122 495.688 124.095 495.585C123.942 494.974 123.825 494.353 123.745 493.727C123.596 492.598 123.554 491.456 123.619 490.318C123.735 488.444 124.149 486.603 124.845 484.869C125.427 483.391 126.274 482.042 127.341 480.892C129.284 478.864 131.523 478.244 133.362 479.006C135.202 479.767 136.466 481.659 137.238 483.841C137.63 484.981 137.899 486.162 138.043 487.364C138.354 489.951 138.194 492.576 137.572 495.102C137.281 496.281 136.87 497.424 136.346 498.511C135.415 500.375 134.156 501.92 132.448 502.608C132.269 502.68 132.086 502.743 131.901 502.795L131.808 502.841Z" fill="#2A6049"/>
<path d="M106.923 481.642C106.923 481.699 106.896 481.761 106.879 481.818C106.577 482.699 106.153 483.53 105.62 484.284C105.379 484.664 105.159 485.059 104.963 485.466C104.847 485.881 104.672 486.275 104.443 486.636C104.372 486.737 104.295 486.834 104.214 486.926L103.891 487.233C103.672 487.432 103.442 487.619 103.206 487.801C102.724 488.185 102.219 488.538 101.696 488.858C100.58 489.537 99.3959 490.088 98.1649 490.5C95.8034 491.329 93.2892 491.58 90.8188 491.233C88.5854 490.864 86.6148 489.886 85.5912 488.08C84.5675 486.273 84.7755 483.937 86.2042 481.659C87.6329 479.381 90.2659 477.239 93.6597 476.097C94.7402 475.737 95.8538 475.495 96.9825 475.375C97.5275 475.309 98.0759 475.277 98.6247 475.278C98.7889 475.278 98.9476 475.278 99.1118 475.278C99.7027 475.297 100.292 475.358 100.874 475.46C101.225 475.528 101.57 475.614 101.904 475.705L102.933 476.017C103.713 476.239 104.463 476.561 105.166 476.977C105.741 477.35 106.223 477.858 106.573 478.46C106.897 479.032 107.071 479.683 107.076 480.347C107.084 480.784 107.033 481.22 106.923 481.642Z" fill="#2A6049"/>
<path d="M98.3887 447.523C100.409 447.426 102.286 448.904 103.824 451.182C107.169 456.696 108.544 463.253 107.711 469.711C107.224 472.449 106.107 474.597 104.229 475.392C102.352 476.188 100.069 475.358 97.9508 473.193C95.8324 471.029 93.9603 467.512 93.079 463.324C92.1977 459.137 92.4988 455.108 93.5607 452.239C94.6227 449.37 96.3852 447.62 98.3887 447.523Z" fill="#2A6049"/>
<path d="M66.2896 462.71C66.4815 462.979 66.638 463.274 66.7549 463.585C67.472 465.551 66.5743 467.904 64.7569 470.216C60.1678 475.466 54.092 479.069 47.4044 480.506C44.5635 480.955 42.1495 480.557 40.885 478.921C39.6205 477.284 39.7902 474.693 41.3448 471.841C42.8994 468.989 45.7732 465.932 49.6324 463.642C53.4915 461.352 57.5094 460.313 60.646 460.398L61.259 460.426C61.4342 460.591 61.6039 460.762 61.8064 460.909C63.0431 462.05 64.635 462.69 66.2896 462.71Z" fill="#2A6049"/>
<path d="M67.7844 462.404C67.3059 462.591 66.8009 462.694 66.2899 462.711C64.6259 462.697 63.0231 462.057 61.7794 460.909C61.6042 460.762 61.4345 460.591 61.232 460.426L61.128 460.33C60.6446 459.849 60.1997 459.329 59.7978 458.773C58.6015 457.11 57.7159 455.229 57.1868 453.228C56.3214 450.285 56.3328 447.14 57.2196 444.205C58.0571 441.745 59.6172 440.069 61.5988 439.659C63.5804 439.25 65.6003 440.199 67.3081 441.932C69.1569 443.966 70.5034 446.433 71.2327 449.125C71.962 451.816 72.0522 454.651 71.4957 457.387C71.1544 459.035 70.3051 460.523 69.0762 461.625C68.6868 461.945 68.2532 462.202 67.7899 462.387L67.7844 462.404Z" fill="#2A6049"/>
<path d="M20.4837 459.773C13.0391 459.205 7.23673 455.381 7.52685 451.21C7.81697 447.04 14.0956 444.114 21.5347 444.67C28.9738 445.227 34.7817 449.057 34.4915 453.227C34.4799 453.38 34.4598 453.532 34.4313 453.682C34.3622 454.063 34.2463 454.433 34.0865 454.784C32.5538 458.097 26.9649 460.256 20.4837 459.773Z" fill="#2A6049"/>
<path d="M144.052 452.097C144.766 449.279 146.393 446.802 148.661 445.085C150.643 443.687 152.81 443.381 154.622 444.278C156.434 445.176 157.622 447.011 158.197 449.153C158.756 451.493 158.715 453.945 158.076 456.263C157.437 458.581 156.224 460.685 154.556 462.364C153.652 463.25 152.567 463.912 151.382 464.301C151.001 464.418 150.611 464.496 150.216 464.534C149.824 464.577 149.43 464.577 149.039 464.534C147.046 464.29 145.36 462.829 144.386 460.557C143.665 458.762 143.385 456.81 143.57 454.875C143.611 454.337 143.68 453.802 143.778 453.273C143.855 452.881 143.942 452.489 144.052 452.097Z" fill="#2A6049"/>
<path d="M134.884 441.966C134.911 442.372 134.9 442.779 134.851 443.182C134.851 443.313 134.796 443.438 134.774 443.563C133.981 447.483 129.465 450.034 124.44 449.301C119.256 448.54 115.506 444.574 116.07 440.432C116.634 436.29 121.292 433.551 126.47 434.307L126.64 434.341C127.309 434.447 127.969 434.613 128.611 434.835C132.185 436.063 134.687 438.875 134.884 441.966Z" fill="#2A6049"/>
<path d="M98.9967 407.386C97.9019 403.267 98.0497 399.267 99.0295 396.398C100.009 393.528 101.766 391.779 103.737 391.636C105.708 391.494 107.657 392.875 109.255 395.006C112.735 400.113 114.393 406.319 113.946 412.557C113.667 414.926 112.89 416.921 111.466 418.011C111.152 418.258 110.8 418.45 110.426 418.58C109.167 419.051 107.689 418.847 106.151 418.011C106.227 417.68 106.262 417.34 106.255 417C106.206 414.915 104.514 413.057 101.739 411.83C101.34 411.654 100.913 411.494 100.469 411.341C100.234 410.852 100.009 410.347 99.8069 409.824C99.566 409.205 99.3525 408.563 99.1609 407.903C99.0897 407.727 99.0405 407.563 98.9967 407.386Z" fill="#2A6049"/>
<path d="M106.233 416.983C106.239 417.323 106.204 417.663 106.129 417.994C105.745 419.699 104.317 421.25 102.242 422.506C96.1341 425.771 89.0795 426.58 82.4319 424.778C79.6949 423.875 77.768 422.352 77.3739 420.295C76.9798 418.239 78.2498 416.051 80.6966 414.222C83.1435 412.392 86.7781 410.972 90.9384 410.494C94.1293 410.089 97.3667 410.373 100.447 411.33C100.89 411.483 101.317 411.642 101.717 411.818C104.492 413.068 106.183 414.898 106.233 416.983Z" fill="#2A6049"/>
<path d="M60.7009 383.705C61.0786 383.705 61.4563 383.705 61.7957 383.739C61.9709 383.938 62.1515 384.131 62.3431 384.307C64.5327 386.483 66.8263 387.278 68.6491 386.506C69.2841 387.128 69.7745 387.891 70.0833 388.739C70.2173 389.105 70.3109 389.487 70.3625 389.875C70.3625 389.994 70.3625 390.114 70.3625 390.233C70.6143 394.244 66.3391 398.074 60.5751 398.886C54.6413 399.716 49.3972 397.034 48.8553 392.892C48.3134 388.75 52.6268 384.778 58.4894 383.903H58.6209C59.3094 383.791 60.0042 383.725 60.7009 383.705Z" fill="#2A6049"/>
<path d="M62.3589 384.307C62.1783 384.131 61.9977 383.937 61.8115 383.739C59.505 380.996 57.9027 377.693 57.1532 374.136C56.1679 369.778 56.4033 365.614 57.4324 362.631C58.4615 359.648 60.2241 357.835 62.2221 357.733C64.2201 357.631 66.125 359.153 67.696 361.5C71.0991 367.2 72.6174 373.897 72.0205 380.574C71.6264 383.415 70.5972 385.631 68.7361 386.472L68.654 386.506C66.8421 387.278 64.5321 386.483 62.3589 384.307Z" fill="#2A6049"/>
<path d="M28.6396 370.062C28.9981 370.403 29.3826 370.713 29.7891 370.989C31.8035 372.352 33.9548 372.642 35.7338 371.761C36.1111 372.136 36.4272 372.571 36.6698 373.051C36.7082 373.119 36.752 373.182 36.7848 373.25C36.9486 373.632 37.068 374.032 37.1406 374.443C37.4011 376.218 37.0441 378.031 36.1334 379.557C34.7386 381.898 32.8112 383.848 30.5205 385.235C28.2297 386.622 25.6459 387.404 22.9959 387.511C20.6531 387.511 18.5894 386.716 17.4125 385.011C16.2356 383.307 16.2137 381 17.2373 378.631C18.5262 375.895 20.5912 373.635 23.1547 372.153C24.1699 371.539 25.2452 371.038 26.3624 370.659C27.03 370.434 27.7124 370.259 28.4042 370.136L28.6396 370.062Z" fill="#2A6049"/>
<path d="M29.7897 370.989C29.3832 370.713 28.9987 370.403 28.6402 370.063C26.89 368.409 25.583 366.312 24.8467 363.977C23.8712 361.18 23.8097 358.127 24.6716 355.29C25.4817 352.903 27.0582 351.313 29.0507 350.903C31.0433 350.494 33.0358 351.33 34.7272 352.824C36.5394 354.542 37.9026 356.71 38.6894 359.123C39.4763 361.536 39.6611 364.117 39.2268 366.625C38.756 368.898 37.6503 370.795 35.8439 371.739C35.8157 371.753 35.7864 371.764 35.7563 371.773C33.9554 372.642 31.8041 372.352 29.7897 370.989Z" fill="#2A6049"/>
<path d="M1.02362 358.983C2.24978 357.318 4.23135 356.523 6.35524 356.341C8.64345 356.21 10.9274 356.669 13.003 357.677C15.0787 358.685 16.8814 360.211 18.2502 362.119C19.3877 363.64 19.9416 365.545 19.8048 367.466C19.7835 367.657 19.7524 367.846 19.7117 368.034C19.6714 368.208 19.6202 368.379 19.5584 368.545C18.9727 370.324 17.4674 371.71 15.2942 372.346C12.935 373.051 9.8203 372.812 6.82058 371.364C3.82085 369.915 1.65317 367.574 0.662384 365.244C-0.328402 362.915 -0.191601 360.642 1.02362 358.983Z" fill="#2A6049"/>
<path d="M331.689 623.296H292.276C292.421 623.144 292.505 622.941 292.511 622.727V607.387H324.644C327.83 607.389 330.978 606.668 333.867 605.273C332.366 610.191 331.598 615.319 331.59 620.477C331.595 621.432 331.634 622.364 331.689 623.296Z" fill="#EFF0F1"/>
<path d="M683.297 620.494C683.297 607.329 678.277 594.795 669.229 583.403C696.1 587.949 716.803 603.699 720.963 623.295H683.193C683.236 622.364 683.297 621.432 683.297 620.494Z" fill="#EFF0F1"/>
<path d="M346.544 582.318V494.284C371.101 499.273 389.411 518.716 389.411 541.892V542.131C392.652 541.979 395.936 541.9 399.264 541.892C402.592 541.885 405.877 541.966 409.117 542.136C381.819 552.046 359.994 565.966 346.544 582.318Z" fill="#EFF0F1"/>
<path d="M200.347 622.728C200.352 622.941 200.436 623.145 200.582 623.296H178.96C179.179 617.875 179.442 612.569 179.836 607.387H200.347V622.728Z" fill="#EFF0F1"/>
<path d="M683.198 623.296H645.932L652.708 567.228C658.8 571.937 664.344 577.366 669.229 583.404C678.277 594.767 683.297 607.33 683.297 620.495C683.297 621.432 683.237 622.364 683.198 623.296Z" fill="#EC744A"/>
<path d="M427.171 554.25C427.175 554.37 427.202 554.487 427.252 554.595C427.302 554.702 427.373 554.798 427.461 554.876C427.548 554.953 427.651 555.011 427.761 555.045C427.871 555.079 427.987 555.089 428.101 555.074L445.448 552.653C446.811 564.097 448.558 575.5 450.796 586.136C453.84 600.563 457.776 613.551 462.927 623.296H331.689C331.634 622.364 331.596 621.432 331.596 620.494C331.604 615.335 332.372 610.208 333.873 605.29C337.661 603.464 340.867 600.551 343.112 596.896C345.357 593.24 346.548 588.994 346.545 584.659V582.296C359.995 565.943 381.819 552.023 409.101 542.114C414.765 540.049 420.659 538.169 426.782 536.472C427.001 547.796 427.171 554.25 427.171 554.25Z" fill="#EC744A"/>
<path d="M314.331 437.642C305.455 437.642 298.259 430.151 298.259 420.909C298.259 411.668 305.455 404.176 314.331 404.176C323.207 404.176 330.402 411.668 330.402 420.909C330.402 430.151 323.207 437.642 314.331 437.642Z" fill="white"/>
<path d="M307.248 413.58C309.229 411.526 310.801 409.087 311.873 406.402C312.945 403.717 313.496 400.838 313.493 397.932C313.494 397.707 313.578 397.491 313.729 397.33C313.883 397.171 314.092 397.081 314.309 397.08H314.347C314.565 397.08 314.774 397.169 314.928 397.329C315.082 397.489 315.168 397.706 315.168 397.932C315.168 400.838 315.72 403.715 316.791 406.4C317.863 409.085 319.434 411.524 321.414 413.579C323.393 415.633 325.744 417.263 328.331 418.374C330.917 419.486 333.69 420.058 336.489 420.057C336.707 420.057 336.916 420.147 337.07 420.306C337.224 420.466 337.311 420.683 337.311 420.909C337.31 421.135 337.224 421.352 337.07 421.511C336.915 421.67 336.707 421.76 336.489 421.761C330.838 421.769 325.42 424.102 321.423 428.25C317.426 432.397 315.177 438.02 315.168 443.886C315.168 444.112 315.082 444.329 314.928 444.489C314.774 444.649 314.565 444.739 314.347 444.739H314.293C314.075 444.737 313.867 444.648 313.712 444.489C313.562 444.327 313.477 444.111 313.477 443.886C313.468 438.02 311.219 432.397 307.222 428.25C303.226 424.102 297.807 421.769 292.156 421.761C291.938 421.76 291.73 421.67 291.576 421.511C291.422 421.352 291.335 421.135 291.335 420.909C291.335 420.683 291.421 420.466 291.575 420.306C291.729 420.147 291.938 420.057 292.156 420.057C294.959 420.063 297.735 419.493 300.325 418.382C302.915 417.27 305.267 415.638 307.248 413.58ZM314.331 437.642C315.38 433.645 317.414 430 320.231 427.066C323.049 424.132 326.555 422.01 330.402 420.909C326.555 419.808 323.049 417.686 320.231 414.752C317.414 411.818 315.38 408.173 314.331 404.176C313.282 408.173 311.248 411.818 308.43 414.752C305.612 417.686 302.107 419.808 298.259 420.909C302.107 422.01 305.612 424.132 308.43 427.066C311.248 430 313.282 433.645 314.331 437.642Z" fill="black"/>
<path d="M773.02 299.278C764.144 299.278 756.949 291.787 756.949 282.545C756.949 273.304 764.144 265.812 773.02 265.812C781.896 265.812 789.092 273.304 789.092 282.545C789.092 291.787 781.896 299.278 773.02 299.278Z" fill="white"/>
<path d="M750.287 283.148C750.134 282.987 750.048 282.771 750.046 282.545C750.046 282.319 750.133 282.103 750.287 281.943C750.441 281.783 750.65 281.693 750.867 281.693C756.518 281.684 761.935 279.35 765.93 275.203C769.926 271.056 772.174 265.433 772.183 259.568C772.182 259.456 772.203 259.345 772.245 259.242C772.286 259.138 772.347 259.045 772.424 258.966C772.578 258.806 772.786 258.716 773.004 258.716H773.042C773.26 258.717 773.468 258.807 773.622 258.966C773.699 259.045 773.76 259.138 773.801 259.242C773.843 259.345 773.864 259.456 773.863 259.568C773.862 262.475 774.415 265.354 775.489 268.038C776.564 270.723 778.14 273.16 780.126 275.21C782.1 277.266 784.447 278.896 787.03 280.009C789.613 281.121 792.382 281.694 795.179 281.693C795.397 281.693 795.606 281.783 795.76 281.943C795.913 282.103 796 282.319 796 282.545C795.999 282.771 795.912 282.987 795.759 283.148C795.605 283.308 795.397 283.397 795.179 283.398C792.383 283.396 789.613 283.967 787.03 285.079C784.447 286.191 782.101 287.82 780.126 289.875C778.143 291.928 776.572 294.367 775.501 297.052C774.43 299.738 773.881 302.616 773.885 305.523C773.885 305.749 773.798 305.965 773.644 306.125C773.49 306.284 773.282 306.373 773.064 306.375H773.009C772.792 306.375 772.583 306.285 772.429 306.125C772.275 305.965 772.188 305.749 772.188 305.523C772.188 299.655 769.943 294.027 765.945 289.878C761.948 285.729 756.526 283.398 750.873 283.398C750.764 283.398 750.656 283.377 750.556 283.334C750.455 283.291 750.364 283.227 750.287 283.148ZM773.009 299.278C774.059 295.28 776.093 291.635 778.912 288.701C781.731 285.767 785.238 283.646 789.086 282.545C785.238 281.445 781.731 279.324 778.912 276.39C776.093 273.456 774.059 269.81 773.009 265.812C771.96 269.81 769.927 273.454 767.109 276.388C764.291 279.322 760.786 281.444 756.938 282.545C760.786 283.647 764.291 285.768 767.109 288.702C769.927 291.636 771.96 295.281 773.009 299.278Z" fill="black"/>
<path d="M77.3741 548.585C79.9958 548.588 82.5581 549.397 84.7369 550.91C86.9157 552.424 88.6133 554.574 89.6151 557.088C90.6168 559.603 90.8778 562.37 90.365 565.038C89.8522 567.707 88.5887 570.158 86.7341 572.082C84.8795 574.005 82.5171 575.315 79.9456 575.845C77.3742 576.375 74.7091 576.101 72.2871 575.06C69.8652 574.018 67.7952 572.254 66.3389 569.991C64.8826 567.728 64.1053 565.068 64.1053 562.347C64.106 560.539 64.4498 558.749 65.117 557.079C65.7842 555.409 66.7618 553.892 67.9939 552.614C69.226 551.336 70.6886 550.322 72.2981 549.631C73.9075 548.94 75.6323 548.585 77.3741 548.585ZM77.3741 571.472C79.1139 571.471 80.8144 570.934 82.2604 569.93C83.7064 568.926 84.833 567.499 85.4978 565.83C86.1626 564.161 86.3357 562.325 85.9952 560.554C85.6547 558.783 84.816 557.157 83.585 555.881C82.354 554.605 80.786 553.736 79.0794 553.385C77.3729 553.034 75.6042 553.216 73.9973 553.908C72.3903 554.6 71.0172 555.771 70.0515 557.273C69.0858 558.775 68.5709 560.541 68.572 562.347C68.5727 563.546 68.801 564.733 69.2437 565.841C69.6864 566.948 70.335 567.954 71.1524 568.802C71.9697 569.649 72.9399 570.321 74.0074 570.779C75.075 571.237 76.2189 571.473 77.3741 571.472Z" fill="#EC744A"/>
<path d="M738.578 508.938C742.278 505.194 745.69 501.155 748.781 496.858H750.309C750.526 496.858 750.735 496.768 750.889 496.608C751.043 496.449 751.13 496.232 751.13 496.006C751.13 495.78 751.043 495.563 750.889 495.403C750.735 495.243 750.526 495.153 750.309 495.153H749.92C750.221 494.676 750.527 494.199 750.812 493.71C753.598 488.966 755.388 483.949 755.739 478.216H756.587C756.769 478.216 756.945 478.153 757.088 478.038C757.232 477.923 757.335 477.762 757.381 477.58C757.24 481.486 756.426 485.335 754.978 488.943C752.274 495.761 747.588 501.659 742.125 507.574C738.386 511.614 734.292 515.665 730.186 519.989L729.037 518.773C732.305 515.341 735.545 512.119 738.578 508.938Z" fill="black"/>
<path d="M701.575 374.279C701.575 374.279 701.575 374.335 701.575 374.364C700.962 369.591 700.659 364.781 700.666 359.966C700.666 359.74 700.752 359.523 700.906 359.363C701.06 359.204 701.269 359.114 701.487 359.114C701.705 359.114 701.914 359.204 702.068 359.363C702.222 359.523 702.308 359.74 702.308 359.966C702.303 364.466 702.574 368.962 703.118 373.426H702.396C702.178 373.426 701.969 373.516 701.815 373.676C701.661 373.836 701.575 374.053 701.575 374.279Z" fill="black"/>
<path d="M717.443 535.193H715.9C715.682 535.193 715.473 535.283 715.319 535.443C715.165 535.603 715.079 535.819 715.079 536.046C715.079 536.272 715.165 536.488 715.319 536.648C715.473 536.808 715.682 536.898 715.9 536.898H716.267C716.201 536.989 716.135 537.08 716.075 537.176C713.059 541.658 710.491 546.448 708.411 551.472H707.798C707.581 551.463 707.369 551.545 707.209 551.699C707.049 551.853 706.955 552.067 706.947 552.293C706.939 552.519 707.018 552.739 707.166 552.904C707.315 553.07 707.52 553.168 707.738 553.176C705.312 559.542 703.704 566.211 702.954 573.011H702.407C702.189 573.011 701.98 573.101 701.826 573.261C701.672 573.421 701.585 573.638 701.585 573.864C701.585 574.09 701.672 574.307 701.826 574.466C701.98 574.626 702.189 574.716 702.407 574.716H702.768C702.483 577.733 702.324 580.886 702.324 584.193C702.324 584.419 702.238 584.636 702.084 584.796C701.93 584.956 701.721 585.046 701.503 585.046C701.286 585.046 701.077 584.956 700.923 584.796C700.769 584.636 700.682 584.419 700.682 584.193C700.682 568.284 704.164 555.739 709.386 545.352C714.471 535.244 721.188 527.17 727.91 520.017C728.293 520.42 728.676 520.83 729.054 521.239C724.876 525.605 720.997 530.268 717.443 535.193Z" fill="black"/>
<path d="M756.587 476.511H755.766V476.318C755.766 469.142 753.5 462.881 749.849 456.824H750.298C750.516 456.824 750.725 456.734 750.879 456.574C751.033 456.414 751.119 456.198 751.119 455.972C751.119 455.746 751.033 455.529 750.879 455.369C750.725 455.209 750.516 455.119 750.298 455.119H748.776C748.305 454.392 747.824 453.665 747.315 452.943C742.388 445.875 735.737 438.937 729.037 431.085L730.132 429.795C733.416 433.636 736.701 437.278 739.766 440.835C744.621 446.437 749.017 451.847 752.219 457.591C755.422 463.335 757.42 469.432 757.414 476.341C757.414 476.631 757.414 476.909 757.414 477.199C757.378 477.001 757.274 476.823 757.123 476.697C756.971 476.571 756.782 476.505 756.587 476.511Z" fill="black"/>
<path d="M707.782 396.665H709.002C709.586 398.131 710.201 399.562 710.847 400.96C712.482 404.502 714.324 407.937 716.365 411.244H716.206C715.988 411.244 715.779 411.334 715.625 411.494C715.471 411.654 715.385 411.87 715.385 412.097C715.385 412.323 715.471 412.539 715.625 412.699C715.779 412.859 715.988 412.949 716.206 412.949H717.421C720.96 418.396 724.844 423.594 729.048 428.506C728.681 428.937 728.314 429.364 727.953 429.795C724.669 425.881 721.384 421.739 718.259 417.227C713.705 410.703 709.935 403.626 707.032 396.153C707.095 396.305 707.2 396.434 707.333 396.525C707.467 396.616 707.622 396.664 707.782 396.665Z" fill="black"/>
<path d="M702.396 375.131H703.343C704.278 381.917 705.958 388.57 708.352 394.96H707.804C707.586 394.96 707.378 395.05 707.224 395.21C707.07 395.37 706.983 395.586 706.983 395.812C706.983 395.922 707.003 396.03 707.043 396.131C704.392 389.165 702.57 381.89 701.619 374.466C701.658 374.651 701.756 374.817 701.897 374.938C702.038 375.058 702.213 375.126 702.396 375.131Z" fill="black"/>
<path d="M707.781 456.818H708.241C707.913 457.386 707.59 457.892 707.289 458.437C704.19 464 702.318 469.773 702.313 476.312C702.313 476.375 702.313 476.437 702.313 476.506H701.486C701.296 476.505 701.111 476.573 700.964 476.699C700.817 476.824 700.717 476.999 700.682 477.193C700.682 476.903 700.682 476.625 700.682 476.312C700.682 468.591 703.194 461.881 707.086 455.528C707.011 455.661 706.972 455.812 706.971 455.966C706.971 456.19 707.056 456.405 707.208 456.564C707.359 456.724 707.566 456.815 707.781 456.818Z" fill="black"/>
<path d="M755.695 373.426H754.978C755.516 368.961 755.783 364.466 755.778 359.966C755.778 359.74 755.864 359.523 756.018 359.363C756.172 359.204 756.381 359.114 756.599 359.114C756.816 359.114 757.025 359.204 757.179 359.363C757.333 359.523 757.42 359.74 757.42 359.966C757.428 364.804 757.123 369.637 756.506 374.432C756.508 374.381 756.508 374.33 756.506 374.279C756.506 374.054 756.421 373.839 756.269 373.68C756.117 373.52 755.911 373.429 755.695 373.426Z" fill="black"/>
<path d="M742.191 411.245H741.742C744.594 406.616 747.052 401.737 749.088 396.665H750.309C750.46 396.665 750.608 396.621 750.737 396.539C750.865 396.457 750.969 396.339 751.037 396.199C750.307 398.093 749.539 399.925 748.733 401.694C747.02 405.394 745.088 408.98 742.947 412.432C742.991 412.326 743.013 412.212 743.012 412.097C743.012 411.871 742.926 411.654 742.772 411.494C742.618 411.334 742.409 411.245 742.191 411.245Z" fill="black"/>
<path d="M750.309 394.961H749.762C752.155 388.571 753.835 381.918 754.77 375.131H755.695C755.887 375.131 756.073 375.062 756.22 374.934C756.367 374.806 756.467 374.628 756.5 374.432C755.55 381.831 753.734 389.081 751.092 396.023C751.116 395.944 751.128 395.862 751.13 395.779C751.122 395.559 751.031 395.351 750.878 395.198C750.725 395.045 750.521 394.96 750.309 394.961Z" fill="black"/>
<path d="M755.695 574.711C755.913 574.711 756.122 574.621 756.276 574.461C756.43 574.301 756.516 574.084 756.516 573.858C756.516 573.632 756.43 573.415 756.276 573.256C756.122 573.096 755.913 573.006 755.695 573.006H755.148C754.395 566.205 752.782 559.536 750.353 553.171C750.56 553.158 750.755 553.063 750.898 552.905C751.04 552.748 751.119 552.54 751.119 552.324C751.118 552.099 751.031 551.883 750.877 551.723C750.723 551.564 750.515 551.473 750.298 551.472H749.69C748.935 549.631 748.125 547.853 747.26 546.137C745.641 542.935 743.82 539.849 741.808 536.898H741.873C742.091 536.898 742.3 536.808 742.454 536.648C742.608 536.489 742.695 536.272 742.695 536.046C742.695 535.82 742.608 535.603 742.454 535.443C742.3 535.283 742.091 535.193 741.873 535.193H740.636C737.086 530.265 733.209 525.6 729.032 521.233C728.654 520.824 728.271 520.415 727.888 520.012C724.641 516.603 721.401 513.347 718.335 510.137C713.48 505.023 709.074 500.057 705.866 494.603C702.855 489.489 700.906 483.921 700.682 477.557C700.723 477.746 700.824 477.914 700.97 478.035C701.115 478.155 701.295 478.221 701.481 478.222H702.395C702.596 481.696 703.355 485.11 704.64 488.324C705.61 490.709 706.798 492.992 708.187 495.142H707.804C707.586 495.142 707.377 495.232 707.223 495.392C707.069 495.552 706.983 495.769 706.983 495.995C706.983 496.221 707.069 496.437 707.223 496.597C707.377 496.757 707.586 496.847 707.804 496.847H709.32C711.715 500.221 714.337 503.417 717.164 506.409C720.854 510.387 724.948 514.443 729.07 518.784L730.219 520C735.032 525.012 739.437 530.428 743.39 536.194C751.442 548.211 757.447 563.296 757.441 584.176C757.441 584.402 757.355 584.619 757.201 584.779C757.047 584.939 756.838 585.029 756.62 585.029C756.403 585.029 756.194 584.939 756.04 584.779C755.886 584.619 755.799 584.402 755.799 584.176C755.799 580.87 755.64 577.722 755.35 574.699L755.695 574.711Z" fill="black"/>
<path d="M719.54 441.978C715.841 446.106 712.423 450.495 709.309 455.114H707.782C707.651 455.113 707.522 455.144 707.406 455.205C707.29 455.266 707.19 455.356 707.114 455.466C707.847 454.279 708.619 453.103 709.44 451.932C714.542 444.671 721.242 437.659 727.953 429.773C728.314 429.341 728.681 428.915 729.048 428.483C732.272 424.648 735.48 420.603 738.496 416.216C739.235 415.142 739.957 414.046 740.685 412.926H742.191C742.311 412.926 742.43 412.899 742.538 412.846C742.647 412.793 742.743 412.715 742.82 412.62C739.006 418.654 734.767 424.388 730.137 429.773L729.042 431.063C725.802 434.892 722.567 438.483 719.54 441.978Z" fill="black"/>
<path d="M755.695 375.131H702.396C702.209 375.131 702.028 375.066 701.883 374.945C701.738 374.824 701.636 374.655 701.596 374.466C701.593 374.432 701.593 374.398 701.596 374.364C701.596 374.364 701.596 374.307 701.596 374.279C701.596 374.053 701.683 373.836 701.837 373.676C701.991 373.516 702.2 373.426 702.417 373.426H755.695C755.913 373.426 756.122 373.516 756.276 373.676C756.43 373.836 756.517 374.053 756.517 374.279C756.519 374.33 756.519 374.381 756.517 374.432C756.483 374.631 756.381 374.811 756.231 374.939C756.08 375.067 755.89 375.135 755.695 375.131Z" fill="black"/>
<path d="M750.309 396.665H707.782C707.622 396.664 707.467 396.616 707.333 396.525C707.2 396.434 707.095 396.305 707.032 396.153C706.992 396.052 706.971 395.944 706.972 395.835C706.972 395.609 707.058 395.392 707.212 395.233C707.366 395.073 707.575 394.983 707.793 394.983H750.309C750.527 394.983 750.735 395.073 750.889 395.233C751.043 395.392 751.13 395.609 751.13 395.835C751.128 395.918 751.115 396 751.092 396.079C751.077 396.128 751.058 396.176 751.037 396.222C750.966 396.357 750.861 396.47 750.732 396.548C750.604 396.627 750.458 396.667 750.309 396.665Z" fill="black"/>
<path d="M742.191 412.949H716.206C715.988 412.949 715.779 412.859 715.625 412.699C715.471 412.539 715.385 412.322 715.385 412.096C715.385 411.87 715.471 411.654 715.625 411.494C715.779 411.334 715.988 411.244 716.206 411.244H742.191C742.408 411.244 742.617 411.334 742.771 411.494C742.925 411.654 743.012 411.87 743.012 412.096C743.013 412.212 742.99 412.326 742.946 412.432C742.914 412.508 742.871 412.578 742.82 412.642C742.743 412.738 742.647 412.815 742.538 412.868C742.429 412.921 742.311 412.948 742.191 412.949Z" fill="black"/>
<path d="M701.575 573.864C701.575 573.637 701.661 573.421 701.815 573.261C701.969 573.101 702.178 573.011 702.396 573.011H755.696C755.913 573.011 756.122 573.101 756.276 573.261C756.43 573.421 756.517 573.637 756.517 573.864C756.517 574.09 756.43 574.306 756.276 574.466C756.122 574.626 755.913 574.716 755.696 574.716H702.396C702.178 574.716 701.969 574.626 701.815 574.466C701.661 574.306 701.575 574.09 701.575 573.864Z" fill="black"/>
<path d="M707.782 553.176H707.721C707.504 553.168 707.298 553.07 707.15 552.905C707.001 552.739 706.922 552.519 706.93 552.293C706.938 552.067 707.033 551.853 707.192 551.699C707.352 551.545 707.564 551.463 707.782 551.472H750.309C750.526 551.473 750.734 551.564 750.888 551.723C751.041 551.883 751.128 552.098 751.13 552.324C751.13 552.54 751.051 552.748 750.909 552.905C750.766 553.063 750.571 553.158 750.364 553.171H707.782V553.176Z" fill="black"/>
<path d="M715.9 536.898C715.682 536.898 715.474 536.808 715.32 536.648C715.166 536.488 715.079 536.272 715.079 536.046C715.079 535.82 715.166 535.603 715.32 535.443C715.474 535.283 715.682 535.193 715.9 535.193H741.885C742.103 535.193 742.312 535.283 742.466 535.443C742.62 535.603 742.706 535.82 742.706 536.046C742.706 536.272 742.62 536.488 742.466 536.648C742.312 536.808 742.103 536.898 741.885 536.898H715.9Z" fill="black"/>
<path d="M707.782 455.114H750.309C750.527 455.114 750.735 455.204 750.889 455.363C751.043 455.523 751.13 455.74 751.13 455.966C751.13 456.192 751.043 456.409 750.889 456.569C750.735 456.729 750.527 456.818 750.309 456.818H707.782C707.564 456.818 707.355 456.729 707.201 456.569C707.047 456.409 706.961 456.192 706.961 455.966C706.961 455.812 707.001 455.661 707.076 455.529L707.114 455.466C707.19 455.356 707.29 455.266 707.406 455.205C707.522 455.144 707.651 455.112 707.782 455.114Z" fill="black"/>
<path d="M750.309 495.153C750.527 495.153 750.735 495.243 750.889 495.403C751.043 495.563 751.13 495.78 751.13 496.006C751.13 496.232 751.043 496.448 750.889 496.608C750.735 496.768 750.527 496.858 750.309 496.858H707.782C707.564 496.858 707.355 496.768 707.201 496.608C707.047 496.448 706.961 496.232 706.961 496.006C706.961 495.78 707.047 495.563 707.201 495.403C707.355 495.243 707.564 495.153 707.782 495.153H750.309Z" fill="black"/>
<path d="M756.587 478.216H701.492C701.306 478.216 701.125 478.15 700.98 478.029C700.835 477.908 700.734 477.74 700.693 477.552C700.687 477.489 700.687 477.426 700.693 477.364C700.687 477.309 700.687 477.254 700.693 477.199C700.728 477.005 700.828 476.83 700.975 476.705C701.122 476.579 701.307 476.511 701.497 476.512H756.587C756.773 476.511 756.954 476.577 757.1 476.698C757.245 476.819 757.346 476.988 757.386 477.177C757.394 477.239 757.394 477.302 757.386 477.364C757.395 477.436 757.395 477.508 757.386 477.58C757.34 477.763 757.236 477.925 757.092 478.04C756.947 478.155 756.769 478.217 756.587 478.216Z" fill="black"/>
<path d="M559.088 136.75C584.503 149.369 616.132 173.551 640.967 219.932C651.488 239.602 655.374 259.562 655.38 278.346C655.38 300.415 650.004 320.852 643.742 337.159C632.125 299.909 616.597 264.097 597.438 230.369C597.335 230.186 597.169 230.05 596.973 229.988C596.777 229.926 596.566 229.942 596.382 230.034L552.563 133.699C554.687 134.659 556.86 135.642 559.088 136.75Z" fill="white"/>
<path d="M643.742 337.159C650.004 320.853 655.38 300.415 655.38 278.347C655.38 259.563 651.493 239.602 640.967 219.932C616.132 173.551 584.503 149.37 559.088 136.75C556.86 135.614 554.708 134.631 552.563 133.699L552.388 133.307C552.528 133.239 552.647 133.131 552.73 132.995C552.814 132.859 552.858 132.701 552.858 132.54C552.858 132.379 552.814 132.221 552.73 132.085C552.647 131.949 552.528 131.841 552.388 131.773C554.785 132.815 557.254 133.96 559.794 135.21C585.467 147.955 617.391 172.398 642.396 219.102C653.075 239.046 657.017 259.318 657.017 278.347C657.017 301.58 651.149 322.955 644.52 339.71C644.268 338.858 644.005 338.006 643.742 337.159Z" fill="black"/>
<path d="M177.247 239.659C170.755 235.267 165.697 230.472 162.735 226.244C160.748 223.404 159.735 220.864 159.746 218.966C159.733 218.273 159.887 217.587 160.195 216.972C160.398 216.563 160.679 216.201 161.022 215.909C161.425 215.585 161.876 215.329 162.357 215.154C163.682 214.708 165.071 214.502 166.463 214.546C169.196 214.614 171.915 214.966 174.581 215.597C177.597 216.256 180.843 217.182 184.095 218.222C190.603 220.313 197.139 222.881 201.978 224.796C203.588 225.448 205.233 226.006 206.904 226.466C208.06 226.804 209.251 226.995 210.452 227.034C211.145 227.06 211.835 226.924 212.471 226.636C213.042 226.365 213.494 225.88 213.736 225.279C213.891 224.882 213.967 224.457 213.96 224.029C213.946 223.373 213.835 222.723 213.632 222.102C213.386 221.342 213.086 220.601 212.734 219.886C211.78 217.996 210.699 216.177 209.499 214.443C208.417 212.934 207.813 211.114 207.769 209.233C207.744 207.618 208.305 206.052 209.34 204.847C209.81 204.304 210.383 203.869 211.024 203.571C211.666 203.272 212.36 203.116 213.063 203.114C214.446 203.137 215.782 203.641 216.856 204.546C218.474 205.908 219.773 207.633 220.655 209.591C222.429 213.216 225.582 217.546 229.282 222C232.982 226.455 237.285 231.091 241.363 235.29C245.195 239.205 248.791 242.733 251.566 245.381C247.275 245.58 243.848 246.642 241.166 248.261C238.454 249.895 236.209 252.248 234.663 255.08C232.987 258.22 231.963 261.691 231.658 265.267C224.377 260.386 214.207 255.074 200.374 250.767C192.198 248.216 184.412 244.476 177.247 239.659Z" fill="white"/>
<path d="M252.984 245.347C252.486 245.347 252.004 245.347 251.528 245.387C248.753 242.739 245.134 239.21 241.324 235.296C237.246 231.108 232.955 226.477 229.243 222.006C225.532 217.534 222.39 213.222 220.616 209.597C219.746 207.64 218.46 205.914 216.856 204.546C215.795 203.655 214.481 203.154 213.117 203.12C212.414 203.122 211.72 203.278 211.079 203.576C210.438 203.875 209.864 204.31 209.395 204.852C208.359 206.058 207.798 207.624 207.824 209.239C207.867 211.12 208.472 212.94 209.554 214.449C210.754 216.182 211.835 218.001 212.789 219.892C213.14 220.607 213.44 221.348 213.686 222.108C213.889 222.729 214 223.379 214.015 224.034C214.021 224.462 213.945 224.887 213.79 225.284C213.548 225.886 213.097 226.37 212.526 226.642C211.89 226.93 211.2 227.066 210.506 227.04C209.306 227.001 208.115 226.81 206.959 226.472C205.288 226.012 203.643 225.454 202.032 224.801C197.193 222.887 190.658 220.318 184.149 218.227C180.897 217.188 177.651 216.262 174.635 215.602C171.97 214.972 169.25 214.62 166.517 214.551C165.125 214.508 163.737 214.713 162.412 215.159C161.912 215.328 161.442 215.581 161.022 215.909C160.671 216.192 160.381 216.545 160.168 216.949C159.859 217.564 159.705 218.25 159.719 218.943C159.719 220.841 160.72 223.404 162.708 226.222C165.669 230.449 170.727 235.245 177.219 239.637C184.376 244.451 192.153 248.191 200.319 250.745C214.152 255.051 224.322 260.364 231.603 265.245C231.531 265.983 231.493 266.642 231.471 267.199C224.284 262.262 214.026 256.801 199.848 252.375C188.041 248.688 177.662 242.716 170.201 236.466C166.902 233.806 163.945 230.716 161.405 227.273C159.319 224.29 158.12 221.489 158.12 218.995C158.105 218.017 158.327 217.052 158.766 216.188C159.088 215.582 159.524 215.049 160.047 214.62C160.886 213.965 161.851 213.507 162.877 213.279C164.068 213.002 165.286 212.873 166.506 212.892C169.354 212.959 172.187 213.324 174.964 213.983C184.209 216.006 195.332 220.381 202.607 223.256C204.16 223.887 205.746 224.423 207.359 224.864C208.384 225.164 209.441 225.334 210.506 225.37C210.84 225.375 211.173 225.337 211.497 225.256C211.761 225.206 212 225.063 212.176 224.852C212.319 224.619 212.388 224.345 212.373 224.068C212.357 223.588 212.272 223.113 212.121 222.659C211.573 220.955 210.227 218.449 208.207 215.46C206.929 213.666 206.221 211.504 206.182 209.273C206.153 207.229 206.871 205.25 208.191 203.733C208.814 203.019 209.574 202.447 210.422 202.056C211.271 201.665 212.189 201.462 213.117 201.46C214.835 201.499 216.494 202.119 217.841 203.227C219.661 204.744 221.123 206.672 222.116 208.864C223.759 212.273 226.857 216.512 230.524 220.932C236.031 227.568 242.874 234.602 248.337 239.966C250.718 242.307 252.831 244.324 254.462 245.864L253.29 245.432C253.195 245.381 253.091 245.352 252.984 245.347Z" fill="black"/>
<path d="M581.81 533.523C603.755 530.426 628.497 526.938 656.414 523.006L644.278 623.296H573.517C574.026 619.034 576.128 600.983 578.235 578.602C579.56 564.5 580.874 548.682 581.81 533.523Z" fill="#2A6049"/>
<path d="M645.932 623.296L645.817 624.256C645.792 624.462 645.695 624.651 645.545 624.788C645.395 624.925 645.201 625 645.001 625H572.592C572.791 625 572.984 624.925 573.133 624.788C573.282 624.65 573.378 624.461 573.402 624.256C573.402 624.256 573.446 623.921 573.517 623.296H644.279L656.415 523.006L658.101 522.773L652.725 567.227L645.932 623.296Z" fill="black"/>
<path d="M577.042 573.563C574.787 598.216 572.4 618.671 571.875 623.137C571.875 623.199 571.875 623.239 571.875 623.296H464.826C459.582 613.716 455.521 600.517 452.417 585.796C450.189 575.222 448.448 563.858 447.091 552.449C468.33 549.483 509.423 543.727 580.168 533.773C579.336 547.063 578.214 560.87 577.042 573.563Z" fill="#2A6049"/>
<path d="M445.448 552.654L447.09 552.426C448.448 563.835 450.189 575.199 452.417 585.773C455.52 600.546 459.582 613.716 464.826 623.273H571.864C571.864 623.216 571.864 623.176 571.864 623.114C572.411 618.648 574.776 598.193 577.031 573.54C578.192 560.847 579.314 547.04 580.129 533.727L581.771 533.489C580.846 548.659 579.522 564.477 578.197 578.58C576.09 600.96 573.988 619.011 573.478 623.273C573.407 623.898 573.369 624.233 573.363 624.233C573.339 624.438 573.244 624.628 573.094 624.765C572.945 624.902 572.753 624.978 572.553 624.977H464.322C464.178 624.976 464.037 624.937 463.912 624.862C463.788 624.787 463.684 624.68 463.611 624.551C463.381 624.136 463.156 623.705 462.927 623.273C457.776 613.529 453.84 600.546 450.796 586.114C448.557 575.5 446.811 564.097 445.448 552.654Z" fill="black"/>
<path d="M441.108 114.086H441.053L440.845 114.171C440.664 114.245 440.385 114.358 440.029 114.489C439.312 114.756 438.272 115.108 436.991 115.466C433.741 116.381 430.391 116.858 427.023 116.887C423.13 116.95 419.273 116.105 415.736 114.415C412.036 112.568 408.554 109.529 405.768 104.625C398.81 92.3639 395.263 76.8923 395.263 62.1537C395.26 57.81 395.586 53.4728 396.238 49.1821C399.771 48.9701 403.28 48.4416 406.726 47.6026C410.672 46.7105 414.559 45.6537 417.915 44.9548C419.829 44.5108 421.779 44.254 423.739 44.1878C424.756 44.1214 425.773 44.3309 426.689 44.7957C427.238 45.1404 427.707 45.6059 428.063 46.1594C428.452 46.7757 428.747 47.4502 428.939 48.1594C429.371 49.957 429.565 51.8074 429.514 53.6594C429.514 56.5003 429.251 59.5855 429.251 62.398C429.236 63.6583 429.317 64.9179 429.492 66.1651C429.632 67.2739 429.975 68.3444 430.505 69.3185C430.852 69.9323 431.32 70.4629 431.879 70.8753C432.713 71.4544 433.689 71.7756 434.692 71.8014C434.856 71.8014 435.021 71.8014 435.179 71.8014C435.901 71.8141 436.619 71.6988 437.303 71.4605C437.896 71.2482 438.436 70.9029 438.885 70.4491C439.705 69.5454 440.249 68.411 440.451 67.1878C440.614 66.3361 440.726 65.4745 440.785 64.6082C440.872 63.4264 440.922 62.2105 441.02 61.0571C441.084 59.654 441.384 58.2734 441.907 56.9776C442.18 56.3677 442.582 55.8298 443.084 55.4037C443.781 54.8488 444.609 54.4976 445.481 54.3867C445.639 54.3585 445.798 54.3433 445.958 54.3412C446.386 54.3368 446.807 54.4633 447.167 54.7048C447.584 55.0051 447.937 55.3921 448.202 55.8412C448.995 57.299 449.562 58.8769 449.882 60.5173C450.835 64.4946 451.525 69.7787 452.833 74.8128C453.72 78.1707 454.902 81.4207 456.708 84.1082C457.72 85.6517 458.999 86.9868 460.48 88.0457C462.331 89.3194 464.455 90.1 466.666 90.3185C468.167 90.49 469.676 90.5791 471.187 90.5855C473.502 90.633 475.811 90.315 478.035 89.6423C480.96 96.3813 484.27 102.933 487.948 109.262C481.275 109.523 472.424 110.909 463.742 115.472C458.144 118.41 453.146 122.445 449.023 127.353L442.164 114.392C442.055 114.215 441.887 114.086 441.692 114.029C441.497 113.972 441.289 113.992 441.108 114.086Z" fill="white"/>
<path d="M396.227 49.2104C395.575 53.5012 395.249 57.8384 395.252 62.182C395.252 76.9207 398.799 92.3923 405.757 104.654C408.543 109.557 412.024 112.608 415.725 114.443C419.262 116.134 423.119 116.978 427.012 116.915C430.38 116.886 433.73 116.409 436.98 115.495C438.261 115.137 439.301 114.784 440.018 114.517C440.374 114.387 440.653 114.273 440.834 114.199L441.042 114.114H441.097C441.284 114.029 441.495 114.021 441.688 114.089C441.881 114.157 442.043 114.298 442.142 114.483L449.001 127.443C448.618 127.898 448.24 128.364 447.868 128.841L441.053 115.966C436.551 117.686 431.798 118.593 427.001 118.648C422.863 118.699 418.767 117.787 415.013 115.977C410.517 113.693 406.795 110.045 404.339 105.517C397.223 92.932 393.616 77.1991 393.61 62.182C393.607 57.8451 393.924 53.5143 394.557 49.2275H395.104C395.477 49.2389 395.854 49.2275 396.227 49.2104Z" fill="black"/>
<path d="M487.937 109.324C484.259 102.995 480.949 96.4436 478.024 89.7046C478.547 89.5328 479.061 89.3298 479.562 89.0967C482.57 96.0457 486.006 102.787 489.848 109.278C489.235 109.284 488.6 109.301 487.937 109.324Z" fill="black"/>
<path d="M487.899 235.546C487.984 235.398 488.023 235.226 488.012 235.055C488 234.883 487.939 234.719 487.835 234.584C487.732 234.449 487.591 234.351 487.432 234.301C487.274 234.252 487.104 234.254 486.946 234.307L460.222 145.784C461.651 144.847 463.145 143.881 464.689 142.898C475.954 135.699 489.804 127.506 499.958 123.546C502.103 122.677 504.313 121.989 506.565 121.489C517.184 122.131 527.317 124.546 535.276 127.034C540.849 128.747 546.309 130.835 551.621 133.284L551.687 133.318C551.796 133.373 551.916 133.402 552.037 133.402C552.158 133.402 552.278 133.373 552.387 133.318L552.562 133.71L596.381 230.034L596.316 230.063C596.222 230.119 596.14 230.194 596.074 230.284C596.008 230.373 595.961 230.475 595.933 230.584C595.906 230.693 595.899 230.806 595.914 230.918C595.929 231.029 595.965 231.136 596.02 231.233C630.604 292.279 665.14 380.284 665.14 488.324C665.14 498.763 664.806 509.388 664.138 520.199C504.14 542.75 443.269 551.244 430.537 553.017L428.785 553.256C428.785 552.949 428.785 552.568 428.785 552.119C428.753 550.739 428.703 548.71 428.649 546.051C428.534 540.761 428.38 533.074 428.227 523.46C427.921 504.233 427.614 477.318 427.614 446.574C427.614 407.017 428.123 361.119 429.804 317.091C434.385 311.926 438.819 306.625 443.05 301.33C459.484 280.533 474.471 258.55 487.899 235.546ZM441.288 440.267C441.182 440.29 441.082 440.333 440.992 440.396C440.903 440.459 440.826 440.539 440.767 440.632C440.707 440.726 440.666 440.83 440.646 440.94C440.625 441.05 440.626 441.163 440.647 441.273C440.694 441.494 440.821 441.688 441.004 441.812C441.186 441.936 441.408 441.981 441.622 441.938L441.983 441.858L443.023 441.642C443.932 441.455 445.251 441.188 446.893 440.869C449.143 440.432 452.017 439.887 455.246 439.318L486.541 435.273C488.347 435.171 490.077 435.114 491.692 435.114C492.486 435.114 493.252 435.114 493.986 435.154C494.093 435.157 494.201 435.139 494.302 435.1C494.403 435.06 494.495 435 494.574 434.924C494.653 434.848 494.717 434.756 494.761 434.654C494.806 434.552 494.83 434.442 494.834 434.33C494.838 434.218 494.82 434.106 494.782 434.001C494.744 433.897 494.687 433.8 494.613 433.719C494.539 433.637 494.451 433.571 494.353 433.525C494.254 433.478 494.148 433.453 494.04 433.449C493.285 433.449 492.502 433.404 491.692 433.404C482.485 433.404 469.911 435.108 459.609 436.813C449.307 438.517 441.299 440.222 441.288 440.222V440.267Z" fill="white"/>
<path d="M552.781 132.903C552.699 133.081 552.56 133.224 552.387 133.307C552.278 133.362 552.158 133.39 552.037 133.39C551.916 133.39 551.796 133.362 551.687 133.307L551.621 133.273C546.309 130.823 540.849 128.736 535.276 127.023C527.317 124.534 517.184 122.119 506.565 121.477C506.904 121.409 507.244 121.341 507.561 121.295C507.71 121.272 507.85 121.206 507.966 121.106C508.082 121.006 508.169 120.875 508.218 120.727C508.267 120.586 508.28 120.434 508.254 120.286C508.228 120.138 508.165 120 508.07 119.886C523.375 121.313 538.352 125.329 552.409 131.773C552.602 131.873 552.749 132.047 552.818 132.259C552.888 132.47 552.875 132.702 552.781 132.903Z" fill="black"/>
<path d="M656.415 523.006C628.497 526.937 603.755 530.426 581.81 533.523L580.168 533.761C509.423 543.716 468.33 549.471 447.091 552.437L445.449 552.665L428.102 555.085C427.987 555.1 427.871 555.09 427.761 555.056C427.651 555.022 427.548 554.964 427.461 554.887C427.373 554.809 427.302 554.713 427.252 554.606C427.202 554.498 427.175 554.381 427.171 554.261C427.171 554.261 427.001 547.807 426.782 536.506C426.421 517.585 425.945 485.085 425.945 446.568C425.945 407.585 426.437 362.477 428.047 319.006C428.623 318.369 429.196 317.729 429.766 317.085C428.096 361.114 427.576 407.011 427.576 446.568C427.576 477.312 427.883 504.227 428.189 523.454C428.342 533.068 428.496 540.756 428.611 546.045C428.665 548.687 428.715 550.733 428.747 552.113C428.747 552.579 428.747 552.96 428.747 553.25L430.499 553.011C443.232 551.238 504.102 542.744 664.1 520.193C664.815 509.382 665.162 498.759 665.14 488.324C665.14 380.284 630.605 292.301 596.02 231.233C595.965 231.136 595.929 231.029 595.914 230.917C595.899 230.806 595.906 230.693 595.933 230.584C595.961 230.475 596.009 230.373 596.075 230.283C596.14 230.194 596.222 230.119 596.316 230.062L596.382 230.034C596.566 229.942 596.777 229.926 596.973 229.988C597.169 230.05 597.335 230.186 597.438 230.369C616.599 264.106 632.127 299.927 643.742 337.187C644.005 338.034 644.29 338.892 644.525 339.733C659.243 387.795 666.75 437.921 666.782 488.352C666.782 499.049 666.434 509.943 665.737 521.034C665.724 521.23 665.646 521.416 665.517 521.559C665.387 521.702 665.213 521.793 665.025 521.818L658.057 522.773L656.415 523.006Z" fill="black"/>
<path d="M486.481 234.659C486.481 234.659 486.361 234.881 486.114 235.301C485.868 235.722 485.512 236.347 485.02 237.154C484.067 238.773 482.666 241.131 480.859 244.08C477.247 249.977 472.025 258.25 465.576 267.733C452.68 286.705 434.884 310.523 415.336 329.898C402.308 342.818 388.514 353.761 374.884 359.972C367.105 363.529 359.403 365.54 351.948 365.54C350.736 365.54 349.532 365.487 348.335 365.381C333.638 364.057 319.279 357.727 305.967 348.858C292.654 339.989 280.382 328.591 269.839 317.182C264.912 311.852 260.402 306.529 256.324 301.46C255.906 299.309 255.699 297.12 255.705 294.926C255.705 287.136 258.146 279.546 260.681 273.807C262.206 270.296 264.025 266.931 266.116 263.75V263.71C266.18 263.62 266.225 263.517 266.25 263.408C266.275 263.299 266.279 263.186 266.262 263.076C266.245 262.965 266.207 262.859 266.151 262.764C266.094 262.669 266.02 262.586 265.933 262.52C265.846 262.454 265.747 262.407 265.642 262.381C265.537 262.355 265.428 262.351 265.322 262.369C265.215 262.386 265.113 262.426 265.021 262.484C264.929 262.543 264.85 262.62 264.786 262.71C262.729 265.821 260.931 269.107 259.411 272.534C256.734 278.472 254.041 286.5 254.035 294.926C254.037 296.255 254.11 297.583 254.254 298.904C246.65 289.324 239.592 279.292 233.114 268.858L233.07 268.784C233.07 268.625 233.07 268.392 233.07 268.091C233.079 266.095 233.297 264.106 233.722 262.159C234.304 259.293 235.455 256.585 237.099 254.205C238.389 252.391 240.025 250.872 241.905 249.744C244.598 248.136 248.135 247.08 252.82 247.057C262.903 250.648 275.105 256.716 287.602 262.938C300.099 269.159 313.05 275.568 324.403 279.648C331.973 282.386 338.882 284.136 344.657 284.136C347.276 284.202 349.881 283.725 352.32 282.733C354.567 281.78 356.494 280.162 357.86 278.08C360.975 273.335 368.145 263.046 377.281 250.08C386.417 237.114 397.535 221.477 408.543 206.011C421.456 187.886 434.243 170.006 443.576 156.96C443.956 156.765 444.322 156.541 444.671 156.29L445.065 156.011L446.209 155.21C447.2 154.517 448.64 153.506 450.435 152.296C453.035 150.517 456.385 148.261 460.184 145.784L486.908 234.307C486.73 234.369 486.579 234.493 486.481 234.659Z" fill="white"/>
<path d="M443.543 156.983H443.587C434.248 170.051 421.461 187.909 408.554 206.034C397.534 221.5 386.428 237.142 377.292 250.102C368.156 263.062 360.985 273.358 357.87 278.102C356.504 280.184 354.577 281.803 352.331 282.756C349.891 283.748 347.286 284.225 344.667 284.159C338.892 284.159 331.984 282.409 324.413 279.67C313.06 275.562 300.219 269.193 287.667 262.954C275.115 256.716 262.968 250.665 252.885 247.074C248.2 247.074 244.674 248.153 241.97 249.761C240.09 250.889 238.454 252.408 237.164 254.222C235.52 256.602 234.37 259.31 233.787 262.176C233.362 264.123 233.144 266.112 233.135 268.108C233.135 268.409 233.135 268.642 233.135 268.801L233.179 268.875C239.657 279.308 246.715 289.341 254.319 298.92C254.425 299.966 254.582 301.005 254.79 302.034C254.835 302.256 254.962 302.45 255.144 302.574C255.326 302.698 255.548 302.742 255.762 302.696C255.975 302.65 256.162 302.518 256.282 302.329C256.402 302.14 256.444 301.909 256.4 301.687C256.4 301.619 256.4 301.551 256.361 301.489C260.439 306.557 264.966 311.881 269.876 317.21C280.392 328.619 292.659 340.017 306.005 348.886C319.35 357.756 333.675 364.085 348.373 365.409C349.57 365.515 350.774 365.568 351.986 365.568C359.441 365.568 367.143 363.557 374.922 360C388.53 353.784 402.346 342.847 415.374 329.926C434.922 310.551 452.717 286.744 465.614 267.761C472.062 258.278 477.284 250.006 480.897 244.108C482.704 241.159 484.105 238.801 485.057 237.182C485.534 236.375 485.895 235.75 486.152 235.329C486.41 234.909 486.519 234.687 486.519 234.687C486.622 234.506 486.789 234.371 486.984 234.312C487.142 234.259 487.312 234.257 487.471 234.307C487.63 234.356 487.77 234.455 487.874 234.59C487.977 234.724 488.039 234.888 488.05 235.06C488.061 235.232 488.022 235.403 487.937 235.551C474.496 258.551 459.496 280.529 443.05 301.318C438.819 306.614 434.385 311.915 429.803 317.079C429.234 317.72 428.661 318.36 428.085 319C418.949 329.142 409.232 338.693 399.281 346.585C391.48 352.767 383.532 357.949 375.6 361.562C367.669 365.176 359.726 367.244 352.002 367.244C350.743 367.244 349.495 367.193 348.252 367.079C332.701 365.676 317.659 358.841 303.831 349.42C283.096 335.278 265.076 315.329 252.217 298.852C244.817 289.491 237.945 279.692 231.635 269.506C231.566 269.389 231.525 269.256 231.515 269.119C231.515 269.119 231.515 268.727 231.515 268.079C231.515 267.835 231.515 267.54 231.515 267.222C231.515 266.653 231.575 266.006 231.646 265.267C231.952 261.691 232.975 258.22 234.652 255.079C236.198 252.248 238.442 249.895 241.155 248.261C243.848 246.642 247.275 245.579 251.555 245.381C252.031 245.381 252.513 245.341 253.011 245.341C253.103 245.339 253.193 245.354 253.279 245.386L254.451 245.818C267.928 250.773 284.711 259.744 300.936 267.574C309.278 271.602 317.467 275.324 324.95 278.034C332.433 280.744 339.182 282.432 344.656 282.426C347.058 282.49 349.449 282.06 351.69 281.159C353.646 280.332 355.322 278.923 356.507 277.108C359.863 271.994 367.789 260.631 377.812 246.426C397.102 219.085 424.127 181.261 441.014 157.676C441.895 157.632 442.756 157.396 443.543 156.983Z" fill="black"/>
<path d="M505.842 119.886C503.643 120.4 501.483 121.084 499.383 121.932C496.416 123.068 493.17 124.585 489.776 126.301C482.994 129.738 475.626 134.057 468.816 138.284C455.197 146.744 443.789 154.858 443.784 154.863L443.74 154.898L443.543 155.023C443.318 155.166 443.086 155.297 442.848 155.415C442.266 155.741 441.624 155.934 440.965 155.983C440.649 155.998 440.337 155.9 440.083 155.704C439.739 155.387 439.507 154.959 439.426 154.488C439.294 153.89 439.232 153.278 439.24 152.665C439.309 150.584 439.612 148.519 440.143 146.511C445.836 130.858 455.033 122.028 464.497 117.04C473.962 112.051 483.738 110.96 490.427 110.96C493.154 110.933 495.879 111.123 498.578 111.528L505.842 119.886Z" fill="#2A6049"/>
<path d="M508.218 120.75C508.169 120.898 508.082 121.029 507.966 121.129C507.85 121.229 507.71 121.295 507.562 121.318C507.244 121.364 506.905 121.432 506.565 121.5C504.313 122 502.104 122.688 499.958 123.557C489.804 127.534 475.955 135.71 464.69 142.909C463.146 143.892 461.651 144.858 460.223 145.796C456.424 148.273 453.074 150.529 450.474 152.307C448.678 153.529 447.239 154.529 446.248 155.222L445.104 156.023L444.71 156.301C444.361 156.552 443.995 156.776 443.615 156.972H443.571C442.786 157.393 441.924 157.637 441.042 157.688H440.971C440.531 157.692 440.095 157.603 439.69 157.426C438.994 157.099 438.442 156.513 438.141 155.784C437.743 154.798 437.556 153.734 437.593 152.665C437.663 150.435 437.985 148.221 438.551 146.068L438.584 145.972C440.763 139.763 443.907 133.967 447.89 128.813C448.255 128.335 448.633 127.87 449.023 127.415C453.143 122.508 458.137 118.474 463.732 115.534C472.413 110.989 481.248 109.585 487.937 109.324C488.6 109.324 489.235 109.284 489.848 109.279H490.395C493.313 109.248 496.228 109.47 499.11 109.943C499.287 109.978 499.449 110.071 499.57 110.21L508.032 119.87C508.14 119.983 508.215 120.126 508.248 120.282C508.281 120.438 508.27 120.6 508.218 120.75ZM498.557 111.568C495.858 111.163 493.133 110.973 490.406 111C483.717 111 473.951 112.097 464.476 117.08C455.001 122.063 445.815 130.898 440.122 146.551C439.591 148.559 439.288 150.624 439.219 152.705C439.211 153.318 439.273 153.931 439.405 154.529C439.486 154.999 439.718 155.427 440.062 155.745C440.316 155.94 440.628 156.038 440.944 156.023C441.603 155.974 442.245 155.781 442.827 155.455C443.065 155.337 443.297 155.207 443.522 155.063L443.719 154.938L443.763 154.904C443.763 154.904 455.176 146.784 468.795 138.324C475.605 134.097 482.973 129.801 489.755 126.341C493.149 124.637 496.395 123.131 499.362 121.972C501.462 121.124 503.622 120.44 505.821 119.926L498.557 111.568Z" fill="black"/>
<path d="M478.106 87.875C475.874 88.6476 473.528 89.0091 471.176 88.9432C469.726 88.9375 468.277 88.8522 466.835 88.6875C464.606 88.4797 462.481 87.6098 460.715 86.1818C459.056 84.7618 457.711 82.989 456.768 80.983C454.694 76.8182 453.643 71.4943 452.751 66.6193C452.284 63.6692 451.646 60.751 450.84 57.8807C450.484 56.6156 449.913 55.4266 449.154 54.3693C448.785 53.881 448.327 53.4719 447.808 53.1648C447.237 52.8406 446.597 52.6725 445.946 52.6762C445.701 52.6774 445.455 52.6983 445.213 52.7387C444.203 52.8853 443.236 53.2617 442.383 53.8409C441.654 54.3621 441.051 55.0503 440.62 55.8523C439.777 57.4091 439.525 59.2614 439.35 61.0682C439.252 62.2841 439.208 63.5 439.115 64.625C439.079 65.9163 438.814 67.1896 438.332 68.3807C438.11 68.8709 437.764 69.2892 437.33 69.5909C436.671 70.001 435.909 70.1987 435.141 70.1591H434.736C434.041 70.147 433.363 69.9302 432.782 69.5341C432.275 69.1522 431.879 68.6333 431.637 68.0341C431.052 66.7159 430.849 64.7273 430.855 62.4546C430.855 59.7443 431.112 56.6534 431.117 53.7159C431.139 52.1804 431.029 50.646 430.789 49.1307C430.585 47.7514 430.106 46.4315 429.382 45.2557C428.891 44.4994 428.246 43.8635 427.494 43.3921C426.326 42.7596 425.016 42.4652 423.7 42.5398C421.631 42.6023 419.573 42.8706 417.553 43.3409C415.27 43.8182 412.78 44.4432 410.218 45.0455C405.1 46.3012 399.67 47.5341 395.077 47.5341C392.937 47.5922 390.808 47.2058 388.815 46.3977C387.052 45.6527 385.597 44.2895 384.704 42.5455C383.979 41.077 383.531 39.4782 383.385 37.8352C383.336 37.3957 383.313 36.9537 383.313 36.5114C383.313 33.3977 384.501 30.2159 386.642 27.0852C389.14 23.621 392.139 20.5777 395.531 18.0625C402.883 12.3807 412.621 7.60797 421.949 4.70456C428.194 2.80115 434.232 1.70456 439.23 1.70456C441.179 1.68017 443.124 1.88796 445.027 2.32388C446.533 2.65237 447.962 3.28773 449.231 4.1932C451.743 6.07956 454.524 9.22729 457.343 13.2216C460.463 17.7246 463.285 22.4419 465.789 27.3409C471.41 38.1848 476.035 49.553 479.606 61.2955C481.795 68.625 483.18 75.3636 483.438 80.5114V80.5682V80.6421C483.438 80.7046 483.438 80.8011 483.438 80.9261C483.428 82.053 483.15 83.1599 482.627 84.1477C481.921 85.483 480.64 86.9318 478.106 87.875Z" fill="black"/>
<path d="M478.024 89.7046C475.801 90.3772 473.492 90.6953 471.176 90.6478C469.666 90.6414 468.156 90.5523 466.655 90.3807C464.444 90.1623 462.32 89.3817 460.469 88.108C458.988 87.049 457.709 85.7139 456.698 84.1705C454.891 81.483 453.709 78.233 452.822 74.875C451.492 69.841 450.824 64.5398 449.872 60.5796C449.551 58.9392 448.984 57.3612 448.191 55.9035C447.926 55.4543 447.574 55.0674 447.157 54.7671C446.796 54.5255 446.376 54.3991 445.947 54.4035C445.787 54.4055 445.628 54.4207 445.471 54.4489C444.598 54.5599 443.77 54.911 443.073 55.466C442.572 55.892 442.169 56.43 441.896 57.0398C441.374 58.3356 441.074 59.7163 441.009 61.1194C440.911 62.2557 440.862 63.4887 440.774 64.6705C440.715 65.5368 440.604 66.3984 440.44 67.25C440.238 68.4733 439.694 69.6077 438.874 70.5114C438.425 70.9651 437.885 71.3104 437.292 71.5228C436.608 71.7611 435.89 71.8764 435.169 71.8637C435.01 71.8637 434.846 71.8637 434.681 71.8637C433.678 71.8378 432.702 71.5166 431.868 70.9375C431.309 70.5251 430.841 69.9945 430.494 69.3807C429.965 68.4067 429.621 67.3361 429.481 66.2273C429.306 64.9801 429.225 63.7206 429.24 62.4603C429.24 59.6194 429.503 56.5569 429.503 53.7216C429.554 51.8697 429.36 50.0192 428.928 48.2216C428.737 47.5124 428.441 46.8379 428.052 46.2216C427.696 45.6681 427.227 45.2026 426.678 44.858C425.762 44.3932 424.746 44.1837 423.728 44.25C421.768 44.3163 419.818 44.5731 417.904 45.0171C414.548 45.716 410.662 46.7728 406.715 47.6648C403.269 48.5039 399.76 49.0324 396.227 49.2444C395.849 49.2444 395.477 49.2444 395.132 49.2444H394.585C391.448 49.1762 388.563 48.5569 386.297 46.9035C385.03 45.9999 383.99 44.7938 383.265 43.3864C382.446 41.7288 381.943 39.9233 381.781 38.0682C381.727 37.5645 381.699 37.0581 381.699 36.5512C381.736 34.1061 382.311 31.7021 383.38 29.5228C385.263 25.5455 388.574 21.7046 392.745 18.2103C398.997 12.9716 407.197 8.43754 415.544 5.19891C423.892 1.96027 432.371 4.32131e-05 439.23 4.32131e-05C441.306 -0.0256869 443.378 0.19738 445.405 0.664816C447.126 1.05373 448.756 1.7934 450.2 2.84095C453.84 5.56254 457.71 10.4375 461.542 16.5512C467.301 25.716 472.972 37.6705 477.307 49.3353C479.386 54.862 481.172 60.5031 482.655 66.233C483.913 70.8578 484.725 75.6007 485.08 80.3921C485.08 80.4603 485.08 80.6421 485.08 80.9262C485.074 81.7484 484.955 82.5656 484.724 83.3523C484.127 85.3567 482.862 87.0748 481.155 88.1989C480.648 88.5412 480.115 88.8414 479.562 89.0966C479.061 89.3297 478.548 89.5327 478.024 89.7046ZM483.438 80.9262C483.438 80.8012 483.438 80.7046 483.438 80.6421V80.5682V80.5114C483.192 75.3637 481.796 68.625 479.606 61.2955C476.039 49.5534 471.417 38.1852 465.801 27.341C463.296 22.4419 460.474 17.7246 457.355 13.2216C454.535 9.24436 451.755 6.07959 449.242 4.19322C447.974 3.28776 446.545 2.6524 445.038 2.32391C443.131 1.88713 441.183 1.67932 439.23 1.70459C434.233 1.70459 428.195 2.80118 421.976 4.733C412.671 7.63641 402.911 12.4148 395.559 18.091C392.166 20.6061 389.168 23.6495 386.669 27.1137C384.529 30.2444 383.341 33.4262 383.341 36.5398C383.34 36.9822 383.364 37.4242 383.412 37.8637C383.559 39.5067 384.007 41.1055 384.732 42.5739C385.625 44.3179 387.08 45.6812 388.843 46.4262C390.836 47.2343 392.965 47.6206 395.105 47.5625C399.697 47.5625 405.128 46.3296 410.246 45.0739C412.807 44.4432 415.298 43.8182 417.581 43.3694C419.601 42.899 421.659 42.6308 423.728 42.5682C425.043 42.4936 426.354 42.788 427.521 43.4205C428.274 43.8919 428.918 44.5279 429.41 45.2841C430.134 46.4599 430.613 47.7798 430.817 49.1591C431.057 50.6744 431.167 52.2089 431.145 53.7444C431.145 56.6819 430.882 59.7728 430.882 62.483C430.882 64.7557 431.08 66.7444 431.665 68.0625C431.907 68.6618 432.303 69.1806 432.809 69.5625C433.391 69.9587 434.068 70.1754 434.764 70.1875H435.169C435.937 70.2271 436.699 70.0294 437.358 69.6194C437.792 69.3176 438.138 68.8993 438.36 68.4091C438.842 67.218 439.107 65.9447 439.143 64.6535C439.236 63.5171 439.28 62.3125 439.378 61.0966C439.537 59.2728 439.805 57.4375 440.648 55.8807C441.068 55.0715 441.662 54.3735 442.383 53.841C443.234 53.2632 444.196 52.8869 445.202 52.7387C445.445 52.6984 445.69 52.6775 445.936 52.6762C446.586 52.6725 447.227 52.8407 447.797 53.1648C448.317 53.472 448.774 53.8811 449.144 54.3694C449.902 55.4266 450.473 56.6156 450.83 57.8807C451.635 60.751 452.273 63.6692 452.74 66.6194C453.632 71.4944 454.683 76.8182 456.758 80.983C457.7 82.989 459.046 84.7618 460.705 86.1819C462.47 87.6098 464.595 88.4797 466.824 88.6875C468.266 88.8522 469.715 88.9375 471.165 88.9432C473.518 89.0091 475.863 88.6476 478.095 87.875C480.63 86.9035 481.927 85.483 482.617 84.1478C483.143 83.1609 483.425 82.054 483.438 80.9262Z" fill="black"/>
<path d="M136.75 77.4716C140.505 70.7273 144.911 66.3807 149.57 63.6989C153.994 61.2015 158.963 59.9259 163.999 59.9943C171.329 59.9943 178.418 62.3523 183.766 64.8011C187.022 66.2715 190.152 68.0278 193.121 70.0511H193.153C193.291 70.1514 193.456 70.2051 193.624 70.2051C193.793 70.2051 193.957 70.1514 194.095 70.0511H194.128L194.243 69.9716L194.708 69.6534C195.119 69.3807 195.721 68.9886 196.493 68.517C198.589 67.2369 200.75 66.0761 202.968 65.0398C208.376 62.5114 215.684 59.9943 223.222 59.9943C228.258 59.9259 233.226 61.2015 237.651 63.6989C242.309 66.3807 246.716 70.7273 250.471 77.4716C252.526 81.1882 253.584 85.4083 253.537 89.6932C253.537 96 251.484 102.761 248.106 109.58H221.131L213.933 88.5C213.881 88.3439 213.787 88.2068 213.662 88.1057C213.536 88.0047 213.385 87.9442 213.226 87.9318C213.068 87.9184 212.909 87.9532 212.769 88.0319C212.629 88.1106 212.514 88.2298 212.438 88.375L193.515 124.608L174.027 94.9886C173.953 94.8778 173.855 94.7862 173.741 94.7212C173.627 94.6561 173.5 94.6193 173.371 94.6136C173.241 94.6107 173.112 94.6396 172.995 94.6978C172.878 94.7561 172.776 94.8421 172.697 94.9489L161.892 109.574H139.125C135.748 102.756 133.695 95.9773 133.701 89.6875C133.649 85.4061 134.702 81.1882 136.75 77.4716Z" fill="url(#paint0_linear_1_516)"/>
<path d="M224.842 141.278C215.12 151.546 204.692 161.068 193.64 169.767L192.633 168.983C191.67 168.222 190.274 167.102 188.544 165.671C185.085 162.83 180.289 158.71 174.963 153.739C164.311 143.813 151.535 130.443 143.061 116.659C141.966 114.875 140.945 113.087 139.996 111.296H162.34C162.466 111.294 162.59 111.264 162.703 111.206C162.816 111.148 162.915 111.064 162.992 110.96L173.354 96.9376L192.962 126.739C193.041 126.86 193.149 126.958 193.275 127.023C193.401 127.088 193.542 127.118 193.682 127.111C193.823 127.103 193.96 127.058 194.079 126.98C194.198 126.902 194.296 126.794 194.363 126.665L213.024 90.9092L219.8 110.75C219.858 110.915 219.962 111.059 220.1 111.16C220.238 111.262 220.403 111.317 220.572 111.318H247.258C246.47 112.833 245.623 114.333 244.718 115.818C239.37 124.693 232.183 133.466 224.842 141.278Z" fill="url(#paint1_linear_1_516)"/>
<path d="M139.98 111.301C140.921 113.093 141.943 114.881 143.045 116.665C151.519 130.421 164.295 143.818 174.947 153.744C180.274 158.71 185.069 162.835 188.528 165.676C190.258 167.108 191.654 168.227 192.617 168.989L193.625 169.773C204.676 161.073 215.104 151.552 224.826 141.284C232.15 133.472 239.354 124.699 244.707 115.807C245.613 114.292 246.459 112.792 247.247 111.307H249.152C248.058 113.405 246.875 115.498 245.605 117.585C236.989 131.568 224.131 145.029 213.418 155.017C202.706 165.006 194.145 171.494 194.134 171.523C193.993 171.631 193.822 171.689 193.646 171.689C193.471 171.689 193.3 171.631 193.159 171.523C182.385 163.094 172.194 153.89 162.664 143.977C155.044 135.989 147.414 126.904 141.671 117.58C140.383 115.496 139.201 113.404 138.124 111.301H139.98Z" fill="black"/>
<path d="M248.134 109.597C251.512 102.779 253.57 96.0001 253.564 89.7104C253.612 85.4255 252.554 81.2054 250.499 77.4888C246.744 70.7445 242.337 66.3979 237.679 63.716C233.254 61.2187 228.286 59.9431 223.25 60.0115C215.685 60.0115 208.377 62.5285 202.996 65.057C200.778 66.0932 198.616 67.2541 196.52 68.5342C195.748 69.0058 195.146 69.3979 194.736 69.6706L194.27 69.9888L194.156 70.0683H194.123C193.985 70.1685 193.82 70.2223 193.652 70.2223C193.483 70.2223 193.319 70.1685 193.181 70.0683H193.148C190.18 68.045 187.05 66.2886 183.793 64.8183C178.445 62.3695 171.356 60.0115 164.027 60.0115C158.991 59.9431 154.022 61.2187 149.598 63.716C144.939 66.3979 140.533 70.7445 136.778 77.4888C134.723 81.2054 133.664 85.4255 133.712 89.7104C133.712 96.0172 135.759 102.779 139.137 109.597H137.303C134.068 102.869 132.07 96.1365 132.07 89.7104C132.021 85.1281 133.155 80.6158 135.354 76.6422C139.23 69.6706 143.861 65.0683 148.798 62.2274C153.468 59.5909 158.712 58.2429 164.027 58.3126C171.942 58.3126 179.442 60.9206 184.981 63.5058C187.985 64.9002 190.884 66.528 193.652 68.3751C196.42 66.528 199.318 64.9002 202.323 63.5058C207.862 60.9206 215.362 58.3183 223.277 58.3126C228.592 58.2429 233.836 59.5909 238.505 62.2274C243.432 65.0683 248.074 69.6706 251.949 76.6422C254.149 80.6158 255.283 85.1281 255.234 89.7104C255.234 96.1535 253.236 102.887 250.001 109.597H248.134Z" fill="black"/>
<path d="M692.788 165.557C692.788 165.557 666.918 130.682 679.404 118.239C691.891 105.796 704.836 122.358 704.836 122.358C704.836 122.358 724.302 115.54 728.446 133.006C732.589 150.472 692.788 165.557 692.788 165.557Z" fill="#EC744A"/>
<path d="M144.14 287C153.445 296.869 132.781 322.886 132.781 322.886C132.781 322.886 102.647 310.324 106.238 297.046C109.829 283.767 124.565 289.5 124.565 289.5C124.565 289.5 134.85 277.131 144.14 287Z" fill="#EC744A"/>
<path d="M266.915 111.301H220.578C220.409 111.3 220.244 111.245 220.106 111.143C219.968 111.041 219.864 110.898 219.806 110.733L213.024 90.909L194.342 126.704C194.275 126.833 194.177 126.942 194.058 127.02C193.938 127.098 193.802 127.143 193.661 127.15C193.52 127.158 193.38 127.127 193.254 127.062C193.127 126.997 193.02 126.899 192.94 126.778L173.333 96.9772L162.97 111C162.893 111.103 162.795 111.187 162.682 111.245C162.569 111.303 162.445 111.334 162.319 111.335H119.217C118.999 111.335 118.79 111.245 118.636 111.086C118.482 110.926 118.396 110.709 118.396 110.483C118.396 110.257 118.482 110.04 118.636 109.88C118.79 109.72 118.999 109.631 119.217 109.631H161.914L172.719 95.0056C172.798 94.8988 172.901 94.8128 173.018 94.7546C173.135 94.6963 173.263 94.6675 173.393 94.6704C173.523 94.676 173.65 94.7128 173.764 94.7779C173.878 94.843 173.975 94.9345 174.05 95.0454L193.537 124.665L212.477 88.3976C212.553 88.2524 212.668 88.1332 212.807 88.0545C212.947 87.9759 213.106 87.9411 213.265 87.9545C213.423 87.9669 213.575 88.0274 213.7 88.1284C213.826 88.2294 213.92 88.3665 213.971 88.5226L221.169 109.602H266.915C267.133 109.602 267.342 109.692 267.496 109.852C267.65 110.012 267.736 110.228 267.736 110.454C267.736 110.68 267.65 110.897 267.496 111.057C267.342 111.217 267.133 111.307 266.915 111.307V111.301Z" fill="white"/>
<path d="M259.482 272.557C261.002 269.13 262.8 265.844 264.857 262.733C264.921 262.643 265.001 262.566 265.092 262.507C265.184 262.448 265.286 262.409 265.393 262.392C265.499 262.374 265.608 262.378 265.713 262.404C265.818 262.43 265.917 262.477 266.004 262.543C266.092 262.609 266.166 262.691 266.222 262.787C266.279 262.882 266.316 262.988 266.333 263.099C266.35 263.209 266.346 263.322 266.321 263.431C266.296 263.54 266.251 263.643 266.188 263.733V263.773C264.096 266.954 262.278 270.319 260.752 273.83C258.19 279.546 255.721 287.159 255.721 294.949C255.715 297.143 255.923 299.332 256.34 301.483C256.34 301.546 256.34 301.614 256.378 301.682C256.423 301.904 256.38 302.134 256.261 302.323C256.141 302.513 255.954 302.645 255.741 302.691C255.527 302.737 255.305 302.693 255.123 302.569C254.941 302.444 254.813 302.25 254.769 302.029C254.561 301 254.404 299.961 254.298 298.915C254.154 297.595 254.081 296.267 254.079 294.938C254.112 286.523 256.816 278.495 259.482 272.557Z" fill="black"/>
<path d="M486.52 435.273L455.225 439.318C456.697 439.057 458.241 438.79 459.845 438.523C468.269 437.12 478.226 435.727 486.52 435.273Z" fill="#2A6049"/>
<path d="M491.649 433.409C492.459 433.409 493.241 433.409 493.997 433.455C494.105 433.458 494.211 433.484 494.309 433.53C494.407 433.577 494.496 433.643 494.569 433.724C494.643 433.806 494.701 433.902 494.739 434.007C494.776 434.112 494.794 434.223 494.791 434.335C494.787 434.447 494.762 434.557 494.718 434.659C494.673 434.761 494.61 434.853 494.531 434.93C494.452 435.006 494.359 435.066 494.258 435.105C494.157 435.145 494.05 435.163 493.942 435.159C493.209 435.159 492.442 435.119 491.649 435.119C490.034 435.119 488.304 435.176 486.498 435.279C478.205 435.733 468.247 437.125 459.823 438.529C458.219 438.796 456.675 439.063 455.203 439.324C451.973 439.892 449.099 440.46 446.85 440.875C445.208 441.193 443.888 441.443 442.98 441.648L441.94 441.864L441.578 441.943C441.364 441.987 441.142 441.942 440.96 441.818C440.778 441.693 440.65 441.5 440.604 441.279C440.582 441.169 440.582 441.056 440.602 440.946C440.623 440.836 440.664 440.731 440.723 440.638C440.783 440.545 440.86 440.464 440.949 440.402C441.038 440.339 441.139 440.295 441.244 440.273C441.244 440.273 449.264 438.568 459.566 436.864C469.868 435.159 482.463 433.415 491.649 433.409Z" fill="black"/>
<path d="M201.984 607.403H290.875V621.846H201.984V607.403Z" fill="white"/>
<path d="M292.281 623.296C292.127 623.456 291.919 623.546 291.701 623.546H201.173C200.955 623.546 200.746 623.456 200.593 623.296C200.447 623.145 200.363 622.941 200.357 622.728V607.387H201.999V621.83H290.874V607.387H292.517V622.728C292.511 622.941 292.426 623.144 292.281 623.296Z" fill="black"/>
<path d="M168.214 471.313H324.649C330.02 471.313 335.172 473.528 338.97 477.47C342.768 481.413 344.902 486.76 344.902 492.336V584.659C344.902 590.235 342.768 595.582 338.97 599.525C335.172 603.467 330.02 605.682 324.649 605.682H168.214C162.843 605.682 157.691 603.467 153.893 599.525C150.094 595.582 147.961 590.235 147.961 584.659V492.33C147.961 486.754 150.094 481.407 153.893 477.465C157.691 473.522 162.843 471.307 168.214 471.307V471.313ZM156.27 541.069V578.131C156.269 580.779 156.771 583.401 157.747 585.847C158.723 588.294 160.153 590.517 161.957 592.389C163.76 594.262 165.901 595.747 168.258 596.761C170.615 597.774 173.141 598.296 175.692 598.296H317.171C322.322 598.296 327.262 596.172 330.904 592.391C334.547 588.611 336.593 583.483 336.593 578.137V498.864C336.593 493.517 334.547 488.39 330.904 484.609C327.262 480.829 322.322 478.705 317.171 478.705H175.692C170.541 478.705 165.601 480.829 161.958 484.609C158.316 488.39 156.27 493.517 156.27 498.864V541.069Z" fill="black"/>
<path d="M168.215 469.608H324.649C330.456 469.608 336.026 472.002 340.132 476.265C344.238 480.527 346.545 486.308 346.545 492.335V584.659C346.545 590.687 344.238 596.468 340.132 600.73C336.026 604.992 330.456 607.386 324.649 607.386H168.215C162.407 607.386 156.838 604.992 152.732 600.73C148.626 596.468 146.319 590.687 146.319 584.659V492.33C146.316 488.648 147.177 485.021 148.827 481.763C150.477 478.504 152.866 475.711 155.789 473.625C156.09 473.409 156.391 473.199 156.703 473C160.16 470.777 164.148 469.602 168.215 469.608ZM147.961 584.682C147.961 590.257 150.095 595.605 153.893 599.547C157.691 603.49 162.843 605.705 168.215 605.705H324.649C330.021 605.705 335.172 603.49 338.971 599.547C342.769 595.605 344.903 590.257 344.903 584.682V492.33C344.903 486.754 342.769 481.407 338.971 477.464C335.172 473.522 330.021 471.307 324.649 471.307H168.215C162.843 471.307 157.691 473.522 153.893 477.464C150.095 481.407 147.961 486.754 147.961 492.33V584.682Z" fill="black"/>
<path d="M190.581 552.023C190.668 552.126 190.778 552.206 190.9 552.256C191.023 552.306 191.156 552.325 191.287 552.311C191.418 552.297 191.545 552.251 191.655 552.176C191.766 552.101 191.857 552 191.922 551.881L197.681 541.085H205.202L213.906 556.767C213.983 556.906 214.096 557.02 214.233 557.095C214.369 557.17 214.523 557.204 214.678 557.193C214.831 557.181 214.978 557.125 215.102 557.03C215.225 556.936 215.321 556.807 215.378 556.659L221.345 541.085H242.912L249.454 549.608C249.527 549.703 249.62 549.78 249.724 549.835C249.829 549.89 249.944 549.921 250.061 549.926C250.179 549.931 250.297 549.91 250.406 549.864C250.516 549.818 250.615 549.748 250.696 549.659L258.398 541.108H272.083L278.712 551.529C278.787 551.647 278.889 551.745 279.01 551.812C279.13 551.879 279.265 551.915 279.402 551.915C279.539 551.913 279.673 551.877 279.793 551.808C279.914 551.74 280.016 551.642 280.091 551.523L286.594 541.068H307.976L308.424 541.637C308.501 541.732 308.596 541.808 308.704 541.86C308.812 541.912 308.929 541.938 309.048 541.938H334.579C334.709 541.937 334.836 541.904 334.951 541.841V578.148C334.947 583.04 333.072 587.73 329.738 591.188C326.405 594.646 321.885 596.59 317.172 596.591H175.692C173.357 596.592 171.045 596.115 168.887 595.188C166.73 594.261 164.77 592.901 163.118 591.188C161.467 589.474 160.158 587.439 159.265 585.2C158.371 582.96 157.912 580.56 157.913 578.137V541.921H182.239L190.581 552.023ZM295.949 575.767C295.949 576.625 296.112 577.475 296.429 578.267C296.746 579.06 297.21 579.78 297.796 580.386C298.381 580.991 299.076 581.472 299.84 581.798C300.604 582.125 301.423 582.292 302.25 582.29H308.868C310.534 582.29 312.133 581.603 313.311 580.379C314.49 579.156 315.152 577.497 315.152 575.767C315.152 574.037 314.49 572.378 313.311 571.155C312.133 569.932 310.534 569.244 308.868 569.244H302.25C300.583 569.244 298.985 569.932 297.806 571.155C296.628 572.378 295.966 574.037 295.966 575.767H295.949ZM236.831 575.767C236.831 577.497 237.493 579.156 238.671 580.379C239.85 581.603 241.448 582.29 243.115 582.29H249.749C251.416 582.29 253.014 581.603 254.193 580.379C255.371 579.156 256.033 577.497 256.033 575.767C256.033 574.037 255.371 572.378 254.193 571.155C253.014 569.932 251.416 569.244 249.749 569.244H243.131C241.464 569.244 239.866 569.932 238.688 571.155C237.509 572.378 236.847 574.037 236.847 575.767H236.831ZM177.712 575.767C177.712 577.497 178.374 579.156 179.553 580.379C180.731 581.603 182.329 582.29 183.996 582.29H190.63C192.297 582.29 193.896 581.603 195.074 580.379C196.253 579.156 196.915 577.497 196.915 575.767C196.915 574.037 196.253 572.378 195.074 571.155C193.896 569.932 192.297 569.244 190.63 569.244H184.012C183.186 569.242 182.367 569.409 181.603 569.736C180.838 570.063 180.144 570.543 179.558 571.149C178.973 571.755 178.509 572.475 178.192 573.267C177.875 574.06 177.712 574.909 177.712 575.767Z" fill="white"/>
<path d="M317.276 540.216H309.432L296.409 524.182C296.327 524.08 296.222 523.999 296.104 523.947C295.986 523.895 295.858 523.872 295.73 523.881C295.602 523.89 295.478 523.931 295.368 523.999C295.258 524.067 295.165 524.161 295.095 524.273L284.635 541.068H274.026L267.217 530.341C267.149 530.233 267.058 530.143 266.952 530.077C266.846 530.011 266.726 529.971 266.603 529.96C266.479 529.949 266.355 529.967 266.239 530.013C266.124 530.06 266.02 530.133 265.936 530.227L256.165 541.068H245.031L228.899 520.153C228.81 520.036 228.693 519.945 228.559 519.89C228.425 519.835 228.28 519.817 228.138 519.839C227.995 519.861 227.861 519.921 227.749 520.015C227.636 520.108 227.55 520.23 227.497 520.369L219.56 541.068H207.08L202.044 532.006C201.972 531.874 201.868 531.765 201.743 531.689C201.617 531.614 201.475 531.574 201.329 531.574C201.184 531.574 201.041 531.614 200.916 531.689C200.79 531.765 200.687 531.874 200.615 532.006L195.787 541.057H183.684L183.224 540.489C183.148 540.394 183.053 540.317 182.945 540.265C182.837 540.213 182.719 540.187 182.6 540.187H157.896V498.864C157.896 493.969 159.769 489.274 163.103 485.812C166.438 482.35 170.96 480.405 175.676 480.403H317.172C321.887 480.406 326.409 482.352 329.742 485.814C333.076 489.275 334.95 493.969 334.951 498.864V540.341C334.836 540.28 334.708 540.247 334.579 540.244L317.276 540.216Z" fill="white"/>
<path d="M175.691 478.722H317.171C322.319 478.722 327.257 480.843 330.899 484.62C334.54 488.397 336.588 493.52 336.593 498.864V578.114C336.596 580.763 336.095 583.387 335.121 585.835C334.146 588.284 332.716 590.509 330.912 592.383C329.108 594.257 326.966 595.744 324.609 596.759C322.251 597.773 319.724 598.296 317.171 598.296H175.691C170.541 598.296 165.601 596.172 161.958 592.391C158.316 588.611 156.27 583.483 156.27 578.136V541.068C156.27 541.294 156.356 541.511 156.51 541.671C156.664 541.831 156.873 541.921 157.091 541.921H157.912V578.131C157.911 580.555 158.37 582.956 159.262 585.196C160.155 587.436 161.465 589.471 163.116 591.185C164.767 592.9 166.728 594.26 168.885 595.187C171.043 596.115 173.356 596.592 175.691 596.591H317.171C321.886 596.59 326.408 594.645 329.742 591.184C333.075 587.724 334.949 583.03 334.951 578.136V541.83C335.085 541.759 335.198 541.651 335.278 541.518C335.357 541.384 335.399 541.231 335.399 541.074C335.399 540.917 335.357 540.764 335.278 540.63C335.198 540.497 335.085 540.389 334.951 540.318V498.864C334.949 493.969 333.076 489.276 329.742 485.814C326.408 482.353 321.887 480.407 317.171 480.404H175.691C170.976 480.405 166.453 482.351 163.119 485.812C159.785 489.274 157.912 493.969 157.912 498.864V540.199H157.091C156.873 540.199 156.664 540.289 156.51 540.449C156.356 540.608 156.27 540.825 156.27 541.051V498.864C156.274 493.52 158.322 488.397 161.964 484.62C165.606 480.843 170.543 478.722 175.691 478.722Z" fill="black"/>
<path d="M191.057 549.977L183.7 541.068H195.809L191.057 549.977Z" fill="white"/>
<path d="M201.365 534.165L205.196 541.068H197.681L201.365 534.165Z" fill="white"/>
<path d="M250.143 547.733L245.014 541.068H256.148L250.143 547.733Z" fill="white"/>
<path d="M219.576 541.068L214.48 554.375L207.096 541.068H219.576Z" fill="white"/>
<path d="M279.385 549.5L274.026 541.068H284.635L279.385 549.5Z" fill="white"/>
<path d="M228.516 522.364L242.912 541.068H221.345L228.516 522.364Z" fill="white"/>
<path d="M266.407 532.182L272.056 541.069H258.398L266.407 532.182Z" fill="white"/>
<path d="M295.873 526.165L307.976 541.068H286.589L295.873 526.165Z" fill="white"/>
<path d="M157.092 540.216H182.617C182.736 540.215 182.854 540.242 182.961 540.294C183.069 540.346 183.165 540.422 183.241 540.517L183.701 541.085L191.058 550L195.804 541.091L200.632 532.04C200.703 531.909 200.807 531.8 200.933 531.724C201.058 531.648 201.201 531.608 201.346 531.608C201.491 531.608 201.634 531.648 201.759 531.724C201.885 531.8 201.989 531.909 202.06 532.04L207.096 541.102L214.481 554.409L219.593 541.068L227.531 520.369C227.583 520.23 227.67 520.108 227.782 520.015C227.895 519.922 228.029 519.861 228.171 519.839C228.313 519.817 228.459 519.835 228.592 519.89C228.726 519.945 228.843 520.036 228.932 520.154L245.031 541.068L250.144 547.727L256.165 541.063L265.919 530.227C266.004 530.133 266.108 530.06 266.223 530.014C266.339 529.967 266.463 529.949 266.587 529.96C266.71 529.971 266.83 530.011 266.936 530.077C267.042 530.143 267.133 530.233 267.2 530.341L274.026 541.068L279.385 549.5L284.635 541.068L295.096 524.273C295.165 524.161 295.258 524.067 295.369 523.999C295.479 523.931 295.603 523.891 295.731 523.881C295.859 523.872 295.987 523.895 296.105 523.947C296.223 523.999 296.327 524.08 296.409 524.182L309.432 540.216H334.579C334.709 540.219 334.836 540.252 334.951 540.313C335.086 540.383 335.199 540.491 335.278 540.625C335.358 540.758 335.399 540.912 335.399 541.068C335.399 541.225 335.358 541.379 335.278 541.512C335.199 541.645 335.086 541.753 334.951 541.824C334.837 541.887 334.709 541.92 334.579 541.921H309.049C308.93 541.921 308.812 541.895 308.704 541.843C308.596 541.791 308.501 541.714 308.425 541.619L307.976 541.051L295.873 526.148L286.567 541.051L280.064 551.506C279.989 551.625 279.887 551.723 279.766 551.791C279.646 551.859 279.512 551.896 279.374 551.898C279.238 551.898 279.103 551.862 278.983 551.795C278.862 551.728 278.76 551.63 278.685 551.512L272.034 541.051L266.385 532.165L258.376 541.051L250.675 549.602C250.593 549.691 250.494 549.761 250.385 549.807C250.275 549.853 250.158 549.874 250.04 549.869C249.922 549.864 249.808 549.833 249.703 549.778C249.598 549.723 249.506 549.646 249.432 549.551L242.891 541.029L228.494 522.324L221.323 541.029L215.357 556.602C215.3 556.751 215.204 556.879 215.08 556.974C214.956 557.068 214.809 557.124 214.656 557.137C214.502 557.147 214.348 557.113 214.211 557.038C214.075 556.963 213.961 556.849 213.884 556.71L205.181 541.029L201.349 534.125L197.665 541.029L191.906 551.824C191.841 551.943 191.75 552.044 191.639 552.119C191.528 552.194 191.402 552.241 191.271 552.255C191.14 552.268 191.007 552.25 190.884 552.199C190.761 552.149 190.652 552.069 190.565 551.966L182.223 541.864H157.075C156.858 541.864 156.649 541.774 156.495 541.614C156.341 541.454 156.254 541.238 156.254 541.012C156.254 540.785 156.341 540.569 156.495 540.409C156.649 540.249 156.858 540.159 157.075 540.159L157.092 540.216Z" fill="black"/>
<path d="M302.249 569.245H308.867C310.534 569.245 312.132 569.932 313.311 571.155C314.489 572.378 315.151 574.037 315.151 575.767C315.151 577.497 314.489 579.156 313.311 580.38C312.132 581.603 310.534 582.29 308.867 582.29H302.249C300.583 582.29 298.984 581.603 297.806 580.38C296.627 579.156 295.965 577.497 295.965 575.767C295.965 574.037 296.627 572.378 297.806 571.155C298.984 569.932 300.583 569.245 302.249 569.245ZM297.607 575.767C297.607 576.4 297.726 577.027 297.959 577.612C298.192 578.197 298.534 578.728 298.965 579.176C299.397 579.624 299.909 579.978 300.472 580.22C301.036 580.462 301.639 580.586 302.249 580.586H308.867C309.477 580.586 310.081 580.462 310.645 580.22C311.208 579.978 311.72 579.624 312.151 579.176C312.582 578.728 312.924 578.197 313.157 577.612C313.39 577.027 313.51 576.4 313.509 575.767C313.509 574.489 313.02 573.264 312.15 572.36C311.279 571.457 310.098 570.949 308.867 570.949H302.249C301.018 570.949 299.837 571.457 298.967 572.36C298.096 573.264 297.607 574.489 297.607 575.767Z" fill="black"/>
<path d="M243.131 570.949H249.749C250.98 570.949 252.16 571.457 253.031 572.36C253.902 573.264 254.391 574.49 254.391 575.767C254.391 576.4 254.272 577.027 254.039 577.612C253.806 578.197 253.464 578.728 253.033 579.176C252.601 579.624 252.089 579.978 251.526 580.22C250.962 580.462 250.359 580.586 249.749 580.586H243.131C242.521 580.586 241.917 580.462 241.353 580.22C240.79 579.978 240.278 579.624 239.847 579.176C239.416 578.728 239.074 578.197 238.841 577.612C238.608 577.027 238.488 576.4 238.489 575.767C238.489 574.49 238.978 573.264 239.848 572.36C240.719 571.457 241.9 570.949 243.131 570.949Z" fill="white"/>
<path d="M243.131 569.245H249.749C251.416 569.245 253.014 569.932 254.193 571.155C255.371 572.378 256.033 574.037 256.033 575.767C256.033 577.497 255.371 579.156 254.193 580.38C253.014 581.603 251.416 582.29 249.749 582.29H243.131C241.464 582.29 239.866 581.603 238.688 580.38C237.509 579.156 236.847 577.497 236.847 575.767C236.847 574.037 237.509 572.378 238.688 571.155C239.866 569.932 241.464 569.245 243.131 569.245ZM238.489 575.767C238.488 576.4 238.608 577.027 238.841 577.612C239.074 578.197 239.416 578.728 239.847 579.176C240.278 579.624 240.79 579.978 241.354 580.22C241.917 580.462 242.521 580.586 243.131 580.586H249.749C250.359 580.586 250.963 580.462 251.526 580.22C252.09 579.978 252.602 579.624 253.033 579.176C253.464 578.728 253.806 578.197 254.039 577.612C254.272 577.027 254.392 576.4 254.391 575.767C254.391 574.489 253.902 573.264 253.031 572.36C252.161 571.457 250.98 570.949 249.749 570.949H243.131C241.9 570.949 240.719 571.457 239.849 572.36C238.978 573.264 238.489 574.489 238.489 575.767Z" fill="black"/>
<path d="M184.013 570.949H190.647C191.878 570.949 193.059 571.457 193.929 572.36C194.8 573.264 195.289 574.49 195.289 575.767C195.29 576.4 195.17 577.027 194.937 577.612C194.704 578.197 194.362 578.728 193.931 579.176C193.5 579.624 192.988 579.978 192.424 580.22C191.861 580.462 191.257 580.586 190.647 580.586H184.013C183.403 580.586 182.799 580.462 182.236 580.22C181.672 579.978 181.16 579.624 180.729 579.176C180.298 578.728 179.956 578.197 179.723 577.612C179.49 577.027 179.37 576.4 179.371 575.767C179.371 575.135 179.491 574.508 179.724 573.924C179.957 573.339 180.299 572.808 180.73 572.36C181.161 571.913 181.673 571.558 182.236 571.316C182.8 571.074 183.403 570.949 184.013 570.949Z" fill="white"/>
<path d="M190.63 569.245C192.297 569.245 193.895 569.932 195.074 571.155C196.252 572.378 196.914 574.037 196.914 575.767C196.914 577.497 196.252 579.156 195.074 580.38C193.895 581.603 192.297 582.29 190.63 582.29H184.012C182.345 582.29 180.747 581.603 179.568 580.38C178.39 579.156 177.728 577.497 177.728 575.767C177.728 574.037 178.39 572.378 179.568 571.155C180.747 569.932 182.345 569.245 184.012 569.245H190.63ZM179.354 575.767C179.353 576.4 179.473 577.027 179.706 577.612C179.939 578.197 180.28 578.728 180.712 579.176C181.143 579.624 181.655 579.978 182.218 580.22C182.782 580.462 183.386 580.586 183.996 580.586H190.63C191.24 580.586 191.844 580.462 192.407 580.22C192.971 579.978 193.483 579.624 193.914 579.176C194.345 578.728 194.687 578.197 194.92 577.612C195.153 577.027 195.273 576.4 195.272 575.767C195.272 574.489 194.783 573.264 193.912 572.36C193.042 571.457 191.861 570.949 190.63 570.949H184.012C183.402 570.949 182.799 571.074 182.236 571.316C181.672 571.558 181.161 571.913 180.73 572.36C180.299 572.808 179.957 573.339 179.723 573.924C179.49 574.508 179.37 575.135 179.37 575.767H179.354Z" fill="black"/>
</g>
<defs>
<linearGradient id="paint0_linear_1_516" x1="133.699" y1="98.5979" x2="253.538" y2="98.5979" gradientUnits="userSpaceOnUse">
<stop stop-color="#007D6E"/>
<stop offset="1" stop-color="#5EB47C"/>
</linearGradient>
<linearGradient id="paint1_linear_1_516" x1="139.996" y1="138.024" x2="247.258" y2="138.024" gradientUnits="userSpaceOnUse">
<stop stop-color="#007D6E"/>
<stop offset="1" stop-color="#5EB47C"/>
</linearGradient>
<clipPath id="clip0_1_516">
<rect width="796" height="625" fill="white" transform="matrix(-1 0 0 1 796 0)"/>
</clipPath>
</defs>
</svg>
