<svg width="783" height="882" viewBox="0 0 783 882" fill="none" xmlns="http://www.w3.org/2000/svg">
<path d="M261.332 120.453C260.463 122.016 259.401 123.464 258.171 124.762C257.93 123.958 257.696 123.211 257.463 122.431C258.814 121.898 260.109 121.236 261.332 120.453Z" fill="#EFF0F1"/>
<path d="M5.30063 101.52C5.30063 107.49 7.67337 113.216 11.897 117.437C16.1206 121.659 21.8491 124.031 27.8223 124.031H228.104L239.252 131.435H21.3231C18.5241 131.439 15.7518 130.89 13.1649 129.822C10.578 128.753 8.2272 127.186 6.24686 125.208C4.26649 123.231 2.69542 120.883 1.62354 118.299C0.551651 115.714 -7.62939e-05 112.944 -7.62939e-05 110.146V59.0296C0.000274658 56.2308 0.554016 53.4596 1.62933 50.8754C2.70464 48.2911 4.28033 45.9448 6.26581 43.9712C5.64145 46.0581 5.32439 48.2248 5.32468 50.403L5.30063 101.52Z" fill="#EFF0F1"/>
<path d="M696.04 736.546C696.04 736.498 696.105 736.441 696.137 736.401C705.379 728.546 714.637 721.359 723.774 714.806C724.036 714.914 724.305 715.005 724.579 715.08C725.008 715.185 725.448 715.247 725.89 715.265C716.728 721.801 707.39 728.98 698.091 736.835C696.862 737.141 695.675 737.6 694.56 738.202C695.094 737.687 695.589 737.134 696.04 736.546Z" fill="#1A1A1A"/>
<path d="M692.051 739.922C692.211 739.858 692.372 739.777 692.533 739.697C691.618 740.548 691.013 741.68 690.812 742.913C690.812 742.993 690.812 743.082 690.812 743.162C686.42 747.053 682.055 751.103 677.717 755.31C677.122 755.149 676.511 754.989 675.907 754.844C681.221 749.634 686.603 744.66 692.051 739.922Z" fill="#1A1A1A"/>
<path d="M737.151 705.552C748.323 698.123 759.077 691.667 769.027 686.136C769.731 686.354 770.462 686.476 771.199 686.498C771.376 686.498 771.553 686.498 771.729 686.498C761.016 692.391 749.312 699.361 737.143 707.506C736.813 707.554 736.483 707.61 736.161 707.674C736.507 706.991 736.845 706.292 737.151 705.552Z" fill="#1A1A1A"/>
<path d="M694.568 738.202C693.825 738.606 693.141 739.109 692.533 739.697C692.372 739.778 692.211 739.858 692.05 739.922C691.425 740.184 690.758 740.332 690.08 740.356C688.512 740.353 687.007 739.735 685.889 738.636C685.191 737.993 684.575 737.267 684.055 736.473C683.458 735.529 682.946 734.534 682.527 733.499C682.057 732.297 681.681 731.06 681.401 729.8C681.106 728.361 680.918 726.902 680.838 725.435C680.658 722.086 680.977 718.728 681.787 715.473C682.535 712.366 683.684 709.369 685.205 706.557C686.406 704.323 687.893 702.256 689.629 700.407C692.71 697.191 695.976 695.583 698.823 696.452C701.67 697.32 703.48 700.536 704.043 705.086C704.325 707.568 704.325 710.073 704.043 712.555C703.751 715.234 703.281 717.89 702.636 720.506C702.036 722.97 701.311 725.401 700.464 727.79C700.022 728.916 699.66 730.025 699.145 731.054C698.718 732.066 698.232 733.051 697.689 734.005C697.239 734.847 696.725 735.653 696.153 736.417C696.153 736.417 696.088 736.513 696.056 736.562C695.601 737.144 695.104 737.693 694.568 738.202Z" fill="#EC744A"/>
<path d="M692.533 739.697C693.141 739.109 693.825 738.606 694.568 738.201C695.683 737.6 696.869 737.14 698.099 736.835L698.759 736.674C701.367 736.144 704.04 736.004 706.689 736.256C713.014 736.853 719.077 739.068 724.297 742.688C726.482 744.201 728.429 746.033 730.072 748.122C732.935 751.877 733.667 755.535 732.115 758.027C730.562 760.52 727.096 761.525 722.905 761.476C717.98 761.256 713.125 760.233 708.531 758.445C703.867 756.851 699.496 754.505 695.589 751.499C692.444 748.91 690.474 746.032 690.763 743.17C690.763 743.089 690.763 743.001 690.763 742.921C690.975 741.678 691.599 740.543 692.533 739.697Z" fill="#EC744A"/>
<path d="M723.742 714.806C721.281 713.85 719.431 711.542 718.329 708.519C717.117 704.62 716.855 700.489 717.564 696.468C718.274 692.447 719.934 688.654 722.407 685.405C724.699 682.672 727.555 681.064 730.499 681.385C733.443 681.707 735.912 683.894 737.44 687.31C739.094 691.387 739.522 695.858 738.671 700.174C738.346 702.012 737.826 703.809 737.118 705.536C736.813 706.276 736.475 706.976 736.121 707.643C735.129 707.839 734.157 708.127 733.217 708.503C729.855 709.878 727.667 712.274 727.249 715.168C726.792 715.239 726.328 715.266 725.866 715.248C725.424 715.231 724.984 715.169 724.555 715.064C724.279 714.995 724.007 714.909 723.742 714.806Z" fill="#EC744A"/>
<path d="M733.249 708.519C734.188 708.143 735.16 707.855 736.153 707.659C736.475 707.595 736.804 707.538 737.134 707.49C740.05 707.091 743.017 707.274 745.861 708.029C750.056 709.02 753.829 711.314 756.64 714.581C758.932 717.443 759.672 720.627 758.594 723.377C757.516 726.126 754.886 727.967 751.637 728.884C747.963 729.751 744.133 729.709 740.478 728.762C736.824 727.815 733.457 725.991 730.667 723.449C728.254 721.037 726.871 718.191 727.265 715.256C727.261 715.232 727.261 715.208 727.265 715.184C727.699 712.322 729.887 709.91 733.249 708.519Z" fill="#EC744A"/>
<path d="M634.604 696.162C634.761 696.113 634.914 696.054 635.063 695.985C637.146 695.052 638.329 692.423 638.441 688.701C645.495 675.162 652.984 661.8 660.963 648.727C662.47 648.191 663.757 647.17 664.623 645.825C657.198 657.812 650.193 670.065 643.549 682.478L643.323 682.671C642.199 683.682 641.243 684.865 640.492 686.176C639.921 687.227 639.61 688.398 639.583 689.593C639.583 689.722 639.583 689.835 639.583 689.963C639.133 690.823 638.682 691.676 638.24 692.536C632.891 702.899 627.784 713.503 624.566 724.582L623.199 723.497C626.014 714.042 630.156 704.981 634.604 696.162Z" fill="#1A1A1A"/>
<path d="M699.756 592.916C707.033 583.804 714.642 574.99 722.584 566.473C722.769 566.473 722.954 566.521 723.139 566.537C723.727 566.567 724.317 566.515 724.892 566.385C716.211 575.571 707.939 585.144 700.078 595.102C699.853 595.199 699.612 595.279 699.394 595.384C699.547 594.588 699.668 593.768 699.756 592.916Z" fill="#1A1A1A"/>
<path d="M757.163 533.784C757.513 534.197 757.904 534.574 758.329 534.909C749.358 542.359 740.778 550.214 732.59 558.474C733.083 557.34 733.499 556.174 733.837 554.984C741.296 547.604 749.071 540.537 757.163 533.784Z" fill="#1A1A1A"/>
<path d="M667.164 639.964C667.309 639.377 667.446 638.758 667.558 638.123C674.68 626.969 682.187 616.089 690.08 605.482C690.342 605.572 690.611 605.642 690.884 605.691C690.908 605.961 690.948 606.23 691.005 606.495C691.005 606.591 691.077 606.688 691.102 606.784C683.932 616.4 677.09 626.272 670.575 636.402H670.526C669.21 637.388 668.072 638.593 667.164 639.964Z" fill="#1A1A1A"/>
<path d="M635.063 695.985C634.914 696.054 634.761 696.113 634.604 696.162C631.942 697.014 628.467 695.358 624.783 692.142C620.882 688.741 616.683 683.684 612.718 677.67C608.753 671.657 605.76 665.836 604.168 660.908C602.575 655.979 602.479 651.967 604.667 649.949C606.854 647.931 610.965 648.438 615.815 651.22C618.558 652.838 621.089 654.791 623.351 657.032C628.803 662.416 633.068 668.879 635.875 676.006C637.061 678.965 637.872 682.06 638.288 685.22C638.426 686.367 638.48 687.522 638.449 688.677C638.328 692.423 637.146 695.052 635.063 695.985Z" fill="#EC744A"/>
<path d="M640.484 686.176C641.235 684.865 642.191 683.682 643.316 682.671L643.541 682.478C644.629 681.522 645.806 680.671 647.056 679.938C647.394 679.737 647.707 679.56 648.045 679.375L648.938 678.876C649.541 678.555 650.177 678.233 650.836 677.936C653.662 676.669 656.634 675.759 659.684 675.226C666.175 674.077 672.28 674.704 676.575 676.384C680.87 678.064 683.468 680.758 683.501 683.708C683.533 686.659 681.136 689.336 677.492 691.507C673.108 693.921 668.337 695.553 663.392 696.331C660.768 696.804 658.111 697.073 655.445 697.135C654.81 697.135 654.198 697.135 653.595 697.135H652.694L651.954 697.054C651.135 696.951 650.327 696.771 649.541 696.516C648.918 696.289 648.31 696.021 647.723 695.712C647.076 695.473 646.412 695.282 645.737 695.141C644.36 694.96 643.026 694.538 641.795 693.895C641.131 693.475 640.58 692.9 640.189 692.219C639.798 691.538 639.579 690.772 639.551 689.987C639.551 689.859 639.551 689.746 639.551 689.617C639.581 688.412 639.901 687.232 640.484 686.176Z" fill="#EC744A"/>
<path d="M660.955 648.727C660.566 648.85 660.164 648.926 659.756 648.952C656.796 649.129 653.989 646.766 651.657 643.035C646.54 633.811 644.379 623.24 645.463 612.75C646.139 608.408 647.788 605.136 650.587 604.131C653.386 603.126 656.796 604.694 659.941 608.272C663.086 611.849 665.878 617.461 667.237 624.078C668.218 628.701 668.327 633.467 667.559 638.131C667.446 638.766 667.309 639.385 667.164 639.972C666.996 640.221 666.827 640.471 666.69 640.72C666.033 641.867 665.617 643.137 665.467 644.45V644.507C665.224 644.961 664.956 645.401 664.663 645.825C663.785 647.179 662.48 648.2 660.955 648.727Z" fill="#EC744A"/>
<path d="M666.69 640.72C666.826 640.471 666.995 640.222 667.164 639.972C668.077 638.6 669.22 637.395 670.542 636.411H670.591C672.396 635.086 674.43 634.105 676.591 633.517C678.775 632.925 681.049 632.739 683.299 632.97C685.239 633.17 687.115 633.773 688.809 634.739C691.882 636.539 693.434 639.345 693.281 642.28C693.128 645.214 691.544 647.827 689.557 649.869C687.542 651.937 685.01 653.428 682.223 654.186C679.436 654.944 676.497 654.941 673.711 654.179C670.866 653.544 668.353 651.888 666.649 649.524C665.678 648.039 665.26 646.261 665.467 644.499C665.61 643.169 666.026 641.882 666.69 640.72Z" fill="#EC744A"/>
<path d="M695.075 597.948C692.156 600.248 690.644 603.046 690.901 605.699C690.628 605.65 690.359 605.58 690.097 605.49C689.103 605.143 688.191 604.596 687.418 603.882C686.726 603.25 686.091 602.559 685.52 601.816C685.222 601.422 684.925 601.012 684.635 600.553C684.346 600.095 684.032 599.637 683.75 599.146C682.49 596.948 681.413 594.649 680.533 592.272C678.459 586.693 677.011 580.901 676.214 575.003C675.864 572.497 675.722 569.967 675.787 567.438C675.787 566.864 675.827 566.309 675.908 565.773C675.948 565.251 676.012 564.736 676.093 564.246C676.246 563.321 676.48 562.412 676.793 561.529C677.257 560.017 678.255 558.726 679.6 557.895C680.312 557.535 681.093 557.334 681.89 557.305C682.687 557.276 683.481 557.419 684.217 557.726C685.184 558.066 686.099 558.539 686.936 559.133C687.394 559.446 687.869 559.8 688.343 560.194C688.818 560.588 689.26 560.998 689.727 561.488C691.797 563.64 693.549 566.077 694.931 568.724C698.221 574.992 699.964 581.955 700.014 589.032C700.005 590.341 699.925 591.648 699.773 592.948C699.684 593.8 699.564 594.62 699.411 595.416C697.865 596.074 696.408 596.925 695.075 597.948Z" fill="#EC744A"/>
<path d="M690.901 605.699C690.643 603.046 692.155 600.248 695.075 597.949C696.401 596.915 697.852 596.054 699.394 595.384C699.612 595.279 699.853 595.199 700.078 595.103C702.824 593.993 705.729 593.325 708.685 593.125C714.315 592.739 719.632 593.929 723.324 596.341C724.2 596.876 725.01 597.513 725.737 598.238C726.376 598.861 726.919 599.576 727.345 600.361C728.112 601.692 728.329 603.27 727.949 604.758C727.533 606.191 726.754 607.493 725.689 608.537C725.146 609.1 724.557 609.617 723.927 610.081C723.259 610.573 722.557 611.019 721.828 611.415C714.293 615.064 705.623 615.598 697.697 612.903C694.383 611.584 691.922 609.534 691.142 606.792C691.142 606.696 691.069 606.599 691.045 606.503C690.98 606.238 690.932 605.97 690.901 605.699Z" fill="#EC744A"/>
<path d="M723.139 566.538C722.954 566.538 722.769 566.538 722.584 566.473C716.953 565.613 712.98 556.906 713.599 546.575C714.243 535.906 719.551 527.545 725.463 527.899C731.375 528.252 735.638 537.185 735.003 547.861C734.862 550.271 734.463 552.66 733.812 554.984C733.475 556.174 733.058 557.34 732.566 558.474L732.252 559.157C731.749 559.807 731.35 560.531 731.069 561.304C729.348 564.021 727.209 565.846 724.9 566.385C724.323 566.516 723.73 566.568 723.139 566.538Z" fill="#EC744A"/>
<path d="M735.172 556.48C737.018 555.313 739.063 554.495 741.204 554.068C746.247 553.06 751.481 553.709 756.125 555.917C758.094 556.846 759.875 558.129 761.377 559.704C764.056 562.582 764.868 565.846 763.79 568.547C762.713 571.249 760.01 573.09 756.881 574.135C753.427 575.172 749.796 575.485 746.215 575.054C742.634 574.622 739.181 573.455 736.073 571.627C733.29 569.858 731.134 567.486 730.716 564.544C730.565 563.459 730.684 562.355 731.062 561.328C731.343 560.555 731.742 559.831 732.244 559.181C733.056 558.118 734.047 557.204 735.172 556.48Z" fill="#EC744A"/>
<path d="M757.162 533.784C756.209 532.631 755.586 531.242 755.361 529.764C755.099 528.054 755.25 526.306 755.803 524.667C756.436 522.794 757.468 521.082 758.827 519.646C760.187 518.211 761.842 517.088 763.677 516.354C765.284 515.708 767.022 515.46 768.745 515.63C770.218 515.767 771.627 516.298 772.824 517.166C774.021 518.035 774.963 519.209 775.55 520.567C776.591 523.096 776.962 525.851 776.627 528.566C776.354 530.978 775.735 532.972 774.391 534.371C773.048 535.77 771.174 536.509 768.761 536.919C766.069 537.403 763.298 537.181 760.717 536.276C759.875 535.949 759.088 535.493 758.385 534.925C757.939 534.588 757.529 534.205 757.162 533.784Z" fill="#EC744A"/>
<path d="M762.926 691.206C761.973 690.053 761.35 688.664 761.125 687.186C760.863 685.476 761.014 683.728 761.567 682.089C762.2 680.216 763.232 678.504 764.592 677.068C765.951 675.633 767.606 674.51 769.442 673.776C771.048 673.13 772.786 672.882 774.509 673.052C775.982 673.189 777.391 673.719 778.588 674.588C779.786 675.457 780.727 676.631 781.314 677.988C782.355 680.518 782.727 683.273 782.392 685.988C782.118 688.4 781.499 690.394 780.155 691.793C778.812 693.192 776.938 693.931 774.525 694.341C771.833 694.825 769.062 694.603 766.482 693.698C765.639 693.371 764.852 692.915 764.149 692.347C763.703 692.01 763.294 691.627 762.926 691.206Z" fill="#EC744A"/>
<path d="M448.874 233.435C448.721 233.386 448.56 233.368 448.4 233.382C448.24 233.395 448.085 233.441 447.943 233.516C447.802 233.591 447.676 233.694 447.575 233.818C447.474 233.942 447.398 234.086 447.353 234.239L436.728 266.873C436.583 266.792 436.43 266.704 436.278 266.632L436.165 266.575C436.237 262.555 436.286 258.166 436.286 253.712C436.286 247.505 436.189 241.186 435.899 235.743C435.578 229.592 435.417 214.727 435.28 197.643C435.143 180.558 435.023 161.207 434.749 145.995C434.693 142.94 434.637 140.054 434.564 137.385C435.984 138.639 437.581 139.679 439.302 140.472C442.712 141.978 446.41 142.719 450.136 142.643C461.864 142.643 470.028 139.789 475.554 136.404C475.208 141.759 474.79 148.182 474.331 155.257C473.012 175.357 471.307 200.577 469.762 221.336C469.355 226.835 469.028 231.948 468.781 236.675C468.636 237.705 468.492 238.75 468.339 239.819L448.874 233.435Z" fill="#2A6049"/>
<path d="M498.944 849.439L489.477 850.717C484.974 851.417 480.565 852.622 476.334 854.311C464.703 845.901 445.27 840.386 423.247 840.386C416.816 840.375 410.394 840.862 404.039 841.841C404.087 839.614 404.119 837.508 404.144 835.587C406.023 834.801 407.635 833.489 408.785 831.808C422.035 824.779 436.595 820.561 451.552 819.419C448.283 791.893 455.903 764.179 472.786 742.189C475.561 759.7 478.167 775.49 480.484 788.98C484.055 809.739 486.919 825.055 488.777 832.933C489.267 835.04 489.678 836.608 490.024 837.661C490.162 838.118 490.348 838.56 490.579 838.979C491.132 839.834 491.879 840.547 492.758 841.062C493.709 841.623 494.736 842.046 495.807 842.316C496.89 842.594 497.992 842.793 499.105 842.911L499.748 849.343L498.944 849.439Z" fill="#2A6049"/>
<path d="M533.812 878.494C534.134 875.455 534.254 871.355 534.254 866.877C534.254 862.053 534.109 856.747 533.933 851.931C533.731 846.585 533.474 841.817 533.305 838.875C535.815 838.288 537.327 837.878 537.327 837.878C537.587 837.808 537.817 837.652 537.979 837.437C538.14 837.221 538.225 836.957 538.22 836.688C538.22 836.688 538.22 836.021 538.179 834.742C538.139 833.464 538.115 831.575 538.059 829.114C537.962 824.234 537.818 817.127 537.649 808.259C537.303 790.516 536.844 765.697 536.394 737.405C536.217 726.294 536.032 714.637 535.863 702.674C551.059 699.585 566.747 699.848 581.832 703.444C596.916 707.041 611.033 713.884 623.199 723.497L624.55 724.582C633.94 732.259 641.953 741.478 648.246 751.845C649.139 751.845 650.024 751.845 650.916 751.845C659.321 751.843 667.694 752.864 675.851 754.884C676.454 755.028 677.066 755.189 677.661 755.35C704.15 762.455 726.732 779.783 740.442 803.525C754.153 827.267 757.87 855.479 750.776 881.959H533.201C533.498 880.823 533.702 879.664 533.812 878.494Z" fill="#2A6049"/>
<path d="M402.47 874.475C403.033 869.121 403.411 862.005 403.669 854.834C403.83 850.388 403.942 845.918 404.015 841.842C410.37 840.862 416.792 840.376 423.222 840.387C445.237 840.387 464.67 845.902 476.309 854.311C468.585 857.342 461.783 862.33 456.57 868.783C453.363 872.716 450.881 877.189 449.243 881.992H401.199C401.288 881.703 401.376 881.397 401.457 881.068C401.935 878.894 402.273 876.692 402.47 874.475Z" fill="#2A6049"/>
<path d="M451.785 881.96C452.01 881.317 452.332 880.488 452.766 879.548C454.254 876.235 456.163 873.128 458.445 870.302C464.075 863.34 473.615 855.726 489.814 853.145L498.952 851.907C499.728 852.23 500.537 852.467 501.365 852.615H501.405C507.761 853.546 514.173 854.053 520.597 854.134C523.015 854.134 525.444 854.027 527.884 853.813C529.107 853.708 530.337 853.563 531.576 853.395C531.729 857.824 531.849 862.552 531.849 866.917C531.918 871.082 531.727 875.246 531.278 879.387C531.191 880.139 531.035 880.882 530.812 881.606C530.768 881.741 530.714 881.873 530.651 882H451.825L451.785 881.96Z" fill="black"/>
<path d="M476.301 854.311C480.533 852.622 484.942 851.417 489.444 850.717L498.911 849.439C498.651 849.476 498.41 849.596 498.225 849.782C498.04 849.968 497.92 850.21 497.885 850.47C497.849 850.73 497.9 850.995 498.028 851.224C498.157 851.453 498.357 851.633 498.598 851.738L498.919 851.867L489.782 853.105C473.583 855.686 464.043 863.299 458.413 870.262C456.131 873.087 454.222 876.195 452.734 879.507C452.3 880.488 451.978 881.316 451.753 881.919H449.203C450.841 877.116 453.323 872.644 456.53 868.71C461.761 862.279 468.574 857.317 476.301 854.311Z" fill="black"/>
<path d="M520.588 854.094C523.007 854.094 525.436 853.987 527.875 853.772C525.436 853.992 523.007 854.099 520.588 854.094Z" fill="black"/>
<path d="M531.27 879.347C531.718 875.206 531.909 871.042 531.841 866.877C531.841 862.512 531.72 857.785 531.567 853.355C532.018 853.29 532.46 853.242 532.911 853.17C533.202 853.123 533.467 852.971 533.655 852.743C533.843 852.516 533.942 852.227 533.932 851.932C534.109 856.755 534.254 862.03 534.254 866.877C534.254 871.356 534.133 875.456 533.812 878.495C533.702 879.664 533.497 880.823 533.2 881.96H530.642C530.705 881.833 530.759 881.701 530.803 881.566C531.026 880.842 531.182 880.099 531.27 879.347Z" fill="black"/>
<path d="M531.504 850.934C527.896 851.438 524.256 851.688 520.613 851.682C514.475 851.611 508.349 851.133 502.274 850.251L501.558 843.112C502.266 843.112 502.99 843.16 503.738 843.16C510.704 843.16 519.085 841.833 525.753 840.515C527.651 840.137 529.405 839.767 530.949 839.421C530.949 839.815 530.989 840.225 531.013 840.668C531.142 843.369 531.319 846.955 531.504 850.934Z" fill="#EFF0F1"/>
<path d="M532.911 853.17C532.461 853.242 532.018 853.29 531.568 853.355C530.329 853.523 529.098 853.668 527.876 853.773C525.436 853.987 523.007 854.094 520.588 854.094C514.165 854.013 507.753 853.506 501.397 852.575H501.356C500.529 852.427 499.72 852.19 498.943 851.867L498.622 851.739C498.381 851.634 498.181 851.453 498.052 851.224C497.924 850.995 497.873 850.73 497.909 850.47C497.944 850.21 498.064 849.969 498.249 849.783C498.434 849.596 498.675 849.476 498.935 849.439L499.74 849.335L499.096 842.903C499.901 842.991 500.705 843.064 501.509 843.104L502.225 850.243C508.3 851.125 514.426 851.603 520.564 851.674C524.208 851.68 527.847 851.43 531.455 850.927C531.294 846.907 531.117 843.337 530.964 840.66C530.964 840.218 530.924 839.808 530.9 839.414L533.313 838.867C533.482 841.809 533.739 846.577 533.941 851.923C533.952 852.221 533.853 852.513 533.663 852.743C533.473 852.972 533.206 853.124 532.911 853.17Z" fill="black"/>
<path d="M401.288 853.821C400.484 854.038 399.615 854.215 398.763 854.351C398.111 854.464 397.46 854.544 396.8 854.609C395.714 854.713 394.628 854.786 393.526 854.786C385.781 854.786 377.673 852.309 370.401 849.52L373.048 832.307C374.52 832.829 376.595 833.537 379.016 834.236C383.842 835.643 390.1 837.058 395.803 837.066C397.796 837.089 399.784 836.868 401.723 836.407C401.626 841.472 401.497 847.654 401.288 853.821Z" fill="#EFF0F1"/>
<path d="M403.669 854.834C403.675 854.643 403.636 854.454 403.555 854.281C403.474 854.108 403.353 853.957 403.203 853.84C403.052 853.722 402.876 853.642 402.689 853.605C402.501 853.568 402.308 853.576 402.124 853.628C401.851 853.709 401.569 853.765 401.32 853.837C401.529 847.655 401.658 841.472 401.722 836.407C402.411 836.236 403.088 836.022 403.749 835.764L404.151 835.587C404.151 837.509 404.095 839.607 404.047 841.842C403.942 845.918 403.83 850.388 403.669 854.834Z" fill="black"/>
<path d="M373.047 832.307L370.433 849.536C377.672 852.326 385.812 854.802 393.558 854.802C385.515 854.802 377.029 852.116 369.532 849.174C369.238 849.057 368.91 849.057 368.615 849.174L368.028 849.254L370.739 831.398C370.9 831.511 371.728 831.84 373.047 832.307Z" fill="black"/>
<path d="M319.784 881.96C320.017 881.317 320.331 880.489 320.765 879.548C322.256 876.237 324.164 873.13 326.444 870.302C332.074 863.34 341.614 855.727 357.813 853.146L367.779 851.795L369.01 851.634C376.522 854.537 385.096 857.262 393.518 857.262C396.1 857.272 398.675 856.986 401.191 856.41C400.878 864.506 400.387 872.361 399.687 877.313C399.526 878.672 399.257 880.016 398.883 881.333C398.816 881.549 398.73 881.759 398.626 881.96H319.8H319.784Z" fill="black"/>
<path d="M369.5 849.19C376.997 852.117 385.458 854.818 393.526 854.818C394.628 854.818 395.714 854.746 396.8 854.641C397.459 854.577 398.111 854.496 398.762 854.384C399.615 854.247 400.451 854.07 401.288 853.853C401.569 853.781 401.851 853.725 402.092 853.644C402.276 853.592 402.469 853.584 402.657 853.621C402.844 853.658 403.02 853.738 403.17 853.856C403.321 853.973 403.441 854.125 403.522 854.297C403.603 854.47 403.643 854.659 403.637 854.85C403.379 862.022 403.001 869.137 402.438 874.491C402.24 876.697 401.901 878.888 401.425 881.052C401.344 881.381 401.256 881.687 401.167 881.976H398.577C398.682 881.775 398.768 881.565 398.835 881.349C399.209 880.033 399.478 878.688 399.639 877.329C400.355 872.345 400.829 864.466 401.143 856.426C398.626 857.002 396.052 857.288 393.47 857.278C385.024 857.278 376.474 854.561 368.961 851.65L367.731 851.811L357.765 853.162C341.557 855.743 332.026 863.356 326.395 870.319C324.134 873.144 322.242 876.245 320.765 879.548C320.331 880.529 320.017 881.357 319.784 881.96H317.234C318.872 877.157 321.354 872.684 324.561 868.751C329.622 862.49 336.186 857.612 343.64 854.569C348.071 852.738 352.705 851.445 357.443 850.718L367.964 849.295L368.551 849.214C368.852 849.082 369.193 849.073 369.5 849.19Z" fill="black"/>
<path d="M442.165 510.099H442.077C441.759 510.135 441.468 510.296 441.269 510.546C441.07 510.797 440.979 511.116 441.015 511.433C441.304 513.952 441.597 516.474 441.892 518.999C439.704 543.544 437.154 571.667 434.435 600.763C427.405 676.007 419.209 757.762 412.935 800.775C411.15 813.052 409.509 822.193 408.109 827.009C407.859 827.951 407.536 828.873 407.144 829.766C406.212 831.516 404.66 832.855 402.792 833.521C400.535 834.335 398.145 834.72 395.746 834.654C390.775 834.654 385.113 833.464 380.528 832.178C376.587 831.077 373.442 829.919 372.171 829.429V829.388C372.09 828.922 371.97 828.206 371.809 827.25C371.495 825.328 371.005 822.426 370.434 818.47C369.243 810.567 367.522 798.476 365.406 781.769C361.176 748.34 355.384 696.419 349.126 622.422C348.52 615.315 347.984 608.199 347.518 601.076C350.043 602.699 352.658 604.175 355.352 605.498C370.844 613.136 393.687 618.78 424.767 619.166C425.069 619.169 425.36 619.06 425.585 618.859C425.81 618.658 425.951 618.38 425.982 618.08C432.465 551.841 434.628 474.732 434.628 401.321C434.628 381.302 434.467 361.557 434.186 342.382L435.891 342.937L442.165 510.099Z" fill="black"/>
<path d="M347.542 601.076C348.008 608.188 348.544 615.303 349.15 622.421C355.408 696.387 361.216 748.339 365.43 781.769C367.546 798.475 369.267 810.567 370.458 818.47C371.053 822.426 371.519 825.328 371.833 827.249C371.994 828.206 372.115 828.922 372.195 829.388V829.428C373.466 829.919 376.611 831.036 380.552 832.178C385.137 833.464 390.799 834.654 395.77 834.654C398.169 834.719 400.559 834.335 402.816 833.52C404.684 832.855 406.236 831.516 407.168 829.766C407.56 828.873 407.883 827.951 408.133 827.008C409.509 822.184 411.149 813.051 412.959 800.775C419.233 757.762 427.437 676.006 434.459 600.762C437.178 571.667 439.728 543.544 441.916 518.998C442.366 522.881 442.833 526.773 443.291 530.664C440.283 564.238 436.711 603.295 432.979 641.934C428.644 686.844 424.091 731.175 419.957 765.745C417.898 783.007 415.935 797.808 414.158 809.007C413.265 814.635 412.42 819.314 411.632 822.98C411.235 824.813 410.852 826.386 410.482 827.7C410.19 828.777 409.817 829.831 409.364 830.851C409.195 831.181 409.007 831.5 408.801 831.808C407.651 833.489 406.039 834.802 404.16 835.587L403.757 835.763C403.096 836.021 402.419 836.236 401.73 836.407C399.792 836.868 397.803 837.089 395.811 837.066C390.108 837.066 383.874 835.643 379.024 834.236C376.611 833.536 374.528 832.829 373.056 832.306C371.769 831.84 370.94 831.502 370.747 831.438H370.707C370.518 831.364 370.351 831.242 370.223 831.084C370.095 830.926 370.009 830.738 369.975 830.538C369.975 830.489 359.293 770.698 346.778 622.654C346.129 614.893 345.552 607.122 345.048 599.339C345.82 599.934 346.657 600.505 347.542 601.076Z" fill="black"/>
<path d="M521.441 621.384C525.358 621.111 529.074 620.757 532.509 620.307C533.353 717.322 535.581 824.644 535.823 835.771L533.474 836.35C531.431 836.841 528.551 837.492 525.262 838.143C518.674 839.446 510.381 840.74 503.713 840.74C501.793 840.762 499.875 840.622 497.978 840.322C496.582 840.122 495.234 839.673 493.997 838.995C493.441 838.678 492.967 838.235 492.613 837.701C492.49 837.44 492.386 837.172 492.3 836.897C492.147 836.431 491.962 835.787 491.753 835C491.342 833.392 490.836 831.229 490.257 828.495C489.09 823.028 487.61 815.367 485.897 805.872C482.462 786.874 478.063 760.536 473.229 729.615C468.201 697.384 462.7 660.16 457.343 621.079C466.247 621.537 480.669 622.132 495.573 622.132C504.341 622.148 513.301 621.947 521.441 621.384Z" fill="black"/>
<path d="M443.411 511.16C443.375 510.859 443.227 510.582 442.996 510.386C442.765 510.189 442.468 510.087 442.165 510.099L435.915 342.873L451.069 347.817C449.364 361.71 447.98 376.004 447.168 390.428C445.085 427.314 444.393 465.052 444.393 498.964C444.393 506.256 444.393 513.371 444.481 520.269C444.111 517.241 443.755 514.204 443.411 511.16Z" fill="black"/>
<path d="M537.681 808.276C537.849 817.12 537.994 824.251 538.091 829.131C538.147 831.543 538.187 833.464 538.211 834.759C538.236 836.053 538.252 836.696 538.252 836.704C538.257 836.974 538.172 837.238 538.011 837.453C537.849 837.669 537.619 837.824 537.359 837.894C537.359 837.894 535.815 838.304 533.337 838.891L530.924 839.438C529.38 839.784 527.626 840.153 525.728 840.531C519.06 841.85 510.679 843.176 503.713 843.176C502.965 843.176 502.241 843.176 501.533 843.128C500.681 843.128 499.876 843.016 499.12 842.927C498.008 842.809 496.906 842.611 495.822 842.332C494.752 842.062 493.725 841.64 492.774 841.078C491.895 840.564 491.148 839.851 490.594 838.996C490.364 838.577 490.178 838.135 490.039 837.677C489.693 836.624 489.283 835.056 488.792 832.95C486.967 825.071 484.071 809.755 480.5 788.997C478.183 775.506 475.577 759.716 472.802 742.206C467.244 707.193 460.994 665.265 454.922 620.983L457.375 621.111C462.732 660.184 468.233 697.408 473.261 729.647C478.087 760.568 482.494 786.906 485.929 805.904C487.642 815.399 489.146 823.061 490.289 828.528C490.868 831.262 491.374 833.448 491.785 835.032C491.994 835.836 492.179 836.463 492.332 836.93C492.418 837.204 492.522 837.473 492.645 837.734C492.999 838.267 493.473 838.711 494.029 839.028C495.265 839.705 496.614 840.155 498.01 840.354C499.907 840.655 501.825 840.795 503.745 840.773C510.413 840.773 518.706 839.478 525.294 838.176C528.583 837.525 531.463 836.873 533.506 836.383L535.855 835.804C535.613 824.669 533.385 717.347 532.541 620.339C533.345 620.227 534.15 620.114 534.954 619.994C535.195 647.546 535.549 675.926 535.935 702.722C536.104 714.686 536.289 726.343 536.466 737.454C536.884 765.714 537.335 790.532 537.681 808.276Z" fill="black"/>
<path d="M441.891 518.998C441.596 516.474 441.304 513.952 441.015 511.433C440.978 511.115 441.07 510.796 441.269 510.546C441.468 510.296 441.759 510.135 442.076 510.098H442.165C442.468 510.086 442.765 510.189 442.996 510.385C443.227 510.582 443.375 510.858 443.412 511.16C443.755 514.199 444.109 517.243 444.473 520.293C444.538 528.164 444.634 535.737 444.755 542.957C444.256 538.857 443.76 534.759 443.267 530.664C442.808 526.773 442.342 522.882 441.891 518.998Z" fill="black"/>
<path d="M524.385 257.989L498.123 249.451L489.959 187.038L506.271 134.836C511.451 137.65 516.897 140.794 521.779 143.953L522.093 144.154L525.149 240.631C524.97 240.632 524.793 240.676 524.635 240.76C524.355 240.907 524.145 241.158 524.049 241.459C523.952 241.759 523.978 242.086 524.12 242.368C526.066 246.114 527.788 251.517 529.227 257.539C530.667 263.56 531.858 270.225 532.799 276.553C533.329 280.114 533.78 283.563 534.166 286.747C532.856 286.088 531.488 285.55 530.08 285.139C527.118 284.335 524.098 283.76 521.047 283.419C519.913 283.274 518.731 283.145 517.532 283.025L525.19 259.508C525.239 259.356 525.257 259.195 525.243 259.035C525.23 258.876 525.184 258.72 525.109 258.579C525.034 258.437 524.931 258.312 524.807 258.21C524.683 258.109 524.539 258.034 524.385 257.989Z" fill="white"/>
<path d="M490.924 360.785C491.077 360.833 491.237 360.851 491.397 360.836C491.556 360.822 491.711 360.776 491.853 360.701C491.994 360.626 492.119 360.524 492.221 360.4C492.322 360.277 492.398 360.134 492.444 359.981L497.664 343.958C511.358 348.213 525.561 350.616 539.893 351.105C539.957 352.673 540.029 354.273 540.102 355.929C540.801 371.759 541.767 391.4 542.836 412.713C544.984 455.324 547.558 504.64 549.271 543.52C550.421 569.44 551.186 590.737 551.186 602.282C551.186 604.477 551.186 606.302 551.097 607.757C551.077 608.777 550.994 609.795 550.848 610.804C550.652 611.614 550.177 612.329 549.504 612.822C548.42 613.676 547.206 614.351 545.909 614.824C541.769 616.293 537.476 617.291 533.112 617.799C522.615 619.262 508.893 619.736 495.589 619.736C474.435 619.736 454.302 618.538 449.532 618.233C449.532 617.871 449.492 617.429 449.468 616.914C449.388 615.306 449.283 613.031 449.154 610.04C448.889 604.051 448.543 595.368 448.197 584.563C447.505 562.952 446.814 532.875 446.814 498.988C446.814 465.1 447.505 427.434 449.581 390.58C450.385 376.366 451.744 362.28 453.417 348.581L490.924 360.785ZM503.182 384.904C503.239 385.177 503.311 385.507 503.415 385.885C503.609 386.649 503.898 387.63 504.292 388.803C505.303 391.832 506.47 394.805 507.791 397.711C510.912 404.658 515.633 413.148 522.108 420.223C522.331 420.418 522.618 420.525 522.914 420.523C523.21 420.521 523.495 420.41 523.715 420.211C523.935 420.013 524.073 419.74 524.105 419.446C524.137 419.151 524.059 418.855 523.886 418.615C515.207 409.112 509.641 396.722 507.099 389.567C506.489 387.915 505.976 386.23 505.563 384.518C505.534 384.391 505.516 384.262 505.507 384.132C505.507 383.812 505.38 383.506 505.153 383.28C504.927 383.053 504.62 382.926 504.3 382.926C503.98 382.926 503.673 383.053 503.447 383.28C503.221 383.506 503.094 383.812 503.094 384.132C503.101 384.381 503.131 384.628 503.182 384.872V384.904Z" fill="white"/>
<path d="M485.406 122.343C485.534 122.319 485.665 122.319 485.793 122.343C485.989 122.376 486.183 122.424 486.372 122.488C487.136 122.737 488.374 123.251 490.072 124.015C492.227 124.98 495.091 126.347 498.34 127.979L485.406 122.343Z" fill="black"/>
<path d="M522.503 141.574C522.206 141.452 521.874 141.453 521.578 141.577C521.283 141.7 521.048 141.936 520.927 142.233C520.805 142.529 520.806 142.862 520.93 143.157C521.053 143.453 521.29 143.687 521.586 143.809C521.755 143.873 521.916 143.953 522.085 144.026V144.154L521.771 143.953C516.889 140.794 511.443 137.65 506.263 134.836L506.875 132.859C506.914 132.726 506.931 132.587 506.923 132.448C510.365 134.306 513.945 136.324 517.379 138.406C519.149 139.467 520.886 140.536 522.567 141.622L522.463 141.574H522.503Z" fill="black"/>
<path d="M468.764 236.62C468.705 237.724 468.649 238.796 468.595 239.836L468.322 239.747C468.491 238.694 468.635 237.649 468.764 236.62Z" fill="black"/>
<path d="M532.508 620.307C529.074 620.757 525.358 621.111 521.441 621.384C513.301 621.947 504.34 622.188 495.573 622.188C480.644 622.188 466.246 621.594 457.342 621.135L454.889 621.007C450.747 620.773 448.285 620.605 448.277 620.605C447.984 620.583 447.708 620.456 447.502 620.245C447.296 620.035 447.174 619.757 447.159 619.463C447.159 619.463 445.51 588.293 444.746 542.997C444.626 535.761 444.529 528.204 444.465 520.333C444.409 513.435 444.376 506.32 444.376 499.028C444.376 465.108 445.068 427.37 447.151 390.492C447.956 376.02 449.347 361.758 451.052 347.881L453.393 348.645C451.72 362.312 450.361 376.43 449.556 390.644C447.481 427.474 446.789 465.165 446.789 499.052C446.789 532.939 447.481 563.016 448.173 584.627C448.519 595.432 448.865 604.115 449.13 610.105C449.259 613.095 449.363 615.411 449.444 616.979C449.444 617.501 449.492 617.935 449.508 618.297C454.278 618.603 474.443 619.801 495.565 619.801C508.869 619.801 522.591 619.326 533.088 617.863C537.456 617.362 541.755 616.37 545.901 614.904C547.198 614.432 548.411 613.756 549.496 612.903C550.168 612.409 550.644 611.695 550.839 610.885C550.986 609.875 551.069 608.857 551.089 607.837C551.145 606.398 551.177 604.557 551.177 602.362C551.177 590.817 550.373 569.52 549.263 543.6C547.55 504.72 544.976 455.412 542.828 412.794C541.758 391.481 540.793 371.839 540.093 356.009C540.021 354.361 539.949 352.793 539.884 351.185C540.689 351.185 541.493 351.242 542.297 351.25C542.579 357.778 542.909 365.046 543.287 372.909C545 409.168 547.574 457.816 549.721 501.753C551.869 545.69 553.582 584.9 553.59 602.354C553.59 604.565 553.59 606.431 553.502 607.926C553.477 609.059 553.38 610.19 553.212 611.311C552.92 612.671 552.157 613.884 551.057 614.736C549.11 616.344 546.174 617.55 542.466 618.522C539.973 619.147 537.449 619.646 534.905 620.018C534.133 620.082 533.329 620.195 532.508 620.307Z" fill="black"/>
<path d="M440.315 138.229C438.074 137.198 436.08 135.698 434.467 133.831C434.331 129.241 434.17 125.486 433.961 122.889C433.921 122.319 433.872 121.804 433.824 121.346C435.795 120.542 437.186 120.035 437.435 119.947H437.476C437.689 119.874 437.877 119.742 438.019 119.567C438.161 119.393 438.252 119.181 438.28 118.958L440.452 101.568C440.814 101.415 441.304 101.206 441.867 100.949C443.245 100.338 444.588 99.6509 445.889 98.8908C446.71 98.427 447.469 97.8625 448.149 97.2105C448.533 96.8492 448.811 96.3907 448.954 95.8839C448.995 95.713 448.999 95.5351 448.964 95.3626C448.929 95.1902 448.857 95.0274 448.753 94.8857C448.649 94.744 448.515 94.6268 448.361 94.5423C448.206 94.4578 448.035 94.4081 447.86 94.3966L440.138 93.9142H439.961H439.623C439.186 93.8751 438.751 93.8107 438.32 93.7213C436.791 93.413 435.312 92.8906 433.929 92.1696C430.478 90.3848 426.279 86.8634 423.351 79.5553C421.807 75.9293 420.938 70.2051 420.938 63.6044C420.98 55.6926 422.092 47.8228 424.244 40.2088C424.55 39.6863 424.936 39.0511 425.459 38.2713C428.003 34.5058 430.787 30.9074 433.792 27.498C433.792 28.302 433.736 29.1783 433.736 30.0064C433.736 43.1755 438.562 53.0322 444.313 58.1053C446.01 59.6757 448.047 60.834 450.265 61.49C450.972 61.6889 451.702 61.797 452.437 61.8116C452.928 61.8166 453.417 61.7406 453.884 61.5865C454.323 61.4273 454.723 61.178 455.059 60.8549C455.642 60.237 456.04 59.4684 456.209 58.6359C456.343 58.088 456.443 57.5322 456.507 56.9717C456.611 56.1677 456.692 55.3637 456.812 54.5598C456.955 53.4447 457.225 52.3496 457.617 51.2956C458.218 49.7242 459.246 48.3516 460.585 47.332C461.123 46.9181 461.709 46.5699 462.33 46.2949C462.7 46.1091 463.106 46.0049 463.52 45.9894C463.738 45.9858 463.954 46.0355 464.148 46.1341C464.379 46.2563 464.582 46.4262 464.743 46.6326C465.33 47.4051 465.746 48.2928 465.966 49.2375C466.681 51.7378 467.051 55.6692 467.043 60.8951C467.043 64.7702 466.85 69.3528 466.48 74.5626C466.408 75.5676 466.376 76.5162 466.376 77.4087C466.376 81.0748 466.947 83.8404 467.985 85.8906C468.659 87.2856 469.706 88.4678 471.009 89.3074C470.044 96.1036 469.507 102.953 469.4 109.817C469.385 112.88 469.565 115.941 469.939 118.982C469.97 119.206 470.049 119.42 470.172 119.609C470.257 119.737 470.354 119.855 470.462 119.963C470.655 120.151 470.865 120.321 471.089 120.469C471.638 120.826 472.208 121.151 472.795 121.442C473.832 121.965 475.103 122.536 476.414 123.106C476.309 124.803 476.157 127.207 475.964 130.197C475.899 131.178 475.835 132.232 475.763 133.333C470.663 136.862 462.62 140.159 450.152 140.167C446.771 140.245 443.414 139.584 440.315 138.229Z" fill="white"/>
<path d="M438.634 101.681C438.799 101.803 438.993 101.881 439.197 101.908C439.401 101.934 439.608 101.909 439.8 101.834L440.459 101.552L438.288 118.942C438.259 119.166 438.169 119.377 438.027 119.551C437.885 119.726 437.696 119.858 437.483 119.931H437.443C437.194 120.019 435.834 120.51 433.832 121.33C433.775 120.799 433.711 120.333 433.647 119.947C433.587 119.62 433.496 119.299 433.373 118.99C433.376 118.969 433.376 118.947 433.373 118.926C434.507 118.46 435.416 118.122 435.995 117.905L438.167 100.587C438.145 100.794 438.176 101.004 438.257 101.195C438.339 101.387 438.469 101.554 438.634 101.681Z" fill="black"/>
<path d="M422.113 42.669C422.367 42.6763 422.618 42.6023 422.827 42.4578C423.037 42.3132 423.195 42.1056 423.279 41.8651L423.335 41.7364C423.384 41.6158 423.48 41.4068 423.633 41.1093C423.786 40.8119 423.939 40.5385 424.156 40.1606C422.024 47.7639 420.928 55.6199 420.898 63.516C420.898 70.1167 421.791 75.8409 423.311 79.4669C426.239 86.775 430.438 90.2964 433.888 92.0812C435.272 92.8022 436.75 93.3246 438.28 93.6329C438.71 93.7223 439.145 93.7867 439.583 93.8258H439.921H439.865C439.55 93.8078 439.241 93.9126 439.002 94.1181C438.764 94.3236 438.614 94.6137 438.586 94.9272L438.489 96.093C436.499 95.7729 434.574 95.135 432.786 94.2037C428.869 92.2018 424.196 88.1578 421.083 80.3593C419.338 76.2349 418.469 70.3016 418.461 63.4758C418.49 56.2545 419.392 49.0631 421.147 42.058C421.244 42.2326 421.383 42.3801 421.552 42.4868C421.721 42.5936 421.913 42.6563 422.113 42.669Z" fill="black"/>
<path d="M439.301 140.416C437.58 139.623 435.984 138.583 434.564 137.329C434.564 136.123 434.507 134.917 434.467 133.831C436.079 135.698 438.073 137.198 440.315 138.229C443.408 139.584 446.759 140.248 450.136 140.175C462.603 140.175 470.647 136.871 475.746 133.341C475.682 134.298 475.625 135.303 475.553 136.348C470.027 139.733 461.879 142.595 450.136 142.587C446.409 142.662 442.711 141.921 439.301 140.416Z" fill="black"/>
<path d="M476.414 122.897C476.414 122.961 476.414 123.042 476.414 123.114C475.103 122.543 473.832 121.973 472.794 121.45C472.208 121.159 471.638 120.834 471.089 120.477C470.865 120.328 470.655 120.159 470.462 119.971C470.354 119.863 470.257 119.744 470.172 119.617C470.049 119.428 469.969 119.214 469.939 118.99C469.565 115.949 469.385 112.888 469.4 109.825C469.507 102.961 470.044 96.1113 471.009 89.3152L471.322 89.4921L471.178 90.1111V90.3041C471.178 90.6498 471.129 91.2367 471.105 92.0407C471.081 92.8446 471.057 93.8657 471.033 95.0234C470.985 97.3228 470.936 100.169 470.896 102.934C470.808 108.466 470.735 113.7 470.735 113.7C470.734 113.977 470.827 114.247 470.999 114.465C471.172 114.683 471.413 114.835 471.684 114.898L471.982 114.97C472.054 116.12 472.159 117.253 472.296 118.379L472.368 118.435C472.735 118.683 473.116 118.908 473.51 119.11C474.314 119.545 475.416 120.051 476.575 120.558C476.534 120.943 476.486 121.731 476.414 122.897Z" fill="black"/>
<path d="M473.156 111.143C473.156 109.535 473.204 107.372 473.245 105.017C473.317 100.314 473.405 94.9029 473.486 92.1131C473.486 91.3976 473.526 90.8589 473.55 90.5695L473.896 89.1223C473.964 88.84 473.928 88.5429 473.795 88.2848C473.662 88.0267 473.441 87.8247 473.172 87.7154C471.825 87.1669 470.738 86.1262 470.132 84.805C469.327 83.1971 468.78 80.8334 468.78 77.4165C468.78 76.5857 468.813 75.6933 468.877 74.7393C469.255 69.4572 469.448 64.8263 469.448 60.8707C469.481 57.8967 469.32 54.9237 468.965 51.9708C468.778 49.9506 468.233 47.9798 467.357 46.15C466.894 45.2152 466.148 44.45 465.225 43.9632C464.702 43.7079 464.127 43.5759 463.544 43.5773C462.792 43.5945 462.052 43.7698 461.372 44.0918C460.584 44.4586 459.841 44.9174 459.161 45.4586C457.257 46.9194 455.852 48.9329 455.139 51.2231C454.646 52.9786 454.32 54.7768 454.166 56.5936C454.105 57.3409 453.934 58.075 453.659 58.7724C453.586 58.9509 453.463 59.1045 453.305 59.2146C453.062 59.358 452.781 59.4226 452.501 59.3995C451.972 59.3848 451.448 59.3038 450.94 59.1583C449.061 58.6013 447.338 57.616 445.905 56.2801C443.986 54.5456 442.356 52.5153 441.079 50.2663C438.175 45.2737 436.108 38.3675 436.116 29.9902C436.119 28.0268 436.226 26.065 436.438 24.1131C436.465 23.8592 436.411 23.6032 436.284 23.382C436.156 23.1607 435.962 22.9856 435.728 22.8819C435.495 22.7782 435.234 22.7513 434.985 22.8049C434.735 22.8586 434.509 22.9901 434.338 23.1805C427.767 30.4967 424.389 35.1838 422.683 37.9173C422.424 36.1389 422.292 34.3441 422.289 32.5468C422.21 27.5456 423.391 22.6048 425.724 18.1798C428.418 13.2997 433.027 8.73312 441.006 5.72627C446.436 3.61529 452.201 2.49346 458.026 2.4139C462.306 2.36243 466.55 3.1831 470.502 4.82582C474.585 6.58561 478.175 9.31834 480.958 12.7851C487.031 20.2058 491.069 32.2976 491.069 50.7246C491.036 57.4459 490.584 64.1586 489.718 70.8239C489.679 71.1389 489.766 71.4563 489.959 71.7083C494.116 76.9203 497.672 82.5838 500.56 88.5917C502.74 93.4155 503.657 97.3711 503.657 100.603C503.71 102.808 503.189 104.988 502.145 106.93C501.155 108.662 499.744 110.117 498.043 111.159C494.576 113.378 489.701 114.375 484.594 114.375C482.646 114.371 480.7 114.234 478.77 113.965L473.14 112.743C473.14 112.325 473.148 111.754 473.156 111.143Z" fill="black"/>
<path d="M470.702 113.7C470.702 113.7 470.775 108.466 470.863 102.935C470.904 100.169 470.952 97.3068 471 95.0236C471 93.8658 471.048 92.8528 471.072 92.0408C471.097 91.2288 471.121 90.6499 471.145 90.3042V90.1113L471.29 89.4922L470.976 89.3153C469.673 88.4757 468.627 87.2935 467.952 85.8985C466.906 83.8403 466.343 81.0746 466.343 77.4166C466.343 76.5241 466.343 75.5755 466.448 74.5705C466.818 69.3286 467.011 64.7459 467.011 60.903C467.011 55.7013 466.649 51.7457 465.933 49.2454C465.724 48.3004 465.318 47.4101 464.742 46.6325C464.579 46.4348 464.376 46.2733 464.147 46.1581C463.953 46.0594 463.738 46.0098 463.52 46.0134C463.106 46.0289 462.7 46.1331 462.329 46.3189C461.721 46.6068 461.148 46.9657 460.624 47.3882C459.285 48.4077 458.257 49.7804 457.656 51.3518C457.265 52.4058 456.995 53.5009 456.852 54.6159C456.731 55.4199 456.651 56.2238 456.546 57.0278C456.482 57.5883 456.383 58.1442 456.248 58.692C456.068 59.5053 455.667 60.2534 455.09 60.8547C454.754 61.1779 454.354 61.4271 453.916 61.5863C453.449 61.7404 452.96 61.8165 452.468 61.8114C451.733 61.7968 451.004 61.6888 450.296 61.4899C448.07 60.8372 446.024 59.6788 444.32 58.1051C438.585 53.0321 433.751 43.1754 433.743 30.0063C433.743 29.2023 433.743 28.3421 433.799 27.4979C430.783 30.8827 427.986 34.457 425.426 38.1988C424.903 39.0028 424.517 39.6138 424.211 40.1363C423.994 40.5142 423.817 40.8358 423.689 41.085C423.56 41.3343 423.439 41.5915 423.391 41.7121L423.335 41.8408C423.262 42.055 423.13 42.2443 422.955 42.3869C422.779 42.5294 422.567 42.6194 422.342 42.6463C422.117 42.6732 421.89 42.636 421.685 42.539C421.481 42.4419 421.308 42.2891 421.187 42.098C421.119 42.0001 421.067 41.8914 421.034 41.7765C420.281 38.7582 419.908 35.6576 419.924 32.5469C419.848 27.1386 421.131 21.7977 423.656 17.0141C426.6 11.6596 431.74 6.64286 440.202 3.46717C445.889 1.26045 451.926 0.0869803 458.026 0.00204915C462.631 -0.0485304 467.199 0.837726 471.451 2.60692C477.797 5.31631 483.363 10.3331 487.264 18.1718C491.165 26.0106 493.49 36.6632 493.49 50.7247C493.456 57.3672 493.018 64.0015 492.179 70.5908C496.324 75.8364 499.874 81.5259 502.764 87.5546C505.048 92.5795 506.078 96.8727 506.078 100.563C506.125 103.196 505.49 105.797 504.236 108.112C502.386 111.225 499.516 113.603 496.112 114.841C492.435 116.202 488.537 116.865 484.618 116.795C482.546 116.791 480.476 116.646 478.424 116.361H478.336L471.981 114.97L471.668 114.906C471.393 114.847 471.146 114.694 470.97 114.475C470.795 114.255 470.7 113.981 470.702 113.7ZM478.746 113.973C480.676 114.242 482.621 114.379 484.569 114.383C489.677 114.383 494.551 113.378 498.018 111.167C499.72 110.125 501.13 108.67 502.12 106.938C503.18 104.987 503.71 102.791 503.657 100.571C503.657 97.3551 502.74 93.3352 500.56 88.5596C497.672 82.5518 494.115 76.8882 489.959 71.6762C489.766 71.4242 489.679 71.1068 489.717 70.7918C490.584 64.1265 491.035 57.4138 491.069 50.6925C491.069 32.2655 487.047 20.1416 480.958 12.7531C478.175 9.28625 474.585 6.55352 470.501 4.79372C466.55 3.151 462.305 2.33034 458.026 2.38181C452.21 2.47033 446.457 3.59755 441.038 5.71025C433.059 8.71711 428.45 13.2837 425.756 18.1638C423.423 22.5888 422.242 27.5296 422.321 32.5308C422.324 34.3281 422.455 36.1229 422.715 37.9013C424.42 35.1678 427.799 30.4806 434.37 23.1645C434.541 22.9713 434.77 22.838 435.023 22.7845C435.276 22.7309 435.539 22.7598 435.774 22.8669C436.009 22.974 436.203 23.1537 436.329 23.3795C436.454 23.6052 436.503 23.8652 436.47 24.1212C436.258 26.0731 436.151 28.0349 436.148 29.9983C436.148 38.3757 438.207 45.2737 441.111 50.2744C442.388 52.5234 444.017 54.5537 445.937 56.2882C447.36 57.613 449.069 58.5924 450.932 59.1503C451.44 59.2958 451.964 59.3768 452.492 59.3915C452.773 59.4147 453.054 59.35 453.296 59.2066C453.455 59.0965 453.578 58.9429 453.65 58.7644C453.926 58.0671 454.097 57.3329 454.157 56.5856C454.299 54.7728 454.611 52.9774 455.09 51.2231C455.804 48.9329 457.208 46.9194 459.112 45.4586C459.793 44.9175 460.535 44.4587 461.324 44.0919C462.004 43.7699 462.744 43.5946 463.496 43.5774C464.078 43.5759 464.653 43.708 465.177 43.9633C466.099 44.4501 466.845 45.2153 467.308 46.1501C468.185 47.9799 468.729 49.9507 468.917 51.9708C469.272 54.9238 469.433 57.8968 469.399 60.8708C469.399 64.8263 469.206 69.4572 468.828 74.7393C468.764 75.6987 468.732 76.5911 468.732 77.4166C468.732 80.8334 469.279 83.2132 470.083 84.8051C470.69 86.1263 471.777 87.167 473.124 87.7154C473.393 87.8247 473.614 88.0267 473.746 88.2849C473.879 88.543 473.915 88.8401 473.847 89.1224L473.502 90.5695C473.502 90.859 473.461 91.3735 473.437 92.1132C473.357 94.903 473.268 100.314 473.196 105.017C473.156 107.373 473.124 109.551 473.107 111.143C473.107 111.786 473.107 112.325 473.107 112.751L478.746 113.973Z" fill="black"/>
<path d="M413.764 288.628C413.697 290.169 414.038 291.7 414.753 293.066C415.613 294.448 416.642 295.718 417.818 296.845C419.158 298.16 420.585 299.385 422.089 300.511C423.062 301.242 424.075 301.95 425.089 302.617L414.632 334.728C414.585 334.88 414.568 335.041 414.583 335.2C414.598 335.359 414.644 335.513 414.719 335.654C414.794 335.796 414.896 335.921 415.019 336.022C415.142 336.124 415.284 336.201 415.437 336.247L431.765 341.554C432.046 360.978 432.215 380.988 432.215 401.281C432.215 474.233 430.076 550.82 423.681 616.697C401.103 616.343 383.03 613.168 369.131 608.513C354.998 603.785 345.177 597.538 339.273 591.276C335.332 587.095 333.144 582.93 332.509 579.216C332.404 578.448 332.345 577.675 332.332 576.9C332.332 575.783 332.267 574.344 332.267 572.615C332.267 554.429 334.6 504.278 338.59 444.961C339.313 434.115 340.102 422.956 340.93 411.644C341.735 412.962 342.257 413.67 342.265 413.686C342.365 413.834 342.497 413.958 342.651 414.049C342.805 414.14 342.978 414.195 343.156 414.21C343.334 414.226 343.513 414.201 343.681 414.138C343.848 414.075 344 413.976 344.123 413.847C344.123 413.847 345.539 412.392 347.63 409.899C349.684 414.5 352.105 418.928 354.87 423.141L348.628 423.993C348.308 424.037 348.018 424.206 347.823 424.463C347.628 424.72 347.542 425.044 347.586 425.364C347.63 425.684 347.799 425.973 348.056 426.168C348.313 426.363 348.638 426.449 348.958 426.405L357.966 425.175C358.166 425.146 358.354 425.066 358.513 424.942C358.735 424.877 358.952 424.799 359.165 424.708C359.862 424.386 360.505 423.957 361.071 423.438C362.299 422.242 363.316 420.848 364.079 419.314C365.918 415.561 367.309 411.605 368.222 407.528C369.509 401.976 370.454 396.351 371.053 390.684L373.466 377.941C373.507 377.782 373.515 377.616 373.489 377.454C373.463 377.292 373.405 377.136 373.317 376.997C373.229 376.858 373.113 376.739 372.977 376.646C372.842 376.554 372.688 376.49 372.527 376.458C372.365 376.427 372.199 376.429 372.039 376.464C371.878 376.5 371.726 376.567 371.593 376.663C371.459 376.759 371.347 376.881 371.262 377.022C371.178 377.163 371.123 377.32 371.101 377.483L369.267 386.978L365.069 379.236C365.527 377.628 365.921 376.02 366.219 374.412C366.235 374.305 366.235 374.197 366.219 374.09C364.691 356.95 362.696 344.569 361.087 333.988C359.478 323.408 358.264 314.693 358.264 304.7C358.286 300.036 358.555 295.378 359.068 290.743C361.682 265.819 365.503 236.394 366.412 229.432C366.541 228.435 366.613 227.896 366.613 227.896C366.647 227.632 366.593 227.365 366.459 227.135C366.325 226.905 366.119 226.726 365.873 226.626L404.482 131.5L413.788 175.815L395.288 246.42C395.232 246.631 395.234 246.853 395.295 247.063C395.356 247.272 395.473 247.461 395.634 247.609L420.568 271.013C418.889 273.061 417.49 275.324 416.41 277.742C414.805 281.156 413.905 284.859 413.764 288.628ZM422.346 350.671C421.679 350.669 421.026 350.866 420.471 351.235C419.915 351.605 419.482 352.131 419.226 352.746C418.97 353.362 418.902 354.04 419.032 354.695C419.162 355.349 419.483 355.95 419.955 356.421C420.427 356.893 421.028 357.214 421.682 357.344C422.337 357.473 423.015 357.406 423.631 357.15C424.248 356.894 424.774 356.461 425.144 355.906C425.513 355.351 425.71 354.698 425.708 354.031C425.71 353.589 425.625 353.15 425.457 352.74C425.289 352.331 425.042 351.958 424.729 351.645C424.417 351.331 424.045 351.082 423.636 350.912C423.227 350.742 422.789 350.655 422.346 350.655V350.671ZM418.976 393.514C418.976 394.181 419.173 394.832 419.544 395.386C419.914 395.94 420.44 396.372 421.056 396.627C421.672 396.882 422.35 396.948 423.004 396.818C423.657 396.688 424.258 396.367 424.729 395.896C425.2 395.425 425.521 394.825 425.651 394.172C425.781 393.518 425.715 392.841 425.46 392.225C425.205 391.61 424.773 391.084 424.218 390.713C423.664 390.343 423.013 390.146 422.346 390.146C421.904 390.145 421.467 390.231 421.059 390.398C420.65 390.566 420.279 390.813 419.966 391.124C419.653 391.436 419.405 391.806 419.235 392.213C419.065 392.62 418.977 393.057 418.976 393.498V393.514ZM425.708 439.992C425.71 439.325 425.513 438.673 425.144 438.117C424.774 437.562 424.248 437.129 423.631 436.873C423.015 436.617 422.337 436.55 421.682 436.68C421.028 436.809 420.427 437.13 419.955 437.602C419.483 438.074 419.162 438.675 419.032 439.329C418.902 439.983 418.97 440.661 419.226 441.277C419.482 441.893 419.915 442.419 420.471 442.788C421.026 443.158 421.679 443.354 422.346 443.353C422.789 443.353 423.227 443.265 423.636 443.095C424.045 442.925 424.417 442.676 424.729 442.363C425.042 442.049 425.289 441.677 425.457 441.267C425.625 440.857 425.71 440.419 425.708 439.976V439.992ZM418.019 489.621C418.686 489.623 419.339 489.426 419.894 489.057C420.449 488.687 420.883 488.161 421.139 487.545C421.395 486.93 421.462 486.252 421.333 485.597C421.203 484.943 420.882 484.342 420.41 483.871C419.938 483.399 419.337 483.078 418.682 482.948C418.028 482.819 417.349 482.886 416.733 483.142C416.117 483.398 415.591 483.831 415.221 484.386C414.851 484.941 414.655 485.594 414.656 486.261C414.656 487.152 415.011 488.007 415.641 488.637C416.272 489.267 417.127 489.621 418.019 489.621Z" fill="white"/>
<path d="M418.493 121.338L414.994 122.142C416.257 121.796 417.431 121.531 418.493 121.338Z" fill="black"/>
<path d="M402.173 127.882L402.913 127.432C403.13 127.295 403.347 127.182 403.564 127.054L403.621 127.327C403.138 127.504 402.655 127.697 402.173 127.882Z" fill="black"/>
<path d="M340.954 411.636C340.15 422.948 339.345 434.147 338.613 444.952C334.592 504.237 332.291 554.421 332.291 572.607C332.291 574.336 332.291 575.775 332.355 576.892C332.369 577.667 332.428 578.44 332.532 579.208C333.168 582.898 335.356 587.062 339.297 591.267C345.201 597.53 355.022 603.777 369.154 608.504C383.053 613.159 401.127 616.335 423.705 616.689C430.099 550.827 432.239 474.225 432.239 401.273C432.239 380.98 432.07 360.969 431.789 341.545L434.202 342.349C434.483 361.524 434.644 381.27 434.644 401.289C434.644 474.699 432.48 551.808 425.997 618.048C425.967 618.347 425.826 618.625 425.601 618.826C425.376 619.027 425.084 619.137 424.783 619.133C393.703 618.787 370.892 613.143 355.368 605.465C352.674 604.142 350.058 602.666 347.533 601.044C346.649 600.473 345.812 599.902 345 599.323C342.308 597.427 339.808 595.273 337.535 592.891C333.353 588.461 330.9 583.919 330.143 579.618C330.023 578.743 329.953 577.863 329.934 576.981C329.934 575.815 329.87 574.352 329.87 572.607C329.87 559.559 331.052 530.447 333.168 493.368C334.624 467.833 336.53 438.529 338.798 408.146C339.659 409.602 340.391 410.775 340.954 411.636Z" fill="black"/>
<path d="M470.993 240.623C471.266 234.859 471.644 228.475 472.167 221.464C474.95 184.064 478.248 132.143 478.875 122.125L504.26 133.172L487.578 186.572C487.529 186.741 487.515 186.919 487.538 187.095L495.581 248.622L470.993 240.623Z" fill="white"/>
<path d="M506.271 134.836L489.959 187.038L498.123 249.451L495.581 248.647L487.538 187.119C487.515 186.944 487.528 186.766 487.578 186.596L504.26 133.196L478.875 122.15C478.248 132.167 474.95 184.056 472.167 221.489C471.644 228.499 471.266 234.883 470.992 240.647L468.579 239.843C468.633 238.771 468.689 237.699 468.748 236.627C469 231.895 469.327 226.781 469.73 221.288C471.274 200.529 472.947 175.268 474.298 155.209C474.757 148.134 475.175 141.71 475.521 136.356C475.593 135.311 475.65 134.306 475.714 133.349C475.786 132.248 475.851 131.194 475.915 130.214C476.108 127.223 476.261 124.819 476.365 123.123C476.365 123.05 476.365 122.97 476.365 122.906C476.438 121.74 476.486 120.952 476.51 120.558V120.268C476.523 120.076 476.581 119.889 476.681 119.724C476.781 119.558 476.919 119.419 477.084 119.319C477.249 119.218 477.435 119.158 477.628 119.144C477.821 119.13 478.014 119.163 478.191 119.239L485.334 122.351L498.268 127.979L506.142 131.404C506.411 131.527 506.626 131.742 506.748 132.011C506.871 132.28 506.893 132.583 506.81 132.867L506.271 134.836Z" fill="black"/>
<path d="M536.812 288.628C535.702 278.418 534.051 268.273 531.865 258.238C530.329 251.621 528.503 245.624 526.235 241.29C526.13 241.088 525.97 240.92 525.774 240.806C525.577 240.692 525.352 240.637 525.125 240.647L522.068 144.17V144.042C528.833 146.944 535.879 152.885 542.828 161.504C549.955 170.348 556.993 181.965 563.621 195.914C572.653 214.928 580.93 238.267 587.751 264.742C587.567 264.908 587.438 265.127 587.382 265.368C587.326 265.61 587.345 265.863 587.437 266.093L536.812 288.628Z" fill="white"/>
<path d="M596.052 290.147C596.937 294.478 597.781 298.871 598.586 303.325C598.64 303.611 598.588 303.907 598.44 304.159C598.292 304.41 598.058 304.599 597.781 304.691L597.082 304.9C597.082 304.603 597.082 304.305 597.082 304.008C597.058 299.37 596.714 294.738 596.052 290.147Z" fill="black"/>
<path d="M589.666 265.16C589.605 265.01 589.515 264.873 589.401 264.759C589.286 264.644 589.15 264.553 589 264.492C588.85 264.43 588.69 264.399 588.528 264.401C588.366 264.403 588.206 264.437 588.057 264.501C587.929 264.555 587.812 264.631 587.711 264.726C580.914 238.251 572.638 214.88 563.581 195.898C556.953 181.949 549.907 170.324 542.788 161.488C535.839 152.869 528.793 146.928 522.028 144.026C521.859 143.953 521.698 143.873 521.53 143.809C521.233 143.687 520.997 143.453 520.873 143.157C520.75 142.862 520.748 142.529 520.87 142.233C520.992 141.936 521.226 141.7 521.522 141.577C521.817 141.453 522.15 141.452 522.447 141.573L522.551 141.622C529.991 144.701 537.415 150.988 544.671 159.976C555.594 173.523 566.147 193.245 575.429 217.645C582.099 235.419 587.631 253.598 591.99 272.074C590.671 267.765 589.617 265.192 589.577 265.16H589.666Z" fill="black"/>
<path d="M529.227 257.579C527.787 251.557 526.066 246.154 524.119 242.408C523.978 242.126 523.952 241.799 524.048 241.499C524.145 241.198 524.355 240.947 524.634 240.8C524.793 240.716 524.97 240.672 525.149 240.671C525.376 240.661 525.601 240.717 525.798 240.831C525.995 240.945 526.155 241.113 526.259 241.314C528.503 245.648 530.329 251.646 531.889 258.262C534.066 268.29 535.709 278.426 536.812 288.628H536.756C536.682 288.455 536.566 288.303 536.418 288.186C535.721 287.629 534.966 287.15 534.166 286.755C533.78 283.539 533.361 280.122 532.798 276.561C531.857 270.266 530.699 263.601 529.227 257.579Z" fill="black"/>
<path d="M447.336 274.157C445.522 272.278 443.46 270.655 441.207 269.333C440.403 268.907 439.639 268.465 438.883 268.022L449.275 236.097L522.47 259.902L515.022 282.799C509.713 282.389 503.954 282.221 498.187 282.221C478.505 282.221 458.919 284.086 458.903 284.086C458.728 284.103 458.559 284.157 458.408 284.246C458.256 284.335 458.126 284.456 458.026 284.6C458.026 284.6 457.728 285.034 457.262 285.822C456.779 285.171 456.224 284.432 455.605 283.636C453.059 280.299 450.297 277.132 447.336 274.157Z" fill="white"/>
<path d="M417.286 334.31L427.196 303.904C428.588 304.741 430.028 305.498 431.507 306.171C433.516 306.947 435.603 307.502 437.732 307.827C440.194 308.261 442.92 308.631 445.478 308.888C446.838 309.033 448.141 309.154 449.323 309.258C449.194 309.934 449.066 310.625 448.945 311.341C448.919 311.497 448.924 311.657 448.96 311.812C448.996 311.966 449.062 312.112 449.154 312.241C458.959 326.045 474.636 335.757 491.961 342.044C493.087 342.457 494.222 342.851 495.364 343.226L490.538 358.1L417.286 334.31Z" fill="white"/>
<path d="M435.915 342.896L434.209 342.342L431.796 341.538L415.42 336.215C415.267 336.169 415.125 336.092 415.002 335.99C414.879 335.889 414.777 335.764 414.702 335.622C414.628 335.481 414.581 335.327 414.567 335.168C414.552 335.009 414.568 334.848 414.616 334.696L425.072 302.585C425.78 303.052 426.48 303.494 427.179 303.904L417.286 334.31L490.481 358.116L495.307 343.242C496.072 343.499 496.836 343.741 497.608 343.982L492.388 360.005C492.342 360.158 492.266 360.301 492.164 360.424C492.063 360.548 491.938 360.65 491.796 360.725C491.655 360.8 491.5 360.846 491.34 360.86C491.181 360.875 491.02 360.857 490.868 360.809L453.345 348.605L451.004 347.841L435.915 342.896Z" fill="black"/>
<path d="M449.276 236.105L438.883 268.03C438.168 267.612 437.452 267.227 436.728 266.841L447.353 234.207C447.398 234.053 447.473 233.91 447.575 233.786C447.676 233.662 447.801 233.559 447.943 233.484C448.085 233.409 448.24 233.363 448.4 233.349C448.56 233.336 448.721 233.354 448.873 233.403L468.339 239.731L468.612 239.819L471.025 240.623L495.614 248.623L498.156 249.427L524.417 257.965C524.571 258.01 524.715 258.085 524.839 258.186C524.963 258.288 525.066 258.413 525.141 258.554C525.216 258.696 525.262 258.851 525.276 259.011C525.29 259.171 525.271 259.332 525.222 259.484L517.5 283L515.039 282.783L522.487 259.886L449.276 236.105Z" fill="black"/>
<path d="M368.567 390.95C368.567 391.311 368.47 391.834 368.382 392.501C368.221 393.828 367.972 395.717 367.626 397.872C366.879 402.841 365.763 407.748 364.288 412.552C363.478 415.343 362.238 417.99 360.612 420.399C359.996 421.291 359.166 422.015 358.199 422.506C357.961 422.604 357.712 422.676 357.459 422.723C354.43 418.194 351.805 413.408 349.617 408.42C349.536 408.219 349.464 408.026 349.391 407.833C350.727 406.153 352.223 404.175 353.767 401.948C358.035 395.927 361.494 389.373 364.055 382.452L368.583 390.733C368.575 390.821 368.575 390.877 368.567 390.95Z" fill="white"/>
<path d="M368.64 390.282C368.599 390.442 368.591 390.607 368.617 390.77C368.643 390.932 368.701 391.088 368.789 391.226C368.877 391.365 368.993 391.485 369.129 391.578C369.264 391.67 369.418 391.734 369.579 391.765C369.741 391.797 369.907 391.795 370.067 391.759C370.228 391.724 370.38 391.657 370.513 391.561C370.647 391.465 370.759 391.342 370.844 391.201C370.928 391.06 370.983 390.904 371.005 390.741V390.684C370.422 396.35 369.493 401.975 368.222 407.528C367.334 411.602 365.971 415.558 364.16 419.314C363.396 420.848 362.379 422.242 361.152 423.438C360.586 423.957 359.943 424.386 359.245 424.708C359.033 424.799 358.816 424.877 358.594 424.942C358.769 424.816 358.907 424.645 358.992 424.446C359.077 424.248 359.107 424.03 359.076 423.816C359.056 423.659 359.004 423.507 358.924 423.37C358.844 423.233 358.738 423.113 358.612 423.018C358.485 422.922 358.341 422.852 358.188 422.813C358.034 422.773 357.874 422.764 357.717 422.787L354.95 423.165C352.185 418.953 349.764 414.524 347.711 409.923C348.247 409.28 348.826 408.573 349.448 407.801C349.521 407.994 349.593 408.187 349.674 408.388C351.871 413.388 354.506 418.185 357.548 422.723C357.802 422.676 358.05 422.604 358.288 422.506C359.256 422.015 360.085 421.291 360.701 420.399C362.327 417.991 363.567 415.343 364.377 412.552C365.852 407.748 366.968 402.841 367.715 397.872C368.061 395.701 368.31 393.852 368.471 392.501C368.56 391.834 368.616 391.311 368.656 390.95C368.656 390.877 368.656 390.821 368.656 390.765L364.128 382.42C364.498 381.366 364.836 380.305 365.149 379.204L369.348 386.946L368.64 390.282Z" fill="black"/>
<path d="M365.559 226.513C365.245 226.469 364.926 226.551 364.672 226.741C364.417 226.93 364.248 227.213 364.2 227.526C364.2 227.526 359.639 261.912 356.639 290.437C356.121 295.155 355.853 299.897 355.835 304.643C355.835 314.805 357.073 323.705 358.69 334.294C360.307 344.882 362.269 357.111 363.782 374.074C362.02 383.617 356.969 392.871 352.207 399.85C349.526 403.777 346.587 407.521 343.408 411.057C343.207 410.752 342.981 410.39 342.716 409.972C341.743 408.428 340.303 406.145 338.654 403.218C334.127 395.264 330.035 387.07 326.396 378.673C317.419 358.083 308.459 330.057 308.467 300.358C308.446 291.999 309.2 283.655 310.719 275.435C315.538 249.942 324.029 225.283 335.927 202.225C347.373 180.124 361.32 161.15 376.144 147.732C385.298 139.435 394.773 133.26 404.16 129.763L404.53 131.516L365.921 226.642C365.808 226.581 365.686 226.537 365.559 226.513Z" fill="white"/>
<path d="M404.119 129.715C394.732 133.228 385.257 139.362 376.104 147.684C361.288 161.102 347.34 180.076 335.887 202.177C323.988 225.234 315.497 249.894 310.678 275.387C309.16 283.607 308.406 291.95 308.426 300.31C308.426 330.008 317.379 358.035 326.355 378.625C330.016 387.037 334.132 395.245 338.686 403.21C340.367 406.137 341.774 408.42 342.748 409.964C343.013 410.382 343.238 410.767 343.439 411.049C346.619 407.513 349.558 403.769 352.239 399.841C357.001 392.863 362.052 383.609 363.813 374.066C362.301 357.102 360.323 344.842 358.722 334.286C357.121 323.729 355.866 314.797 355.866 304.635C355.885 299.889 356.153 295.147 356.671 290.429C359.647 261.936 364.199 227.526 364.199 227.526C364.242 227.21 364.407 226.923 364.661 226.728C364.914 226.534 365.234 226.448 365.551 226.489C365.653 226.503 365.753 226.53 365.848 226.569C366.095 226.67 366.301 226.849 366.434 227.079C366.568 227.308 366.622 227.576 366.588 227.84C366.588 227.84 366.516 228.378 366.387 229.375C365.478 236.338 361.658 265.771 359.044 290.686C358.53 295.321 358.262 299.98 358.239 304.643C358.239 314.604 359.454 323.352 361.063 333.932C362.671 344.512 364.666 356.893 366.194 374.034C366.21 374.141 366.21 374.249 366.194 374.356C365.897 375.963 365.503 377.571 365.044 379.179C364.73 380.249 364.393 381.31 364.023 382.395C361.467 389.324 358.01 395.887 353.743 401.916C352.199 404.143 350.703 406.12 349.367 407.801C348.751 408.573 348.172 409.28 347.63 409.923C345.539 412.416 344.139 413.855 344.123 413.871C343.999 414 343.848 414.099 343.68 414.162C343.513 414.225 343.334 414.25 343.156 414.234C342.977 414.219 342.805 414.164 342.651 414.073C342.497 413.982 342.365 413.858 342.265 413.71C342.265 413.71 341.774 412.986 340.93 411.668C340.367 410.775 339.635 409.602 338.774 408.171C333.283 398.979 328.39 389.443 324.127 379.622C315.07 358.831 305.997 330.523 305.997 300.342C305.986 291.828 306.761 283.332 308.314 274.96C314.821 240.092 328.664 206.518 346.118 179.907C354.837 166.593 364.449 155.024 374.511 145.907C383.48 137.787 392.81 131.604 402.197 127.898C402.679 127.713 403.162 127.52 403.645 127.343L404.119 129.715Z" fill="black"/>
<path d="M430.96 265.144C429.747 265.153 428.546 265.39 427.421 265.843C426.033 266.412 424.733 267.175 423.56 268.111C423.118 268.456 422.683 268.834 422.265 269.228L397.853 246.307L416.208 176.12C416.253 175.938 416.253 175.748 416.208 175.565L405.945 126.692L431.33 120.863C431.411 121.45 431.483 122.23 431.555 123.17C431.7 125.052 431.829 127.576 431.941 130.615C432.167 136.677 432.327 144.757 432.448 153.778C432.697 171.819 432.802 193.615 432.979 210.627C433.092 221.971 433.236 231.184 433.478 235.791C433.767 241.169 433.864 247.457 433.864 253.631C433.864 257.747 433.824 261.824 433.759 265.546C432.85 265.278 431.908 265.142 430.96 265.144Z" fill="white"/>
<path d="M433.638 119.963C433.703 120.348 433.767 120.815 433.823 121.345C433.88 121.876 433.92 122.318 433.96 122.889C434.169 125.486 434.33 129.24 434.467 133.831C434.507 134.949 434.539 136.122 434.563 137.328C434.636 139.998 434.692 142.884 434.748 145.939C435.022 161.15 435.142 180.51 435.279 197.586C435.416 214.662 435.577 229.536 435.899 235.686C436.188 241.129 436.285 247.448 436.285 253.655C436.285 258.133 436.236 262.555 436.164 266.519C435.389 266.126 434.582 265.8 433.751 265.546C433.815 261.823 433.856 257.747 433.856 253.631C433.856 247.456 433.759 241.169 433.469 235.791C433.228 231.184 433.083 221.971 432.971 210.627C432.794 193.614 432.689 171.819 432.44 153.778C432.319 144.757 432.158 136.677 431.933 130.615C431.821 127.576 431.692 125.052 431.547 123.17C431.475 122.23 431.402 121.45 431.322 120.863L405.937 126.692L416.2 175.565C416.245 175.748 416.245 175.938 416.2 176.12L397.845 246.307L422.257 269.228C421.687 269.78 421.149 270.365 420.648 270.981L395.713 247.577C395.553 247.429 395.436 247.24 395.375 247.03C395.314 246.821 395.311 246.598 395.368 246.387L413.868 175.782L404.561 131.467L404.191 129.715L403.693 127.303L403.636 127.029L403.419 126.008C403.36 125.714 403.414 125.408 403.568 125.151C403.723 124.894 403.968 124.704 404.256 124.618L414.994 122.149L418.493 121.345L431.998 118.242C432.269 118.18 432.554 118.215 432.803 118.342C433.051 118.468 433.247 118.677 433.357 118.933C433.359 118.955 433.359 118.976 433.357 118.998C433.483 119.309 433.577 119.632 433.638 119.963Z" fill="black"/>
<path d="M369.597 391.698C369.44 391.669 369.291 391.609 369.158 391.522C369.025 391.435 368.91 391.322 368.821 391.191C368.732 391.059 368.67 390.911 368.639 390.755C368.608 390.599 368.608 390.438 368.639 390.283L369.275 386.978L371.109 377.483C371.13 377.32 371.185 377.164 371.27 377.023C371.354 376.882 371.467 376.759 371.6 376.663C371.734 376.567 371.886 376.5 372.046 376.465C372.207 376.429 372.373 376.427 372.534 376.459C372.696 376.49 372.849 376.554 372.985 376.646C373.121 376.739 373.236 376.859 373.324 376.998C373.412 377.136 373.471 377.292 373.496 377.454C373.522 377.617 373.514 377.782 373.474 377.942L371.061 390.685V390.741C371.032 390.902 370.971 391.056 370.881 391.193C370.79 391.33 370.673 391.447 370.536 391.536C370.399 391.626 370.245 391.687 370.083 391.714C369.921 391.742 369.756 391.736 369.597 391.698Z" fill="black"/>
<path d="M357.684 422.787C357.841 422.764 358.001 422.773 358.155 422.813C358.308 422.852 358.453 422.922 358.579 423.018C358.705 423.113 358.812 423.233 358.891 423.37C358.971 423.507 359.023 423.659 359.044 423.816C359.074 424.03 359.045 424.248 358.96 424.446C358.874 424.645 358.737 424.816 358.561 424.942C358.402 425.066 358.214 425.146 358.014 425.175L349.005 426.405C348.685 426.449 348.361 426.363 348.104 426.168C347.847 425.973 347.678 425.684 347.634 425.364C347.59 425.044 347.675 424.72 347.871 424.463C348.066 424.206 348.356 424.037 348.676 423.993L354.917 423.141L357.684 422.787Z" fill="black"/>
<path d="M422.346 353.067C422.536 353.067 422.721 353.123 422.879 353.229C423.036 353.334 423.159 353.484 423.231 353.659C423.303 353.835 423.322 354.027 423.284 354.213C423.247 354.399 423.155 354.57 423.02 354.703C422.885 354.836 422.714 354.927 422.528 354.963C422.342 354.999 422.149 354.979 421.974 354.905C421.799 354.832 421.65 354.708 421.546 354.549C421.442 354.391 421.387 354.205 421.389 354.016C421.389 353.89 421.414 353.766 421.462 353.651C421.51 353.535 421.581 353.43 421.67 353.342C421.759 353.254 421.864 353.184 421.98 353.137C422.097 353.09 422.221 353.066 422.346 353.067Z" fill="black"/>
<path d="M422.346 357.384C421.679 357.386 421.027 357.189 420.471 356.82C419.916 356.451 419.483 355.925 419.226 355.31C418.97 354.695 418.902 354.017 419.031 353.363C419.161 352.709 419.481 352.108 419.952 351.636C420.423 351.164 421.023 350.843 421.677 350.712C422.331 350.581 423.009 350.648 423.626 350.902C424.242 351.157 424.769 351.589 425.14 352.143C425.51 352.697 425.708 353.349 425.708 354.015C425.708 354.907 425.354 355.763 424.724 356.395C424.093 357.026 423.238 357.382 422.346 357.384ZM422.346 354.972C422.535 354.972 422.72 354.916 422.878 354.811C423.035 354.706 423.158 354.556 423.23 354.381C423.303 354.207 423.322 354.014 423.285 353.829C423.248 353.643 423.157 353.473 423.023 353.339C422.889 353.205 422.718 353.114 422.533 353.077C422.347 353.04 422.154 353.059 421.98 353.131C421.805 353.204 421.655 353.327 421.55 353.484C421.445 353.641 421.389 353.826 421.389 354.015C421.388 354.141 421.412 354.266 421.459 354.383C421.507 354.499 421.578 354.605 421.667 354.694C421.756 354.783 421.862 354.854 421.978 354.901C422.095 354.949 422.22 354.973 422.346 354.972Z" fill="black"/>
<path d="M422.346 392.542C422.535 392.542 422.72 392.598 422.878 392.703C423.035 392.808 423.158 392.958 423.23 393.133C423.303 393.307 423.322 393.5 423.285 393.685C423.248 393.871 423.157 394.041 423.023 394.175C422.889 394.309 422.718 394.4 422.533 394.437C422.347 394.474 422.155 394.455 421.98 394.383C421.805 394.31 421.655 394.188 421.55 394.03C421.445 393.873 421.389 393.688 421.389 393.499C421.388 393.373 421.412 393.248 421.46 393.131C421.507 393.015 421.578 392.909 421.667 392.82C421.756 392.731 421.862 392.66 421.978 392.613C422.095 392.565 422.22 392.541 422.346 392.542Z" fill="black"/>
<path d="M422.346 390.13C423.012 390.13 423.664 390.327 424.218 390.697C424.772 391.068 425.204 391.594 425.459 392.209C425.714 392.825 425.781 393.502 425.651 394.155C425.521 394.809 425.2 395.409 424.729 395.88C424.257 396.351 423.657 396.672 423.003 396.802C422.349 396.932 421.672 396.865 421.056 396.611C420.44 396.356 419.914 395.924 419.543 395.37C419.173 394.816 418.975 394.165 418.975 393.498C418.974 393.056 419.061 392.617 419.23 392.208C419.399 391.799 419.647 391.427 419.96 391.114C420.273 390.801 420.645 390.553 421.055 390.384C421.464 390.215 421.903 390.129 422.346 390.13ZM422.346 394.447C422.535 394.447 422.721 394.391 422.878 394.285C423.036 394.18 423.158 394.03 423.231 393.854C423.303 393.679 423.321 393.486 423.284 393.301C423.246 393.115 423.154 392.944 423.02 392.811C422.885 392.677 422.714 392.587 422.527 392.551C422.341 392.515 422.148 392.535 421.974 392.609C421.799 392.682 421.65 392.806 421.546 392.965C421.442 393.123 421.387 393.309 421.388 393.498C421.388 393.624 421.413 393.748 421.461 393.863C421.51 393.979 421.58 394.084 421.669 394.172C421.758 394.26 421.864 394.33 421.98 394.377C422.096 394.424 422.22 394.448 422.346 394.447Z" fill="black"/>
<path d="M422.346 439.019C422.535 439.019 422.72 439.075 422.878 439.18C423.035 439.285 423.158 439.435 423.23 439.61C423.303 439.785 423.322 439.977 423.285 440.162C423.248 440.348 423.157 440.518 423.023 440.652C422.889 440.786 422.718 440.877 422.533 440.914C422.347 440.951 422.155 440.932 421.98 440.86C421.805 440.787 421.655 440.665 421.55 440.507C421.445 440.35 421.389 440.165 421.389 439.976C421.388 439.85 421.412 439.725 421.46 439.608C421.507 439.492 421.578 439.386 421.667 439.297C421.756 439.208 421.862 439.137 421.978 439.09C422.095 439.042 422.22 439.018 422.346 439.019Z" fill="black"/>
<path d="M418.975 439.976C418.974 439.31 419.17 438.658 419.539 438.102C419.909 437.547 420.435 437.114 421.05 436.858C421.666 436.602 422.344 436.534 422.998 436.663C423.652 436.792 424.254 437.113 424.726 437.583C425.198 438.054 425.52 438.654 425.65 439.308C425.781 439.962 425.715 440.639 425.46 441.255C425.205 441.871 424.773 442.398 424.219 442.768C423.664 443.139 423.013 443.337 422.346 443.337C421.903 443.338 421.465 443.252 421.057 443.083C420.648 442.915 420.276 442.667 419.963 442.355C419.65 442.043 419.402 441.672 419.232 441.264C419.063 440.856 418.975 440.418 418.975 439.976ZM422.346 440.925C422.535 440.925 422.721 440.869 422.878 440.763C423.036 440.658 423.158 440.508 423.231 440.332C423.303 440.157 423.321 439.964 423.284 439.779C423.246 439.593 423.154 439.422 423.02 439.289C422.885 439.155 422.714 439.065 422.527 439.029C422.341 438.993 422.148 439.013 421.974 439.087C421.799 439.16 421.65 439.284 421.546 439.442C421.442 439.601 421.387 439.787 421.388 439.976C421.388 440.101 421.413 440.225 421.461 440.341C421.51 440.457 421.58 440.562 421.669 440.65C421.758 440.738 421.864 440.808 421.98 440.855C422.096 440.902 422.22 440.926 422.346 440.925Z" fill="black"/>
<path d="M418.018 485.272C418.208 485.27 418.394 485.325 418.552 485.429C418.711 485.533 418.835 485.682 418.908 485.857C418.982 486.032 419.002 486.224 418.966 486.41C418.93 486.597 418.839 486.768 418.706 486.902C418.572 487.037 418.402 487.129 418.216 487.166C418.03 487.204 417.837 487.186 417.662 487.113C417.486 487.041 417.336 486.919 417.231 486.761C417.125 486.604 417.069 486.418 417.069 486.229C417.069 485.976 417.169 485.734 417.347 485.555C417.524 485.376 417.766 485.274 418.018 485.272Z" fill="black"/>
<path d="M418.018 482.86C418.685 482.858 419.338 483.054 419.893 483.424C420.448 483.793 420.881 484.318 421.138 484.934C421.394 485.549 421.462 486.227 421.333 486.881C421.204 487.535 420.883 488.136 420.412 488.607C419.941 489.079 419.341 489.401 418.687 489.532C418.033 489.662 417.355 489.596 416.738 489.341C416.122 489.087 415.595 488.655 415.225 488.101C414.854 487.547 414.656 486.895 414.656 486.228C414.656 485.336 415.01 484.481 415.64 483.849C416.271 483.218 417.126 482.862 418.018 482.86ZM418.018 487.177C418.208 487.179 418.394 487.124 418.553 487.019C418.712 486.915 418.836 486.765 418.909 486.59C418.982 486.415 419.002 486.222 418.965 486.036C418.929 485.849 418.837 485.678 418.703 485.544C418.569 485.41 418.397 485.318 418.211 485.282C418.025 485.245 417.831 485.265 417.656 485.338C417.481 485.411 417.332 485.535 417.227 485.694C417.123 485.852 417.067 486.038 417.069 486.228C417.065 486.356 417.086 486.482 417.132 486.601C417.178 486.72 417.247 486.829 417.335 486.92C417.424 487.012 417.53 487.084 417.647 487.134C417.765 487.184 417.891 487.209 418.018 487.209V487.177Z" fill="black"/>
<path d="M504.3 382.91C504.617 382.91 504.92 383.035 505.145 383.258C505.37 383.481 505.497 383.784 505.499 384.1C505.508 384.23 505.527 384.359 505.555 384.486C505.969 386.197 506.482 387.883 507.091 389.535C509.633 396.69 515.199 409.079 523.878 418.582C524.051 418.823 524.129 419.119 524.097 419.413C524.066 419.708 523.927 419.98 523.707 420.179C523.487 420.378 523.202 420.489 522.906 420.491C522.61 420.493 522.323 420.386 522.101 420.19C515.626 413.099 510.904 404.609 507.783 397.679C506.463 394.773 505.295 391.799 504.284 388.771C503.89 387.597 503.601 386.616 503.408 385.852C503.303 385.475 503.231 385.145 503.174 384.872C503.122 384.623 503.092 384.37 503.086 384.116C503.086 383.957 503.117 383.799 503.178 383.653C503.24 383.506 503.329 383.372 503.442 383.26C503.555 383.148 503.689 383.06 503.836 382.999C503.984 382.939 504.141 382.909 504.3 382.91Z" fill="black"/>
<path d="M440.717 98.8101L440.926 96.3982L444.948 96.6474C444.425 96.9771 443.83 97.3147 443.21 97.6363C442.35 98.0865 441.465 98.4724 440.717 98.8101Z" fill="black"/>
<path d="M439.896 93.89H440.129L447.851 94.3724C448.027 94.3838 448.198 94.4335 448.352 94.518C448.506 94.6025 448.64 94.7197 448.745 94.8614C448.849 95.0032 448.921 95.1659 448.955 95.3384C448.99 95.5108 448.987 95.6888 448.945 95.8597C448.802 96.3665 448.524 96.8249 448.141 97.1863C447.46 97.8383 446.701 98.4027 445.881 98.8666C444.579 99.6266 443.237 100.314 441.859 100.925C441.296 101.182 440.805 101.391 440.443 101.544L439.784 101.825C439.592 101.901 439.385 101.926 439.18 101.9C438.976 101.873 438.782 101.795 438.617 101.673C438.451 101.551 438.319 101.388 438.233 101.201C438.148 101.014 438.111 100.808 438.127 100.603L438.497 96.1733L438.593 95.0075C438.618 94.6866 438.769 94.3887 439.013 94.1791C439.258 93.9696 439.575 93.8656 439.896 93.89ZM444.948 96.6154L440.926 96.3662L440.717 98.7781C441.465 98.4405 442.325 98.0224 443.21 97.5722C443.829 97.2827 444.425 96.9451 444.948 96.6154Z" fill="black"/>
<path d="M438.159 305.463C436.22 305.177 434.319 304.678 432.489 303.976C427.715 301.751 423.336 298.764 419.523 295.132C418.489 294.152 417.584 293.044 416.828 291.836C416.341 290.837 416.117 289.73 416.177 288.62C416.331 285.184 417.173 281.813 418.654 278.707C420.223 275.234 422.483 271.978 425.024 270.032C426.018 269.238 427.117 268.586 428.29 268.095C429.136 267.752 430.039 267.572 430.952 267.564C432.443 267.624 433.898 268.035 435.199 268.762C436.679 269.502 438.264 270.515 440.074 271.48C441.977 272.589 443.729 273.94 445.286 275.499C447.172 277.339 448.96 279.277 450.643 281.304C452.887 283.973 454.817 286.53 456.024 288.186C453.185 294.136 451.097 300.414 449.806 306.878H449.324C445.978 306.557 441.723 306.107 438.159 305.463Z" fill="white"/>
<path d="M437.733 307.843C435.604 307.518 433.516 306.962 431.507 306.187C430.028 305.514 428.589 304.757 427.196 303.92C426.496 303.51 425.797 303.067 425.089 302.601C424.075 301.934 423.062 301.226 422.088 300.495C420.585 299.369 419.158 298.144 417.817 296.829C416.642 295.702 415.613 294.432 414.753 293.05C414.038 291.683 413.697 290.153 413.763 288.612C413.926 284.832 414.85 281.124 416.482 277.71C417.562 275.292 418.961 273.029 420.641 270.981C421.142 270.366 421.679 269.78 422.249 269.228C422.668 268.834 423.102 268.424 423.544 268.111C424.717 267.175 426.017 266.412 427.405 265.843C428.53 265.39 429.731 265.153 430.944 265.144C431.898 265.149 432.847 265.292 433.76 265.57C434.59 265.824 435.398 266.15 436.173 266.543L436.285 266.599C436.438 266.672 436.591 266.76 436.736 266.84C437.459 267.21 438.175 267.644 438.891 268.03C439.607 268.416 440.419 268.915 441.216 269.341C443.469 270.662 445.531 272.285 447.345 274.165C450.312 277.147 453.08 280.322 455.63 283.668C456.249 284.472 456.804 285.203 457.287 285.854C456.957 286.433 456.482 287.221 456.032 288.218C454.825 286.562 452.895 284.005 450.651 281.336C448.968 279.309 447.18 277.371 445.294 275.531C443.737 273.972 441.985 272.621 440.082 271.511C438.272 270.547 436.687 269.534 435.207 268.794C433.906 268.067 432.451 267.656 430.96 267.596C430.047 267.604 429.144 267.784 428.298 268.127C427.125 268.618 426.025 269.27 425.032 270.064C422.491 272.01 420.206 275.266 418.662 278.739C417.182 281.837 416.337 285.199 416.177 288.628C416.117 289.738 416.341 290.845 416.828 291.844C417.583 293.052 418.489 294.16 419.523 295.14C423.336 298.772 427.715 301.759 432.489 303.984C434.319 304.686 436.22 305.184 438.159 305.471C441.723 306.114 445.978 306.565 449.324 306.854H449.806C449.637 307.658 449.476 308.462 449.324 309.266C448.141 309.162 446.838 309.041 445.479 308.896C442.921 308.631 440.194 308.277 437.733 307.843Z" fill="black"/>
<path d="M587.446 266.117L587.502 266.262C587.55 266.391 587.631 266.583 587.727 266.841C587.92 267.355 588.202 268.119 588.532 269.108C589.207 271.07 590.14 273.932 591.017 277.389C593.329 286.074 594.545 295.014 594.637 304C594.637 315.119 592.473 326.986 585.877 337.212C584.476 339.209 582.624 340.847 580.472 341.996C577.595 343.614 574.525 344.861 571.335 345.71C564.152 347.736 554.991 348.83 544.888 348.83C527.137 348.788 509.521 345.738 492.791 339.809C475.899 333.699 460.834 324.301 451.415 311.268C454.021 296.419 458.542 288.379 459.724 286.458H460.013L462.491 286.216C464.63 286.04 467.679 285.815 471.339 285.581C478.666 285.115 488.439 284.649 498.204 284.649C504.172 284.649 510.132 284.826 515.529 285.276C520.215 285.573 524.859 286.329 529.396 287.535C531.375 288.033 533.241 288.901 534.898 290.092C535.107 290.267 535.369 290.367 535.642 290.373C535.915 290.379 536.182 290.292 536.399 290.126C536.616 289.96 536.769 289.725 536.834 289.46C536.899 289.195 536.872 288.916 536.756 288.669H536.812L587.446 266.117Z" fill="white"/>
<path d="M539.892 351.129C525.56 350.641 511.358 348.237 497.664 343.982C496.86 343.741 496.128 343.5 495.364 343.242C494.222 342.862 493.088 342.468 491.962 342.061C474.636 335.774 458.983 326.062 449.154 312.257C449.062 312.128 448.996 311.982 448.96 311.828C448.924 311.673 448.919 311.513 448.945 311.357C449.066 310.641 449.194 309.95 449.323 309.275C449.476 308.471 449.637 307.667 449.806 306.863C451.096 300.399 453.185 294.12 456.023 288.17C456.514 287.173 456.948 286.385 457.278 285.807C457.745 285.003 458.026 284.609 458.042 284.585C458.142 284.44 458.272 284.319 458.424 284.231C458.575 284.142 458.744 284.087 458.919 284.07C458.919 284.07 478.521 282.197 498.203 282.197C503.97 282.197 509.73 282.366 515.038 282.776L517.5 282.993C518.698 283.113 519.913 283.242 521.014 283.387C524.078 283.75 527.109 284.349 530.079 285.18C531.487 285.591 532.855 286.129 534.166 286.787C534.966 287.182 535.721 287.662 536.418 288.219C536.566 288.335 536.682 288.487 536.756 288.661C536.871 288.908 536.899 289.187 536.834 289.452C536.769 289.717 536.615 289.952 536.399 290.118C536.182 290.284 535.915 290.371 535.642 290.365C535.369 290.359 535.106 290.26 534.897 290.084C533.241 288.893 531.374 288.026 529.396 287.527C524.859 286.321 520.214 285.565 515.529 285.268C510.132 284.818 504.172 284.641 498.203 284.641C488.439 284.641 478.666 285.107 471.338 285.573C467.678 285.807 464.63 286.032 462.49 286.209L460.013 286.418H459.723C458.541 288.339 454.021 296.379 451.414 311.228C460.833 324.261 475.931 333.659 492.79 339.769C509.521 345.698 527.136 348.748 544.887 348.79C554.99 348.79 564.152 347.696 571.334 345.67C574.529 344.83 577.604 343.59 580.488 341.98C582.64 340.831 584.491 339.193 585.893 337.197C592.489 326.97 594.652 315.103 594.652 303.984C594.558 294.997 593.34 286.057 591.025 277.373C590.124 273.892 589.215 271.054 588.539 269.092C588.201 268.103 587.92 267.339 587.735 266.825C587.638 266.568 587.558 266.375 587.51 266.246L587.453 266.101C587.361 265.871 587.342 265.618 587.398 265.377C587.454 265.135 587.583 264.917 587.767 264.751C587.868 264.656 587.985 264.579 588.113 264.525C588.262 264.461 588.422 264.427 588.584 264.426C588.746 264.424 588.906 264.455 589.056 264.516C589.206 264.578 589.342 264.669 589.457 264.783C589.571 264.898 589.661 265.035 589.722 265.185C589.722 265.185 590.783 267.79 592.135 272.099C593.932 278.013 595.277 284.055 596.156 290.172C596.813 294.764 597.151 299.395 597.17 304.033C597.17 304.33 597.17 304.628 597.17 304.925C597.057 316.092 594.757 328.071 588.041 338.555C586.433 340.869 584.303 342.773 581.823 344.111C577.801 346.466 572.428 348.235 566.162 349.433C559.183 350.695 552.101 351.303 545.008 351.25C544.156 351.25 543.295 351.25 542.426 351.25C541.557 351.25 540.705 351.162 539.892 351.129Z" fill="black"/>
<path d="M214.783 231.29C205.331 231.18 197.757 223.431 197.868 213.983C197.979 204.535 205.731 196.965 215.184 197.076C224.636 197.186 232.209 204.935 232.099 214.383C231.988 223.831 224.236 231.401 214.783 231.29Z" fill="white"/>
<path d="M206.822 206.06C209.034 203.854 210.788 201.232 211.983 198.345C213.178 195.459 213.791 192.365 213.787 189.241C213.789 188.922 213.916 188.616 214.141 188.389C214.367 188.163 214.674 188.036 214.994 188.035C215.314 188.036 215.62 188.163 215.846 188.389C216.071 188.616 216.198 188.922 216.2 189.241C216.195 192.367 216.806 195.464 218 198.353C219.193 201.243 220.945 203.869 223.155 206.081C225.365 208.293 227.99 210.047 230.879 211.244C233.768 212.441 236.865 213.056 239.993 213.055C240.312 213.057 240.618 213.184 240.845 213.409C241.072 213.635 241.199 213.941 241.199 214.261C241.199 214.581 241.072 214.888 240.846 215.114C240.62 215.34 240.313 215.467 239.993 215.467C233.689 215.465 227.642 217.964 223.181 222.416C218.719 226.867 216.209 232.907 216.2 239.208C216.2 239.528 216.073 239.835 215.847 240.061C215.621 240.287 215.314 240.414 214.994 240.414C214.835 240.416 214.678 240.385 214.531 240.325C214.385 240.264 214.252 240.174 214.141 240.06C213.915 239.835 213.787 239.528 213.787 239.208C213.779 232.909 211.269 226.87 206.809 222.419C202.35 217.967 196.305 215.467 190.003 215.467C189.683 215.467 189.376 215.339 189.15 215.113C188.925 214.886 188.798 214.58 188.796 214.261C188.796 213.941 188.923 213.634 189.149 213.408C189.376 213.182 189.683 213.055 190.003 213.055C193.129 213.054 196.224 212.436 199.111 211.236C201.997 210.035 204.618 208.277 206.822 206.06ZM214.994 231.337C216.264 227.321 218.484 223.669 221.464 220.691C224.445 217.713 228.099 215.497 232.118 214.229C228.099 212.959 224.445 210.741 221.464 207.761C218.484 204.782 216.264 201.13 214.994 197.112C213.723 201.128 211.505 204.78 208.526 207.759C205.547 210.738 201.894 212.957 197.877 214.229C201.894 215.499 205.547 217.716 208.526 220.694C211.505 223.671 213.723 227.322 214.994 231.337Z" fill="black"/>
<path d="M633.012 485.657C631.742 481.642 629.523 477.992 626.544 475.014C623.565 472.036 619.913 469.819 615.895 468.549C619.913 467.277 623.565 465.058 626.544 462.079C629.523 459.1 631.742 455.448 633.012 451.432C634.282 455.448 636.501 459.1 639.48 462.079C642.459 465.058 646.111 467.277 650.128 468.549C646.111 469.819 642.459 472.036 639.48 475.014C636.501 477.992 634.282 481.642 633.012 485.657Z" fill="white"/>
<path d="M658.856 467.697C659.082 467.923 659.209 468.229 659.209 468.549C659.207 468.868 659.08 469.174 658.856 469.401C658.744 469.514 658.611 469.603 658.465 469.664C658.319 469.725 658.161 469.756 658.003 469.755C654.88 469.755 651.787 470.37 648.901 471.565C646.015 472.759 643.393 474.51 641.185 476.718C638.976 478.926 637.224 481.546 636.029 484.431C634.834 487.315 634.218 490.406 634.218 493.528C634.218 493.848 634.091 494.155 633.865 494.381C633.639 494.607 633.332 494.734 633.012 494.734C632.692 494.734 632.385 494.607 632.159 494.381C631.933 494.155 631.805 493.848 631.805 493.528C631.805 490.406 631.19 487.314 629.994 484.429C628.798 481.544 627.046 478.923 624.836 476.715C622.627 474.507 620.004 472.757 617.117 471.562C614.231 470.368 611.137 469.754 608.013 469.755C607.693 469.753 607.387 469.626 607.16 469.401C606.941 469.172 606.817 468.867 606.814 468.549C606.815 468.231 606.939 467.925 607.16 467.697C607.387 467.472 607.693 467.345 608.013 467.343C611.137 467.344 614.231 466.73 617.117 465.536C620.004 464.341 622.627 462.59 624.836 460.383C627.046 458.175 628.798 455.554 629.994 452.669C631.19 449.784 631.805 446.692 631.805 443.57C631.804 443.411 631.835 443.254 631.895 443.107C631.955 442.96 632.044 442.827 632.156 442.714C632.269 442.602 632.402 442.513 632.549 442.453C632.696 442.393 632.853 442.362 633.012 442.364C633.171 442.362 633.328 442.393 633.475 442.453C633.622 442.513 633.755 442.602 633.867 442.714C633.98 442.827 634.069 442.96 634.129 443.107C634.189 443.254 634.22 443.411 634.218 443.57C634.218 446.691 634.834 449.783 636.029 452.667C637.224 455.552 638.976 458.172 641.185 460.38C643.393 462.587 646.015 464.339 648.901 465.533C651.787 466.728 654.88 467.343 658.003 467.343C658.161 467.342 658.319 467.373 658.465 467.434C658.611 467.495 658.744 467.584 658.856 467.697ZM633.012 451.432C631.742 455.448 629.523 459.1 626.544 462.079C623.565 465.058 619.913 467.277 615.895 468.549C619.913 469.819 623.565 472.036 626.544 475.014C629.523 477.992 631.742 481.642 633.012 485.657C634.282 481.642 636.501 477.992 639.48 475.014C642.459 472.036 646.111 469.819 650.128 468.549C646.111 467.277 642.459 465.058 639.48 462.079C636.501 459.1 634.282 455.448 633.012 451.432Z" fill="black"/>
<path d="M224.806 712.41C224.806 707.713 226.2 703.122 228.811 699.216C231.422 695.31 235.132 692.267 239.474 690.469C243.816 688.671 248.593 688.201 253.202 689.117C257.811 690.034 262.045 692.296 265.368 695.617C268.691 698.939 270.954 703.17 271.871 707.777C272.787 712.384 272.317 717.159 270.518 721.499C268.72 725.839 265.675 729.548 261.767 732.157C257.86 734.767 253.266 736.16 248.567 736.16C245.444 736.17 242.349 735.563 239.462 734.374C236.574 733.184 233.95 731.435 231.742 729.228C229.534 727.02 227.784 724.398 226.593 721.512C225.403 718.625 224.796 715.532 224.806 712.41Z" fill="#EC744A"/>
<path d="M622.99 538.471C622.991 541.432 622.114 544.328 620.469 546.791C618.824 549.254 616.485 551.174 613.748 552.308C611.011 553.442 607.999 553.739 605.093 553.162C602.187 552.584 599.518 551.158 597.423 549.064C595.328 546.97 593.901 544.302 593.323 541.398C592.746 538.493 593.043 535.482 594.178 532.747C595.312 530.011 597.233 527.673 599.697 526.029C602.161 524.384 605.058 523.507 608.021 523.509C611.991 523.509 615.798 525.085 618.605 527.891C621.413 530.697 622.99 534.503 622.99 538.471ZM598.055 538.471C598.053 540.435 598.635 542.356 599.725 543.989C600.816 545.623 602.367 546.897 604.182 547.65C605.997 548.403 607.994 548.6 609.922 548.218C611.849 547.836 613.62 546.891 615.01 545.503C616.4 544.114 617.347 542.345 617.731 540.419C618.115 538.493 617.919 536.496 617.167 534.681C616.415 532.866 615.142 531.315 613.508 530.224C611.875 529.132 609.954 528.55 607.989 528.55C605.36 528.556 602.842 529.604 600.986 531.464C599.13 533.324 598.087 535.844 598.087 538.471H598.055Z" fill="#2A6049"/>
<path d="M672.98 427.989C670.019 427.989 667.125 427.112 664.664 425.468C662.202 423.823 660.283 421.487 659.15 418.753C658.017 416.019 657.721 413.011 658.299 410.108C658.876 407.206 660.302 404.54 662.395 402.447C664.489 400.355 667.156 398.93 670.06 398.353C672.963 397.775 675.973 398.072 678.708 399.204C681.443 400.337 683.781 402.254 685.426 404.715C687.071 407.175 687.949 410.068 687.949 413.027C687.947 416.995 686.369 420.799 683.562 423.604C680.755 426.41 676.949 427.987 672.98 427.989ZM672.98 403.066C671.014 403.064 669.093 403.645 667.458 404.736C665.823 405.826 664.549 407.377 663.796 409.192C663.043 411.006 662.846 413.003 663.229 414.93C663.612 416.857 664.558 418.627 665.948 420.016C667.337 421.405 669.108 422.351 671.036 422.734C672.964 423.116 674.962 422.919 676.777 422.167C678.592 421.414 680.144 420.14 681.235 418.506C682.326 416.872 682.907 414.951 682.905 412.987C682.897 410.362 681.847 407.848 679.986 405.995C678.126 404.143 675.606 403.104 672.98 403.106V403.066Z" fill="#2A6049"/>
<path d="M255.613 120.598C255.31 120.691 255.057 120.899 254.906 121.177C254.756 121.455 254.721 121.781 254.808 122.085C257.286 130.414 260.133 138.969 261.694 143.511L229.101 121.844C228.904 121.711 228.672 121.641 228.434 121.643H27.79C22.4568 121.643 17.3421 119.525 13.571 115.756C9.79987 111.987 7.68134 106.874 7.68134 101.544V50.4111C7.68134 45.0804 9.79987 39.9681 13.571 36.1987C17.3421 32.4294 22.4568 30.3118 27.79 30.3118H249.178C254.511 30.3118 259.626 32.4294 263.397 36.1987C267.168 39.9681 269.287 45.0804 269.287 50.4111V101.52C269.294 105.731 267.978 109.838 265.525 113.261C263.071 116.684 259.604 119.25 255.613 120.598ZM117.716 93.2628H213.264C213.584 93.2628 213.891 93.1358 214.117 92.9096C214.343 92.6834 214.47 92.3767 214.47 92.0569C214.47 91.737 214.343 91.4303 214.117 91.2041C213.891 90.9779 213.584 90.8509 213.264 90.8509H117.716C117.396 90.8509 117.089 90.9779 116.863 91.2041C116.636 91.4303 116.509 91.737 116.509 92.0569C116.509 92.3767 116.636 92.6834 116.863 92.9096C117.089 93.1358 117.396 93.2628 117.716 93.2628ZM55.2423 73.9675H213.264C213.584 73.9675 213.891 73.8404 214.117 73.6143C214.343 73.3881 214.47 73.0814 214.47 72.7615C214.47 72.4417 214.343 72.1349 214.117 71.9088C213.891 71.6826 213.584 71.5556 213.264 71.5556H55.2423C54.9223 71.5556 54.6154 71.6826 54.3891 71.9088C54.1629 72.1349 54.0358 72.4417 54.0358 72.7615C54.0358 73.0814 54.1629 73.3881 54.3891 73.6143C54.6154 73.8404 54.9223 73.9675 55.2423 73.9675ZM55.2423 54.6159H190.766C191.086 54.6159 191.393 54.4888 191.62 54.2626C191.846 54.0365 191.973 53.7297 191.973 53.4099C191.973 53.0901 191.846 52.7833 191.62 52.5572C191.393 52.331 191.086 52.2039 190.766 52.2039H55.2423C54.9223 52.2039 54.6154 52.331 54.3891 52.5572C54.1629 52.7833 54.0358 53.0901 54.0358 53.4099C54.0358 53.7297 54.1629 54.0365 54.3891 54.2626C54.6154 54.4888 54.9223 54.6159 55.2423 54.6159Z" fill="white"/>
<path d="M261.332 120.453C260.109 121.236 258.813 121.898 257.463 122.431C257.696 123.235 257.929 123.991 258.171 124.763C259.675 129.667 261.235 134.459 262.49 138.245C263.294 140.577 263.93 142.531 264.404 143.873C264.638 144.565 264.823 145.103 264.951 145.481L265.144 146.044C265.225 146.282 265.229 146.54 265.156 146.781C265.083 147.022 264.937 147.235 264.739 147.389C264.54 147.544 264.298 147.633 264.046 147.644C263.795 147.655 263.546 147.587 263.334 147.451L239.204 131.412L228.056 124.007H27.7739C21.8008 124.007 16.0724 121.635 11.8487 117.414C7.62509 113.192 5.25226 107.466 5.25226 101.496V50.4114C5.25226 44.441 7.62509 38.7152 11.8487 34.4935C16.0724 30.2719 21.8008 27.9001 27.7739 27.9001H249.178C255.151 27.9001 260.88 30.2719 265.103 34.4935C269.327 38.7152 271.7 44.441 271.7 50.4114V101.52C271.702 105.292 270.753 109.004 268.941 112.313C267.129 115.623 264.512 118.422 261.332 120.453ZM269.287 50.4114C269.287 45.0807 267.168 39.9684 263.397 36.199C259.626 32.4297 254.511 30.3121 249.178 30.3121H27.7739C22.4408 30.3121 17.3261 32.4297 13.555 36.199C9.78391 39.9684 7.66528 45.0807 7.66528 50.4114V101.52C7.66528 106.851 9.78391 111.963 13.555 115.732C17.3261 119.502 22.4408 121.619 27.7739 121.619H228.45C228.688 121.618 228.92 121.688 229.118 121.82L261.71 143.487C260.149 138.921 257.302 130.391 254.825 122.061C254.737 121.758 254.772 121.431 254.922 121.153C255.073 120.875 255.326 120.667 255.629 120.574C259.614 119.229 263.076 116.668 265.529 113.253C267.982 109.838 269.302 105.74 269.303 101.536L269.287 50.4114Z" fill="black"/>
<path d="M55.242 52.1719H190.766C191.086 52.1719 191.393 52.2989 191.619 52.5251C191.846 52.7513 191.973 53.058 191.973 53.3778C191.973 53.6977 191.846 54.0044 191.619 54.2306C191.393 54.4567 191.086 54.5838 190.766 54.5838H55.242C54.922 54.5838 54.6151 54.4567 54.3889 54.2306C54.1626 54.0044 54.0355 53.6977 54.0355 53.3778C54.0355 53.058 54.1626 52.7513 54.3889 52.5251C54.6151 52.2989 54.922 52.1719 55.242 52.1719Z" fill="black"/>
<path d="M55.2426 71.5557H213.264C213.584 71.5557 213.891 71.6827 214.117 71.9089C214.344 72.135 214.471 72.4418 214.471 72.7616C214.471 73.0815 214.344 73.3882 214.117 73.6144C213.891 73.8405 213.584 73.9676 213.264 73.9676H55.2426C54.9226 73.9676 54.6157 73.8405 54.3894 73.6144C54.1631 73.3882 54.036 73.0815 54.036 72.7616C54.036 72.4418 54.1631 72.135 54.3894 71.9089C54.6157 71.6827 54.9226 71.5557 55.2426 71.5557Z" fill="black"/>
<path d="M117.716 90.8513H213.264C213.584 90.8513 213.891 90.9784 214.117 91.2045C214.344 91.4307 214.471 91.7374 214.471 92.0573C214.471 92.3771 214.344 92.6839 214.117 92.91C213.891 93.1362 213.584 93.2632 213.264 93.2632H117.716C117.396 93.2632 117.089 93.1362 116.863 92.91C116.637 92.6839 116.51 92.3771 116.51 92.0573C116.51 91.7374 116.637 91.4307 116.863 91.2045C117.089 90.9784 117.396 90.8513 117.716 90.8513Z" fill="black"/>
</svg>
