<svg width="624" height="659" viewBox="0 0 624 659" fill="none" xmlns="http://www.w3.org/2000/svg">
<path d="M472.804 456.319C472.804 455.818 472.804 455.304 472.804 454.81C472.804 446.627 472.448 439.638 472.07 434.505C472.428 434.561 472.791 434.561 473.15 434.505C473.527 439.658 473.878 446.647 473.878 454.817C473.878 455.304 473.878 455.812 473.878 456.306C473.702 456.871 473.558 457.451 473.446 458.041C473.256 457.454 473.042 456.879 472.804 456.319Z" fill="#1A1A1A"/>
<path d="M462.917 517.072C463.17 517.021 463.42 516.957 463.666 516.88C463.711 517.286 463.8 517.685 463.931 518.071C460.483 527.939 455.746 537.283 449.848 545.847L448.557 545.484C454.613 536.745 459.446 527.182 462.917 517.072Z" fill="#1A1A1A"/>
<path d="M472.507 467.75C472.736 467.591 472.951 467.414 473.151 467.218C473.439 466.91 473.684 466.564 473.878 466.188C473.343 479.024 471.465 491.767 468.276 504.207C468.087 503.418 467.844 502.642 467.548 501.887C470.269 490.691 471.929 479.261 472.507 467.75Z" fill="#1A1A1A"/>
<path d="M508.024 498.919L508.244 498.776C508.023 499.398 507.936 500.061 507.991 500.72C508.023 501.013 508.085 501.301 508.177 501.58C502.29 513.17 495.174 524.07 486.958 534.087C485.93 534.75 485.117 535.706 484.621 536.836C479.523 542.713 473.956 548.149 467.975 553.09C467.536 552.859 467.103 552.636 466.644 552.412C484.794 537.642 498.17 518.585 508.024 498.919Z" fill="#1A1A1A"/>
<path d="M511.532 494.033C511.662 493.371 511.752 492.7 511.8 492.026C516.125 482.327 519.835 472.354 522.909 462.167C524.164 458.045 525.281 454.011 526.288 450.124C527.462 448.459 528.116 446.47 528.163 444.417C528.2 443.717 528.2 443.016 528.163 442.316C530.222 433.317 531.653 425.222 532.627 418.605C532.836 417.191 533.025 415.853 533.195 414.591C533.366 414.663 533.541 414.726 533.718 414.778C533.965 414.842 534.216 414.882 534.47 414.899C533.021 425.672 531.003 436.356 528.425 446.906C528.379 447.02 528.327 447.127 528.281 447.247C527.998 447.986 527.824 448.764 527.765 449.555C526.7 453.763 525.497 458.119 524.138 462.582C520.748 473.83 516.579 484.817 511.662 495.458C511.414 495.659 511.179 495.86 510.957 496.061C511.204 495.403 511.397 494.725 511.532 494.033Z" fill="#1A1A1A"/>
<path d="M533.695 414.27C531.709 413.443 530.326 411.071 529.602 407.755C528.822 404.145 528.828 399.395 529.818 394.353C530.808 389.31 532.566 384.918 534.641 381.895C536.716 378.872 539.083 377.191 541.399 377.517C543.715 377.842 545.505 380.338 546.419 384.032C547.332 387.726 547.402 392.593 546.419 397.754C545.435 402.914 543.525 407.39 541.291 410.433C539.299 413.156 537.027 414.713 534.945 414.583C534.699 414.567 534.455 414.527 534.216 414.466C534.039 414.411 533.865 414.346 533.695 414.27Z" fill="#2A6049"/>
<path d="M529.002 444.307C528.95 446.327 528.241 448.284 526.966 449.922C526.418 450.555 525.709 451.05 524.902 451.364C522.476 452.272 519.517 451.318 516.659 449.073C513.306 446.255 510.688 442.766 509.005 438.87C506.976 434.459 506.089 429.786 506.557 426.053C506.712 424.421 507.271 422.845 508.189 421.445C508.905 420.359 510.046 419.571 511.374 419.247C513.935 418.694 516.645 419.951 519.234 422.13C522.341 424.921 524.784 428.284 526.406 432.004C527.927 435.238 528.813 438.697 529.023 442.22C529.056 442.916 529.049 443.612 529.002 444.307Z" fill="#2A6049"/>
<path d="M527.928 447.257C528.144 446.74 528.394 446.243 528.645 445.684C528.807 445.357 528.976 445.003 529.159 444.717L529.436 444.254L529.7 443.75C530.058 443.069 530.464 442.491 530.849 441.789C531.039 441.442 531.262 441.177 531.465 440.802C531.668 440.428 531.898 440.121 532.141 439.767C533.219 438.118 534.381 436.527 535.624 435.001C537.117 433.107 538.759 431.338 540.535 429.71C540.988 429.301 541.441 428.92 541.887 428.552C542.334 428.185 542.827 427.824 543.301 427.497C544.196 426.867 545.139 426.309 546.121 425.829C547.715 424.993 549.485 424.554 551.282 424.548C551.939 424.538 552.591 424.665 553.196 424.922C553.802 425.178 554.347 425.559 554.799 426.04C555.625 427.051 556.101 428.306 556.151 429.615C556.235 431.183 556.083 432.756 555.698 434.279C555.486 435.182 555.224 436.074 554.914 436.948C554.751 437.418 554.569 437.888 554.373 438.358C554.177 438.827 553.947 439.352 553.696 439.856C552.599 442.185 551.237 444.379 549.638 446.392C547.764 448.752 545.523 450.791 543.003 452.432C542.327 452.82 541.711 453.181 541.082 453.508C540.455 453.826 539.806 454.102 539.141 454.332C537.951 454.787 536.708 455.089 535.442 455.231C535.151 455.272 534.874 455.306 534.596 455.319C534.319 455.333 534.035 455.319 533.771 455.319C533.264 455.306 532.758 455.263 532.256 455.19C531.399 455.079 530.569 454.811 529.808 454.4C529.207 454.121 528.675 453.71 528.251 453.198C527.828 452.685 527.523 452.084 527.359 451.438C527.253 450.962 527.215 450.474 527.244 449.988C527.306 449.182 527.486 448.391 527.779 447.638C527.826 447.482 527.88 447.373 527.928 447.257Z" fill="#2A6049"/>
<path d="M508.49 499.068C509.72 498.171 510.644 496.897 511.131 495.426C511.352 495.225 511.586 495.024 511.833 494.823C512.197 494.523 512.581 494.228 512.985 493.938C514.672 492.758 516.449 491.722 518.299 490.839C522.574 488.801 527.044 487.227 531.635 486.144C533.621 485.669 535.643 485.364 537.678 485.232C541.36 485.031 544.333 485.701 545.621 487.807C546.909 489.913 546.122 493.066 543.448 496.379C541.902 498.238 540.105 499.86 538.114 501.195C533.33 504.425 527.837 506.367 522.137 506.842C519.777 507.037 517.403 506.881 515.086 506.379C511.488 505.561 509.114 503.884 508.444 501.832C508.354 501.555 508.293 501.27 508.262 500.98C508.204 500.333 508.282 499.681 508.49 499.068Z" fill="#2A6049"/>
<path d="M486.415 534.055C487.616 533.231 488.917 532.573 490.285 532.098C492.223 531.416 494.211 530.899 496.231 530.552C498.555 530.126 500.902 529.843 503.26 529.705C505.616 529.535 507.981 529.508 510.341 529.625C512.385 529.707 514.419 529.961 516.423 530.384C520.039 531.198 522.747 532.656 523.452 535.036C524.157 537.416 522.584 540.26 519.145 542.74C517.174 544.116 515.023 545.194 512.755 545.94C507.297 547.76 501.484 548.141 495.846 547.049C493.499 546.609 491.226 545.821 489.097 544.71C485.384 542.693 483.485 540.051 483.876 537.631C483.929 537.342 484.007 537.058 484.111 536.784C484.601 535.66 485.403 534.711 486.415 534.055Z" fill="#2A6049"/>
<path d="M510.111 496.035C509.643 497.536 508.755 498.837 507.571 499.753L507.365 499.897C506.985 500.142 506.573 500.324 506.145 500.438C503.905 501.034 501.496 499.794 499.331 497.514C494.515 491.889 491.875 484.441 491.968 476.733C492.155 473.446 493.169 470.755 495.196 469.543C497.223 468.331 499.882 468.858 502.522 470.988C505.162 473.117 507.721 476.719 509.348 481.307C510.574 484.659 511.111 488.267 510.918 491.872C510.873 492.562 510.787 493.248 510.662 493.926C510.534 494.645 510.35 495.351 510.111 496.035Z" fill="#2A6049"/>
<path d="M472.373 434.43C470.592 434.236 468.729 433.289 466.969 431.797C464.146 429.132 461.942 425.964 460.49 422.487C459.039 419.01 458.371 415.297 458.526 411.574C458.839 408.44 460.117 405.995 462.401 405.042C464.685 404.09 467.54 404.836 470.286 406.923C473.032 409.01 475.656 412.352 477.396 416.508C479.136 420.664 479.639 424.795 479.096 428.017C478.552 431.239 476.975 433.571 474.596 434.286C473.877 434.492 473.119 434.554 472.373 434.468V434.43Z" fill="#2A6049"/>
<path d="M472.204 467.845C470.536 469.093 468.075 469.194 465.28 468.378C457.954 465.785 451.797 460.348 448.021 453.137C446.585 450.02 446.264 447.065 447.574 445.041C448.883 443.016 451.602 442.247 454.97 442.855C458.337 443.462 462.341 445.425 465.991 448.65C468.657 450.955 470.873 453.8 472.513 457.023C472.792 457.587 473.044 458.165 473.268 458.757C473.218 458.966 473.161 459.175 473.123 459.384C472.65 461.427 472.92 463.586 473.878 465.423C473.786 465.711 473.672 465.99 473.539 466.259C473.349 466.65 473.109 467.011 472.827 467.332C472.633 467.521 472.424 467.692 472.204 467.845Z" fill="#2A6049"/>
<path d="M473.216 459.205C473.256 458.997 473.317 458.788 473.37 458.58C473.509 457.986 473.688 457.402 473.907 456.833C475.032 454.038 476.777 451.536 479.011 449.517C482.21 446.568 485.939 444.875 489.125 444.532C492.311 444.189 494.953 445.13 496.328 447.172C497.703 449.215 497.669 451.956 496.657 454.697C495.414 457.734 493.521 460.461 491.11 462.684C488.7 464.907 485.831 466.573 482.706 467.562C479.896 468.315 477.18 468.154 475.248 466.608C474.762 466.22 474.346 465.749 474.021 465.218C473 463.389 472.712 461.239 473.216 459.205Z" fill="#2A6049"/>
<path d="M465.282 511.621C464.311 513.105 463.854 514.852 463.977 516.606C463.728 516.68 463.476 516.741 463.221 516.79C461.27 517.07 459.279 516.695 457.578 515.724C454.88 514.171 452.634 511.974 451.055 509.339C449.476 506.705 448.616 503.723 448.556 500.674C448.628 497.973 449.607 495.601 451.596 494.332C453.586 493.064 456.215 493.02 458.87 494.186C461.903 495.647 464.407 497.972 466.045 500.852C466.55 501.695 466.986 502.575 467.35 503.484C467.65 504.223 467.896 504.982 468.087 505.755C468.267 506.476 468.389 507.209 468.452 507.949C467.198 508.998 466.127 510.238 465.282 511.621Z" fill="#2A6049"/>
<path d="M465.299 511.35C466.238 509.882 467.427 508.568 468.818 507.46C470.516 506.086 472.425 504.959 474.481 504.119C478.755 502.394 483.028 502.027 486.362 502.742C489.696 503.457 492.004 505.208 492.666 507.581C493.328 509.953 492.324 512.499 490.387 514.758C488.091 517.208 485.248 519.154 482.061 520.458C478.874 521.762 475.421 522.392 471.945 522.304C468.861 522.097 466.197 521.061 464.822 518.962C464.581 518.596 464.389 518.203 464.252 517.793C464.108 517.403 464.01 516.999 463.96 516.59C463.803 514.754 464.272 512.919 465.299 511.35Z" fill="#2A6049"/>
<path d="M494.715 148.276C496.326 146.312 497.435 143.997 497.951 141.525C498.26 139.809 498.791 138.14 499.53 136.557C499.946 135.589 500.568 134.72 501.355 134.009C501.548 133.824 501.798 133.705 502.067 133.672C502.089 133.67 502.111 133.672 502.132 133.679C502.153 133.685 502.173 133.696 502.19 133.71C502.281 133.779 502.354 133.868 502.403 133.971C502.675 134.584 502.797 135.252 502.759 135.92C502.759 136.194 502.759 136.493 502.714 136.812C502.605 138.196 502.423 139.573 502.17 140.939C501.97 141.977 501.782 142.716 501.646 143.302C501.555 143.656 501.503 144.019 501.491 144.384C501.484 144.67 501.551 144.952 501.685 145.206C501.823 145.472 502.036 145.694 502.3 145.843C502.445 145.931 502.599 146.006 502.759 146.066C502.915 146.12 503.079 146.148 503.244 146.148C503.534 146.145 503.818 146.066 504.066 145.919C504.287 145.797 504.492 145.647 504.674 145.473C505.099 145.059 505.48 144.605 505.813 144.117C506.776 142.705 507.612 141.213 508.311 139.659C510.332 135.288 511.772 130.679 512.595 125.946C512.826 124.058 513.556 122.262 514.711 120.737C515.435 119.826 516.427 119.159 517.552 118.826C518.142 118.664 518.752 118.583 519.364 118.584C519.739 118.584 520.113 118.611 520.483 118.667C520.529 118.992 520.581 119.418 520.639 119.941C520.82 121.669 520.909 123.406 520.904 125.144C520.919 129.965 520.248 134.765 518.911 139.404C517.23 145.322 514.175 150.774 509.987 155.332C505.296 160.376 501.575 163.981 498.689 166.561C498.449 165.516 498.139 164.465 497.789 163.408C496.887 160.827 495.806 158.309 494.554 155.874C493.641 154.071 492.735 152.447 491.965 151.135C492.962 150.26 493.882 149.304 494.715 148.276Z" fill="white"/>
<path d="M496.659 168.717C499.781 165.971 503.79 162.05 508.854 156.611C513.351 151.713 516.636 145.859 518.45 139.506C519.898 134.489 520.622 129.297 520.601 124.083C520.606 122.209 520.511 120.336 520.315 118.472C520.252 117.882 520.196 117.422 520.147 117.099C519.747 117.039 519.344 117.009 518.939 117.01C518.278 117.008 517.62 117.096 516.983 117.271C515.77 117.63 514.699 118.349 513.917 119.331C512.677 120.979 511.896 122.918 511.654 124.955C510.766 130.058 509.212 135.027 507.031 139.739C506.276 141.415 505.374 143.024 504.335 144.546C503.975 145.072 503.563 145.562 503.106 146.009C502.908 146.196 502.688 146.357 502.449 146.489C502.181 146.647 501.875 146.732 501.562 146.736C501.384 146.736 501.206 146.706 501.038 146.647C500.866 146.582 500.7 146.502 500.542 146.407C500.258 146.246 500.028 146.007 499.879 145.72C499.734 145.447 499.662 145.142 499.669 144.834C499.682 144.44 499.739 144.049 499.837 143.667C499.984 143.035 500.186 142.239 500.403 141.119C500.676 139.647 500.872 138.162 500.989 136.67C501.024 136.326 501.038 135.983 501.038 135.708C501.079 134.988 500.947 134.268 500.654 133.607C500.602 133.496 500.522 133.4 500.424 133.325C500.405 133.31 500.384 133.299 500.361 133.292C500.339 133.285 500.315 133.282 500.291 133.284C500.001 133.32 499.732 133.448 499.523 133.648C498.674 134.415 498.002 135.351 497.553 136.395C496.756 138.102 496.183 139.902 495.849 141.751C495.292 144.417 494.095 146.912 492.357 149.03C491.473 150.136 490.496 151.168 489.437 152.113C489.032 151.427 488.662 150.815 488.348 150.3C489.252 149.45 490.088 148.532 490.848 147.554C492.315 145.734 493.331 143.604 493.816 141.332C494.239 138.764 495.144 136.296 496.484 134.053C496.949 133.29 497.541 132.609 498.237 132.041C498.82 131.54 499.56 131.252 500.333 131.224C500.795 131.223 501.247 131.357 501.632 131.609C502.204 132.017 502.624 132.598 502.826 133.264C503.074 134.055 503.192 134.88 503.175 135.708C503.175 136.065 503.175 136.443 503.12 136.841C502.972 138.767 502.692 140.68 502.281 142.568C502.142 143.214 502.016 143.729 501.925 144.113C501.925 144.196 501.89 144.264 501.876 144.34L501.981 144.237C502.699 143.374 503.326 142.442 503.853 141.456C506.668 136.173 508.618 130.485 509.629 124.604C509.88 122.907 510.408 121.261 511.193 119.729C512.026 118.072 513.371 116.716 515.035 115.856C516.26 115.257 517.612 114.951 518.981 114.963C519.804 114.958 520.624 115.062 521.419 115.272C521.596 115.332 521.755 115.438 521.877 115.578C522 115.718 522.083 115.887 522.117 116.069C522.538 118.733 522.737 121.427 522.711 124.124C522.73 129.515 521.98 134.882 520.483 140.069C518.578 146.729 515.131 152.866 510.411 157.998C506.221 162.583 501.791 166.952 497.141 171.087C496.994 170.276 496.848 169.48 496.659 168.717Z" fill="black"/>
<path d="M440.365 647.356C438.167 641.44 433.909 636.533 428.387 633.55C423.975 631.14 418.218 629.523 410.745 629.301L401.515 628.63L396.817 628.281L396.104 624.522C399.605 624.375 401.848 624.254 401.854 624.254C401.992 624.245 402.126 624.207 402.249 624.144C402.372 624.08 402.48 623.992 402.568 623.884C402.655 623.777 402.72 623.652 402.757 623.518C402.795 623.384 402.804 623.244 402.786 623.106V623.032C402.786 622.972 402.786 622.884 402.786 622.764C402.786 622.522 402.719 622.146 402.666 621.623C402.573 620.569 402.44 618.938 402.313 616.522C402.054 611.736 401.794 604.017 401.794 592.285C401.794 580.706 402.047 565.222 402.806 544.811C417.783 541.194 433.414 541.376 448.304 545.341L449.635 545.71C455.156 547.275 460.518 549.358 465.653 551.932C466.092 552.147 466.525 552.368 466.984 552.603C485.38 562.159 500.081 577.642 508.75 596.592C517.42 615.543 519.56 636.872 514.832 657.189H442.362C442.231 653.824 441.557 650.503 440.365 647.356Z" fill="#2A6049"/>
<path d="M267.124 613.522C267.118 613.713 267.167 613.902 267.264 614.065C267.362 614.229 267.505 614.36 267.675 614.443C269.132 615.134 270.65 615.687 272.208 616.093L269.584 625.507C254.429 591.587 219.283 567.817 178.331 567.817C177.065 567.817 175.799 567.817 174.539 567.89V500.753C189.855 495.338 206.256 493.821 222.291 496.336C238.326 498.85 253.5 505.319 266.468 515.169C266.914 540.582 267.445 565.267 267.445 587.049C267.472 596.477 267.373 605.361 267.124 613.522Z" fill="#2A6049"/>
<path d="M303.834 640.956C304.492 634.54 305.149 627.085 305.807 619.845C307.378 619.845 308.345 619.845 308.437 619.845C308.678 619.846 308.911 619.757 309.092 619.594C309.274 619.431 309.392 619.207 309.423 618.962C309.423 618.962 309.489 618.408 309.621 617.356C309.752 616.303 309.943 614.752 310.193 612.761C310.686 608.774 311.403 603.012 312.297 595.894C314.085 581.726 316.571 562.16 319.372 540.853C319.872 537.088 320.372 533.263 320.885 529.383C327.02 526.064 333.714 523.971 340.611 523.217C345.076 559.4 351.007 594.059 358.891 623.347C358.94 623.535 359.041 623.704 359.183 623.833C359.324 623.963 359.499 624.047 359.686 624.076C361.821 624.39 363.969 624.588 366.124 624.669C366.729 630.411 367.334 636.024 367.886 640.977C368.642 647.723 369.3 653.283 369.734 656.258C369.786 656.609 369.832 656.933 369.878 657.189H302.052C302.184 656.305 302.342 655.064 302.519 653.512C302.887 650.429 303.341 646.017 303.834 640.956Z" fill="#2A6049"/>
<path d="M76.8694 657.19C77.2197 652.31 77.9451 647.467 79.0386 642.706H145.711L150.122 657.19H76.8694Z" fill="#EC744A"/>
<path d="M269.496 626.447L268.934 628.484L266.104 628.724L256.439 629.543C249.015 629.756 243.296 631.367 238.92 633.757C235.064 635.832 231.803 638.872 229.453 642.584C226.749 646.984 225.234 652.019 225.057 657.19H163.687L168.11 642.983H172.737C173 642.983 173.252 642.878 173.438 642.691C173.623 642.503 173.727 642.249 173.729 641.985V568.551C174.998 568.505 176.274 568.478 177.55 568.478C218.809 568.478 254.224 592.363 269.496 626.447Z" fill="#EC744A"/>
<path d="M152.442 656.284L148.313 642.706H165.496L161.373 656.284H152.442Z" fill="black"/>
<path d="M150.119 657.19L145.6 642.706H147.721L151.916 656.138H160.988L165.176 642.706H167.304L162.785 657.19H150.119Z" fill="black"/>
<path d="M37.5903 656.284L33.4609 642.706H50.6436L46.5142 656.284H37.5903Z" fill="black"/>
<path d="M32.958 642.706L37.329 656.138H46.7752L51.1462 642.706H53.3564L48.6474 657.19H35.4567L30.7477 642.706H32.958Z" fill="black"/>
<path d="M371.258 653.229C370.883 650.305 370.408 646.254 369.878 641.559C381.715 641.415 393.324 637.982 402.488 630.033L411.391 630.72H411.438C418.72 630.926 424.166 632.525 428.326 634.838C431.935 636.807 434.986 639.7 437.182 643.234C439.713 647.442 441.139 652.25 441.322 657.19H371.821C371.821 657.107 371.821 657.025 371.774 656.936C371.64 656.064 371.466 654.808 371.258 653.229Z" fill="black"/>
<path d="M368.07 640.827C368.099 641.075 368.215 641.305 368.398 641.471C368.58 641.638 368.816 641.731 369.061 641.732H369.4C381.559 641.732 393.538 638.28 402.883 630.014C403.035 629.883 403.146 629.709 403.2 629.513C403.254 629.318 403.25 629.11 403.188 628.917C403.125 628.724 403.008 628.555 402.85 628.431C402.693 628.307 402.502 628.234 402.304 628.223L411.53 628.904C418.999 629.121 424.753 630.769 429.162 633.214C434.682 636.24 438.937 641.219 441.135 647.221C442.325 650.408 442.999 653.773 443.13 657.183H441.135C440.954 652.283 439.538 647.514 437.024 643.339C434.842 639.847 431.815 636.99 428.238 635.046C424.134 632.771 418.7 631.185 411.47 630.96H411.423L402.584 630.279C393.484 638.164 381.964 641.569 370.205 641.712C370.73 646.363 371.202 650.38 371.575 653.288C371.781 654.854 371.954 656.1 372.087 656.938C372.087 657.026 372.12 657.108 372.134 657.19H370.138C370.092 656.904 370.045 656.604 369.992 656.25C369.5 653.274 368.834 647.691 368.07 640.827Z" fill="black"/>
<path d="M395.107 630.585L397.913 630.814C389.857 637.747 379.894 640.81 369.64 640.896C369.146 635.99 368.608 630.521 368.07 624.923C370.324 625.009 372.763 625.051 375.264 625.051C381.655 625.051 388.425 624.816 393.378 624.602L394.246 629.714C394.283 629.946 394.388 630.158 394.544 630.316C394.7 630.474 394.898 630.568 395.107 630.585Z" fill="white"/>
<path d="M404.193 629.351C404.256 629.538 404.26 629.739 404.206 629.929C404.151 630.118 404.04 630.288 403.886 630.416C394.317 638.447 381.974 641.801 369.48 641.801H369.111C368.86 641.799 368.618 641.709 368.43 641.547C368.243 641.385 368.123 641.162 368.093 640.921C367.519 636.065 366.89 630.562 366.261 624.932H366.842L368.332 624.985C368.913 630.171 369.494 635.239 370.027 639.783C381.092 639.684 391.843 636.866 400.537 630.443L397.509 630.231C397.283 630.215 397.07 630.128 396.901 629.982C396.733 629.835 396.62 629.639 396.579 629.424L395.643 624.688L397.693 624.602L398.425 628.306L403.25 628.65C403.463 628.657 403.668 628.729 403.837 628.855C404.006 628.98 404.131 629.154 404.193 629.351Z" fill="black"/>
<path d="M282.96 636.52C277.763 635.215 272.884 632.986 268.591 629.955L269.783 629.865C269.992 629.849 270.192 629.774 270.353 629.648C270.515 629.523 270.631 629.354 270.685 629.164L274.205 617.36C275.473 617.63 276.795 617.874 278.173 618.093C282.395 618.736 287.031 619.199 291.364 619.501C295.82 619.803 299.946 619.951 302.957 620.028C302.268 626.541 301.62 633.228 300.993 639.085C294.896 638.89 288.843 638.029 282.96 636.52Z" fill="white"/>
<path d="M302.91 640.896C302.923 640.759 302.909 640.622 302.87 640.491C302.83 640.361 302.766 640.241 302.681 640.139C302.598 640.037 302.496 639.955 302.383 639.897C302.269 639.838 302.145 639.806 302.02 639.8L301.148 639.76C301.71 633.71 302.323 626.803 302.91 620.076L304.765 620.116C304.147 627.241 303.528 634.58 302.91 640.896Z" fill="black"/>
<path d="M271.44 629.265C271.387 629.449 271.273 629.613 271.114 629.735C270.956 629.857 270.76 629.93 270.555 629.946L269.385 630.033C268.757 629.577 268.142 629.103 267.553 628.604C267.451 628.516 267.329 628.449 267.196 628.407C267.063 628.365 266.923 628.349 266.783 628.361L269.676 628.136L270.251 626.227L272.955 617.36C273.583 617.516 274.246 617.666 274.922 617.809L271.44 629.265Z" fill="black"/>
<path d="M240.845 634.937C244.958 632.656 250.414 631.065 257.68 630.839H257.74L267.09 630.033C271.651 634.2 277.28 636.966 283.284 638.735C289.111 640.379 295.107 641.318 301.148 641.535C300.794 645.148 300.48 648.365 300.173 651.043C299.859 653.864 299.599 656.015 299.412 657.19H227.896C228.029 654.023 228.658 650.898 229.759 647.935C231.782 642.366 235.724 637.744 240.845 634.937Z" fill="black"/>
<path d="M239.975 633.345C244.37 630.914 250.113 629.283 257.568 629.059L267.274 628.227C267.412 628.214 267.55 628.231 267.68 628.277C267.811 628.322 267.93 628.395 268.031 628.491C268.609 629.032 269.213 629.547 269.83 630.041C273.967 633.235 278.669 635.584 283.679 636.96C289.349 638.551 295.182 639.46 301.06 639.668L301.996 639.709C302.131 639.715 302.263 639.748 302.385 639.808C302.507 639.867 302.617 639.951 302.706 640.054C302.797 640.159 302.866 640.281 302.908 640.414C302.951 640.547 302.965 640.687 302.952 640.826C302.454 645.904 301.996 650.304 301.624 653.5C301.445 655.057 301.285 656.303 301.152 657.19H299.161C299.347 656.039 299.606 653.906 299.918 651.096C300.203 648.47 300.535 645.254 300.887 641.672C294.891 641.46 288.939 640.533 283.155 638.91C277.18 637.157 271.59 634.415 267.055 630.285L257.761 631.084H257.701C250.478 631.287 245.054 632.864 240.965 635.146C235.873 637.92 231.95 642.494 229.931 648.009C228.836 650.946 228.211 654.044 228.079 657.183H226.087C226.265 651.924 227.786 646.804 230.502 642.329C232.852 638.555 236.114 635.462 239.975 633.345Z" fill="black"/>
<path d="M340.149 402.71C351.575 359.456 354.073 317.743 354.073 289.527C354.073 277.984 353.654 268.707 353.254 262.514L356.822 262.554C355.691 284.835 354.974 307.077 354.974 327.724C354.974 338.523 355.17 348.87 355.61 358.545C355.616 358.7 355.659 358.85 355.735 358.986C355.812 359.121 355.92 359.236 356.05 359.323C366.02 366.156 377.893 369.808 390.052 369.782C393.876 369.778 397.691 369.438 401.452 368.766C403.564 400.603 405.148 434.813 405.148 465.94C405.148 479.164 404.864 491.857 404.214 503.526C401.892 545.265 401.242 573.222 401.242 591.457C401.242 609.904 401.919 618.404 402.19 621.175L400.836 621.235C399.292 621.308 397.099 621.407 394.507 621.5C389.321 621.693 382.532 621.886 376.121 621.886C372.912 621.886 369.805 621.833 367.043 621.72C364.6 621.613 362.427 621.447 360.721 621.221C346.221 569.348 338.159 500.403 333.704 436.275C334.605 430.879 335.465 425.882 336.277 421.397C337.746 413.269 339.066 406.803 340.149 402.71Z" fill="white"/>
<path d="M402.755 616.152C402.881 618.524 403.014 620.15 403.106 621.216C403.159 621.736 403.199 622.109 403.225 622.349C403.225 622.469 403.225 622.556 403.225 622.616V622.689C403.244 622.826 403.234 622.965 403.197 623.098C403.159 623.231 403.095 623.355 403.008 623.462C402.921 623.569 402.814 623.656 402.691 623.719C402.569 623.783 402.436 623.82 402.299 623.829C402.299 623.829 400.061 623.948 396.579 624.095L394.593 624.182C389.416 624.382 382.339 624.602 375.659 624.602C373.011 624.602 370.495 624.562 368.139 624.482L366.695 624.428H366.133C363.964 624.348 361.8 624.152 359.651 623.842C359.463 623.813 359.287 623.73 359.144 623.602C359.002 623.474 358.9 623.308 358.85 623.122C350.906 594.175 344.948 559.964 340.446 524.227C337.176 498.239 334.687 471.404 332.8 445.223C333.263 442.224 333.727 439.306 334.177 436.507C338.533 500.811 346.418 569.946 360.598 621.963C362.266 622.189 364.392 622.356 366.781 622.463C369.482 622.576 372.521 622.629 375.659 622.629C381.928 622.629 388.568 622.436 393.639 622.243C396.175 622.149 398.32 622.049 399.829 621.976L401.153 621.916C400.875 619.137 400.227 610.588 400.227 592.116C400.227 573.831 400.888 545.797 403.133 503.943C403.795 492.215 404.046 479.514 404.046 466.253C404.046 435.041 402.497 400.736 400.432 368.811C401.094 368.691 401.756 368.558 402.418 368.424C404.497 400.45 406.052 434.894 406.052 466.253C406.052 479.541 405.774 492.282 405.132 504.05C404.298 519.522 403.682 533.096 403.239 544.984C402.484 565.248 402.232 580.621 402.232 592.116C402.239 603.738 402.497 611.401 402.755 616.152Z" fill="black"/>
<path d="M351.044 263.364C351.414 269.526 351.792 278.432 351.792 289.4C351.792 317.612 349.312 359.363 338.002 402.582C336.897 406.801 335.577 413.317 334.102 421.528C332.626 429.739 331.003 439.626 329.299 450.555C325.89 472.418 322.165 498.44 318.709 523.415C312.356 569.324 306.927 611.709 306.092 618.265C304.569 618.265 301.214 618.198 297.038 618.005C290.775 617.764 284.531 617.167 278.337 616.216C275.133 615.755 271.993 614.928 268.981 613.752C269.223 605.681 269.317 596.942 269.317 587.716C269.317 549.704 267.687 503.04 267.687 458.919C267.687 439.166 268.011 419.926 268.96 402.208C269.607 390.098 270.395 378.487 271.325 367.374C277.668 368.308 284.071 368.781 290.483 368.789C303.18 368.855 315.79 366.727 327.749 362.5C327.927 362.439 328.085 362.329 328.203 362.184C328.322 362.039 328.398 361.865 328.423 361.679C328.766 358.909 329.427 351.445 330.235 340.644C331.043 329.842 331.993 315.729 332.896 299.714C333.569 287.864 334.243 274.967 334.775 261.608C339.962 261.909 345.459 262.102 350.943 262.203C350.997 262.576 351.024 262.964 351.044 263.364Z" fill="white"/>
<path d="M272.337 367.504C271.453 378.582 270.676 390.175 270.008 402.283C269.072 419.973 268.754 439.182 268.754 458.904C268.754 502.954 270.36 549.551 270.36 587.496C270.36 596.741 270.267 605.492 270.028 613.49C272.996 614.665 276.089 615.49 279.246 615.95C285.348 616.9 291.499 617.496 297.668 617.736C301.783 617.929 305.088 617.983 306.588 617.996C307.411 611.451 312.76 569.133 319.018 523.297C322.422 498.362 326.092 472.381 329.45 450.553C331.129 439.642 332.768 429.764 334.182 421.572C335.596 413.381 336.936 406.869 338.024 402.656C349.16 359.539 351.609 317.855 351.609 289.668C351.609 278.743 351.238 269.852 350.873 263.673C350.873 263.273 350.826 262.887 350.806 262.514L352.797 262.547C353.189 268.759 353.6 278.064 353.6 289.641C353.6 317.922 351.151 359.759 339.949 403.143C338.887 407.249 337.593 413.734 336.146 421.906C335.35 426.405 334.507 431.417 333.625 436.829C333.173 439.628 332.709 442.548 332.244 445.547C328.355 470.428 323.942 501.621 320.02 530.708C319.502 534.521 318.998 538.3 318.494 542.039C315.666 563.115 313.184 582.397 311.353 596.414C310.45 603.426 309.727 609.118 309.229 613.077C308.977 615.077 308.785 616.576 308.652 617.616C308.519 618.656 308.453 619.196 308.453 619.202C308.42 619.444 308.302 619.666 308.119 619.827C307.935 619.988 307.7 620.076 307.457 620.075C307.344 620.075 306.369 620.075 304.803 620.075L302.812 620.035C299.912 619.956 295.936 619.802 291.643 619.489C287.468 619.176 283.015 618.716 278.934 618.029C277.607 617.803 276.332 617.549 275.111 617.269C274.448 617.116 273.784 616.956 273.18 616.79C271.604 616.381 270.068 615.825 268.594 615.13C268.422 615.046 268.278 614.914 268.179 614.75C268.08 614.585 268.031 614.395 268.037 614.203C268.289 605.992 268.389 597.054 268.389 587.543C268.389 565.627 267.851 540.793 267.4 515.225C267.068 496.562 266.783 477.547 266.783 458.951C266.783 439.208 267.101 419.966 268.037 402.223C268.679 390.061 269.462 378.402 270.386 367.244L272.337 367.504Z" fill="black"/>
<path d="M423.742 192.816C423.758 193.008 423.83 193.192 423.949 193.345C424.068 193.498 424.228 193.614 424.412 193.68C424.589 193.749 424.783 193.766 424.971 193.73C425.158 193.693 425.331 193.604 425.47 193.474C453.44 167.112 482.502 152.262 487.619 149.749L488.007 150.374C488.55 151.245 489.293 152.488 490.124 153.984C492.087 157.471 493.737 161.123 495.053 164.898C495.875 167.183 496.358 169.574 496.487 171.997C480.325 195.322 465.523 211.182 452.194 221.185C438.865 231.189 426.957 235.357 416.662 235.357C416.133 235.357 415.604 235.357 415.075 235.324C414.827 217.323 414.331 199.576 413.481 183.743C413.467 183.481 413.349 183.235 413.153 183.06C412.957 182.884 412.699 182.793 412.436 182.805L410.574 136.688C416.816 150.275 422.134 168.627 423.742 192.816Z" fill="white"/>
<path d="M394.439 107.612L394.237 107.358L394.046 107.11C392.924 105.655 391.801 104.35 390.678 103.195C393.653 106.211 396.378 109.544 398.817 113.152C396.46 109.89 394.63 107.821 394.439 107.612Z" fill="black"/>
<path d="M415.152 235.103C415.68 235.103 416.207 235.137 416.734 235.137C426.992 235.137 438.811 230.968 452.139 220.867C465.467 210.765 480.17 194.871 496.274 171.429C496.142 169.005 495.661 166.613 494.845 164.327C493.522 160.541 491.867 156.879 489.9 153.384C489.073 151.881 488.332 150.631 487.791 149.756L487.404 149.128C482.305 151.653 453.367 166.578 425.477 193.074C425.339 193.206 425.167 193.295 424.98 193.332C424.793 193.368 424.6 193.351 424.423 193.281C424.24 193.216 424.08 193.099 423.962 192.945C423.843 192.791 423.772 192.606 423.755 192.413C422.153 168.108 416.854 149.656 410.634 136L410.574 134.404C410.674 134.399 410.773 134.381 410.868 134.35C410.992 134.306 411.106 134.238 411.204 134.149C411.302 134.061 411.381 133.954 411.437 133.835C411.494 133.716 411.526 133.587 411.533 133.455C411.539 133.323 411.52 133.192 411.475 133.067C418.036 146.803 423.742 165.449 425.617 190.202C456.13 161.655 487.271 146.957 487.344 146.897C487.562 146.794 487.809 146.773 488.041 146.838C488.272 146.903 488.473 147.05 488.605 147.251C488.605 147.251 489.039 147.919 489.713 149.021C490.014 149.522 490.381 150.11 490.754 150.785C491.549 152.161 492.483 153.865 493.424 155.755C494.715 158.31 495.83 160.951 496.761 163.659C497.121 164.768 497.428 165.87 497.689 166.966C497.869 167.741 498.009 168.516 498.116 169.277C498.231 170.09 498.291 170.909 498.296 171.729C498.296 171.932 498.235 172.129 498.122 172.297C481.858 196.001 466.935 212.181 453.361 222.47C439.786 232.758 427.559 237.168 416.748 237.168C416.227 237.168 415.706 237.168 415.192 237.134C415.192 236.439 415.159 235.771 415.152 235.103Z" fill="black"/>
<path d="M357.27 206.078C356.078 207.172 355.062 208.444 354.256 209.85C352.066 213.461 348.74 216.231 344.807 217.72C344.365 217.892 343.936 218.032 343.527 218.158C343.229 217.994 342.913 217.867 342.584 217.78C341.61 217.584 340.617 217.5 339.624 217.527C338.588 217.527 337.388 217.58 336.056 217.653C336.221 208.934 336.307 200.274 336.307 191.821C336.307 184.091 336.234 176.547 336.069 169.242C335.179 130.652 326.481 100.908 324.661 95.0773C328.077 94.287 331.255 93.6894 334.144 93.2378C334.144 94.0745 334.183 94.9046 334.216 95.7082C334.222 95.9291 334.301 96.1417 334.44 96.3125L348.829 113.672C348.932 113.799 349.065 113.897 349.216 113.959C349.367 114.02 349.531 114.043 349.693 114.024L350.583 113.924C350.843 113.888 351.079 113.752 351.243 113.545L363.634 97.4813C363.749 97.3266 363.82 97.1427 363.838 96.95L364.122 93.4569C365.849 93.8487 367.722 94.3468 369.707 94.9976L369.878 95.0574C369.12 101.665 363.831 148.436 359.611 204.876C359.297 204.927 358.991 205.019 358.701 205.149C358.182 205.387 357.7 205.7 357.27 206.078Z" fill="#2A6049"/>
<path d="M334.609 259.996C334.728 256.72 334.843 253.424 334.953 250.109C339.724 248.281 344.392 246.156 348.934 243.745C349.097 243.653 349.232 243.516 349.327 243.347C349.422 243.178 349.471 242.985 349.471 242.787C349.471 242.787 349.471 241.766 349.398 240.159L357.217 238.073C356.787 245.581 356.389 253.138 356.038 260.703C348.809 260.646 341.434 260.425 334.609 259.996Z" fill="#2A6049"/>
<path d="M370.933 92.6637C370.743 92.8258 370.618 93.0664 370.585 93.333C370.585 93.333 370.585 93.6141 370.502 94.1429L370.349 94.0826C368.581 93.4133 366.901 92.9247 365.357 92.5299L365.504 90.522C367.596 91.0435 369.661 91.7005 371.687 92.4897H371.616C371.498 92.4662 371.376 92.4695 371.259 92.4993C371.142 92.5292 371.031 92.585 370.933 92.6637Z" fill="black"/>
<path d="M350.656 262.464C345.193 262.396 339.737 262.265 334.609 262.061L334.689 260.703C341.576 260.975 349.045 261.115 356.313 261.156C356.273 261.608 356.239 262.061 356.206 262.514L352.682 262.486L350.656 262.464Z" fill="black"/>
<path d="M334.609 92.4136C331.494 92.8381 328.081 93.3999 324.406 94.1429C324.179 93.5186 324.051 93.169 324.051 93.1627C323.972 92.9612 323.817 92.7895 323.612 92.676C323.407 92.5625 323.164 92.5139 322.923 92.5384H322.852C327.109 91.6519 331.026 90.9964 334.573 90.522C334.58 91.165 334.595 91.7893 334.609 92.4136Z" fill="black"/>
<path d="M345.929 66.1705C346.745 65.721 347.428 65.072 347.912 64.2866C348.356 63.548 348.677 62.7446 348.863 61.9067C349.252 60.2709 349.328 58.5547 349.581 57.1669C349.684 56.3858 349.941 55.6319 350.34 54.9479C350.529 54.671 350.782 54.4415 351.078 54.2775C351.54 54.037 352.053 53.9083 352.576 53.9021H352.829C353.208 53.8752 353.587 53.9517 353.923 54.1233C354.082 54.2279 354.192 54.3891 354.231 54.5725C354.287 54.7915 354.313 55.0171 354.306 55.2429C354.261 56.11 354.126 56.9703 353.903 57.8105C353.655 58.7678 353.506 59.747 353.458 60.7335C353.452 61.1912 353.533 61.646 353.698 62.0743C353.898 62.5621 354.259 62.9704 354.724 63.2341C355.051 63.4135 355.411 63.5295 355.784 63.576C355.969 63.6025 356.157 63.6159 356.344 63.6162C356.819 63.6153 357.287 63.5075 357.712 63.3011C358.115 63.0908 358.464 62.7926 358.731 62.4296C359.228 61.6894 359.564 60.8562 359.716 59.9826C360.113 58.1591 360.236 55.92 360.673 53.7613C360.892 52.5779 361.257 51.4252 361.761 50.3288C362.801 50.4439 363.846 50.5043 364.893 50.5098C369.011 50.5586 373.07 49.5386 376.656 47.5533C379.002 46.226 381.113 44.5348 382.907 42.5454C383.201 46.3868 383.44 50.8316 383.44 55.3166C383.475 59.4704 383.213 63.6215 382.654 67.7392C382.093 71.5739 381.163 74.9259 379.816 77.2589C379.113 78.6231 378 79.7437 376.629 80.4702C375.899 80.8137 375.099 80.988 374.29 80.9797H364.565C364.309 80.9804 364.062 81.0751 363.873 81.245C363.685 81.415 363.568 81.648 363.546 81.8981L362.294 96.647L349.936 112.247L335.629 95.4872C335.554 93.2414 335.513 90.8547 335.513 88.3608C335.513 81.811 335.786 74.5505 336.381 67.4844C337.303 67.6193 338.233 67.6887 339.165 67.6923C341.513 67.7432 343.838 67.2202 345.929 66.1705Z" fill="white"/>
<path d="M364.377 92.5936L364.096 96.0842C364.078 96.2768 364.007 96.4605 363.893 96.6151L351.586 112.668C351.423 112.875 351.189 113.01 350.931 113.046L350.046 113.146C349.886 113.165 349.723 113.143 349.573 113.081C349.423 113.02 349.291 112.921 349.188 112.794L334.903 95.467C334.765 95.2963 334.687 95.0839 334.681 94.8631C334.681 94.0602 334.628 93.2306 334.609 92.3945C334.609 91.7309 334.609 91.0673 334.609 90.4037C334.609 89.4281 334.609 88.4128 334.609 87.424C334.609 80.7879 334.877 73.4881 335.467 66.3543C336.114 66.5257 336.77 66.6609 337.431 66.7591C336.862 73.7536 336.6 80.9405 336.6 87.424C336.6 89.8927 336.639 92.2551 336.711 94.4782L350.413 111.069L362.249 95.6263L363.447 81.0268C363.469 80.7791 363.58 80.5485 363.761 80.3803C363.942 80.212 364.178 80.1184 364.423 80.1176H373.645C374.42 80.1259 375.187 79.9533 375.885 79.6133C377.199 78.8941 378.264 77.7849 378.938 76.4346C380.247 74.1252 381.119 70.8071 381.656 67.0112C382.191 62.9353 382.442 58.8262 382.409 54.7145C382.409 50.2749 382.18 45.8751 381.898 42.0726C382.324 41.5882 382.736 41.1037 383.11 40.6127C383.313 40.3538 383.503 40.095 383.693 39.8296C384.053 44.0966 384.348 49.3657 384.348 54.7145C384.348 61.2643 383.883 67.927 382.383 73.07C381.79 75.4124 380.704 77.597 379.2 79.4739C378.512 80.2783 377.672 80.9349 376.73 81.405C375.764 81.8743 374.704 82.1149 373.632 82.1085H365.222L364.528 90.5696L364.377 92.5936Z" fill="black"/>
<path d="M374.87 45.3374C371.646 47.1414 368 48.0648 364.301 48.014C363.114 48.0122 361.928 47.934 360.751 47.7798C360.551 47.7527 360.348 47.7868 360.168 47.8776C359.987 47.9685 359.839 48.1117 359.743 48.2883C358.883 49.9404 358.31 51.7254 358.049 53.5677C357.746 55.3342 357.598 57.0405 357.376 58.3788C357.286 59.0924 357.091 59.789 356.798 60.4464C356.709 60.636 356.581 60.8047 356.422 60.9415C356.262 61.0515 356.071 61.1057 355.877 61.0954H355.608C355.498 61.0822 355.391 61.0505 355.292 61.0018L355.185 60.9081C355.083 60.7004 355.038 60.4693 355.057 60.2389C355.106 59.3982 355.239 58.5644 355.453 57.7498C355.699 56.7699 355.846 55.7678 355.891 54.7588C355.898 54.3047 355.83 53.8525 355.689 53.4205C355.536 52.9473 355.255 52.5256 354.875 52.2027C354.604 51.9726 354.292 51.7955 353.954 51.6808C353.46 51.5167 352.942 51.4375 352.421 51.4466H352.078C351.448 51.47 350.825 51.5966 350.236 51.8213C349.714 52.0292 349.241 52.3412 348.845 52.738C348.134 53.5001 347.648 54.4424 347.439 55.4614C347.281 56.1232 347.16 56.7934 347.076 57.4688C346.962 58.3788 346.875 59.2955 346.727 60.1453C346.607 61.1436 346.272 62.1045 345.745 62.9623C345.461 63.3735 345.086 63.7145 344.649 63.9593C342.898 64.8136 340.964 65.2293 339.015 65.1704C337.051 65.1761 335.102 64.8223 333.267 64.1266C331.428 63.4454 329.804 62.2909 328.56 60.7809C327.728 59.7346 327.12 58.5301 326.772 57.2413C327.848 51.8882 329.213 48.9173 330.302 47.3649C331.391 45.8125 332.191 45.6185 332.238 45.5984C332.505 45.5984 332.762 45.4927 332.951 45.3044C333.14 45.1162 333.246 44.8609 333.246 44.5947C333.246 44.3285 333.14 44.0732 332.951 43.885C332.762 43.6968 332.505 43.591 332.238 43.591H332.083C331.949 43.5575 331.74 43.5174 331.472 43.4438C330.749 43.2327 330.049 42.9526 329.381 42.6074C327.161 41.4581 325.393 39.6017 324.358 37.3346C323.299 34.9521 322.787 32.3645 322.859 29.7601C322.862 28.6824 322.925 27.6057 323.047 26.5349C323.2 24.7624 323.688 23.0346 324.486 21.4428C325.096 20.2586 325.973 19.2305 327.048 18.4384C329.123 17.0729 331.582 16.4004 334.067 16.518C336.887 16.5739 339.679 17.0823 342.336 18.0236C342.493 18.0791 342.661 18.0951 342.826 18.0702C342.99 18.0452 343.146 17.9802 343.279 17.8808C343.412 17.7814 343.519 17.6508 343.589 17.5006C343.659 17.3504 343.691 17.1852 343.681 17.0199V16.9864C343.684 16.9352 343.684 16.8838 343.681 16.8325C343.681 16.6987 343.681 16.498 343.681 16.2437C343.693 14.415 343.919 12.5939 344.353 10.817C344.843 8.44086 345.983 6.24561 347.648 4.47369C348.939 3.2155 350.577 2.36773 352.354 2.03806C353.084 1.8893 353.827 1.81309 354.573 1.81056C356.129 1.80826 357.665 2.16801 359.057 2.86109C360.391 3.53125 361.579 4.4567 362.553 5.58445C364.426 7.68329 365.503 10.3671 365.599 13.1724C365.623 14.2471 365.38 15.311 364.893 16.2704C364.779 16.4839 364.746 16.7311 364.8 16.9668C364.855 17.2024 364.993 17.4106 365.189 17.553C365.385 17.6955 365.627 17.7626 365.869 17.7421C366.111 17.7216 366.337 17.6148 366.507 17.4414C367.563 16.3214 368.825 15.4129 370.225 14.7649C371.376 14.24 372.629 13.9684 373.895 13.9686C376.522 14.0647 379.039 15.0435 381.036 16.7455C383.164 18.4646 384.858 20.6553 385.984 23.1424C386.652 24.5769 387.018 26.1321 387.06 27.7126C387.08 28.6713 386.87 29.621 386.448 30.4828L386.374 30.6567V30.7303C386.374 30.7973 386.32 30.9043 386.273 31.0381C386.179 31.3125 386.031 31.7073 385.829 32.2091C385.273 33.5603 384.622 34.8706 383.88 36.1302C381.734 39.928 378.628 43.102 374.87 45.3374Z" fill="black"/>
<path d="M382.633 43.211C380.856 45.2395 378.765 46.9641 376.442 48.3176C372.889 50.342 368.869 51.382 364.79 51.3323C363.753 51.3267 362.718 51.2651 361.688 51.1477C361.188 52.2657 360.827 53.4412 360.61 54.6478C360.177 56.849 360.055 59.1323 359.662 60.9917C359.511 61.8825 359.179 62.7321 358.687 63.4869C358.422 63.857 358.077 64.161 357.677 64.3756C357.256 64.586 356.792 64.6959 356.322 64.6969C356.137 64.6966 355.951 64.6828 355.767 64.6558C355.398 64.6085 355.042 64.4901 354.717 64.3072C354.257 64.0383 353.899 63.622 353.701 63.1246C353.538 62.6878 353.457 62.224 353.464 61.7573C353.511 60.7514 353.659 59.7529 353.904 58.7768C354.125 57.9201 354.259 57.0428 354.304 56.1586C354.31 55.9283 354.285 55.6983 354.229 55.475C354.191 55.288 354.081 55.1236 353.924 55.0169C353.591 54.842 353.216 54.7639 352.841 54.7914H352.59C352.072 54.7977 351.563 54.929 351.106 55.1742C350.813 55.3414 350.562 55.5755 350.375 55.8578C349.977 56.5501 349.717 57.3141 349.609 58.1069C349.359 59.5356 349.284 61.272 348.898 62.94C348.714 63.7944 348.396 64.6137 347.956 65.3668C347.477 66.1676 346.8 66.8295 345.992 67.2877C343.925 68.3372 341.632 68.8539 339.319 68.7917C338.396 68.7881 337.475 68.7173 336.562 68.5798C335.878 68.4786 335.199 68.3394 334.53 68.1628C333.186 67.8115 331.894 67.2804 330.689 66.5836C329.336 65.8097 328.138 64.7899 327.153 63.5757C326.095 62.2221 325.331 60.6593 324.911 58.9887C324.88 58.8399 324.88 58.6864 324.911 58.5375C326.157 52.1116 327.796 48.7209 329.246 46.8683C329.455 46.6067 329.681 46.36 329.924 46.13C326.752 44.8674 324.184 42.4187 322.756 39.2939C321.561 36.5863 320.978 33.6439 321.049 30.6804C321.051 29.5064 321.117 28.3334 321.246 27.1667C321.415 25.0879 321.973 23.0604 322.892 21.1919C323.999 19.0114 325.811 17.2774 328.027 16.2768C330.016 15.4182 332.163 14.9942 334.327 15.0326C336.929 15.0711 339.513 15.4808 342.002 16.2494C342.048 13.5002 342.559 10.7792 343.512 8.20333C344.194 6.38308 345.246 4.7273 346.602 3.34286C348.167 1.77694 350.156 0.711673 352.319 0.280291C353.188 0.0951582 354.073 0.0012314 354.961 1.08459e-05C356.842 -0.0025189 358.697 0.437525 360.38 1.2852C362.735 2.50227 364.703 4.36452 366.057 6.65837C367.364 8.76391 368.081 11.188 368.13 13.6722C368.13 13.9457 368.13 14.2123 368.089 14.4789C368.673 14.083 369.29 13.7377 369.932 13.4466C371.355 12.794 372.9 12.4561 374.464 12.4554C376.523 12.4835 378.545 13.0211 380.35 14.0209C383.075 15.5467 385.382 17.7312 387.064 20.3784C388.717 22.7992 389.657 25.6437 389.773 28.5817C389.79 29.8365 389.521 31.0783 388.987 32.2117C387.952 35.3361 386.442 38.279 384.51 40.9346C384.313 41.208 384.117 41.4746 383.907 41.7412C383.48 42.2129 383.074 42.712 382.633 43.211ZM386.454 33.1619C386.657 32.6492 386.806 32.2459 386.901 31.9656C386.948 31.8289 386.982 31.7195 387.003 31.6512V31.576L387.077 31.3982C387.503 30.5178 387.714 29.5475 387.694 28.5681C387.651 26.9535 387.282 25.3646 386.61 23.899C385.475 21.358 383.768 19.12 381.624 17.3637C379.612 15.6248 377.077 14.6248 374.43 14.5267C373.153 14.5265 371.892 14.804 370.731 15.3402C369.321 16.0023 368.049 16.9304 366.985 18.0747C366.814 18.2518 366.586 18.3609 366.342 18.3819C366.098 18.4028 365.855 18.3342 365.657 18.1887C365.46 18.0432 365.321 17.8305 365.266 17.5897C365.211 17.349 365.244 17.0964 365.359 16.8783C365.866 15.8883 366.12 14.7863 366.098 13.6722C365.998 10.7924 364.9 8.03931 362.995 5.89273C362.014 4.74057 360.816 3.7951 359.472 3.11044C358.069 2.40708 356.521 2.04425 354.954 2.05084C354.203 2.05343 353.454 2.13129 352.719 2.28327C350.928 2.62007 349.278 3.48619 347.977 4.77161C346.296 6.57377 345.14 8.80922 344.637 11.2317C344.199 13.0471 343.972 14.9075 343.96 16.7758C343.96 17.0356 343.96 17.2407 343.96 17.3774C343.962 17.4298 343.962 17.4822 343.96 17.5346V17.5688C343.969 17.7377 343.937 17.9064 343.867 18.0599C343.796 18.2134 343.689 18.3468 343.555 18.4484C343.421 18.5499 343.264 18.6163 343.098 18.6418C342.932 18.6672 342.763 18.6509 342.605 18.5942C339.943 17.65 337.148 17.1423 334.327 17.0903C331.823 16.97 329.346 17.6572 327.255 19.0522C326.169 19.8606 325.284 20.9111 324.667 22.1216C323.867 23.7556 323.382 25.5279 323.237 27.3444C323.114 28.4384 323.051 29.5384 323.048 30.6394C322.974 33.2922 323.485 35.9285 324.545 38.3574C325.578 40.6377 327.328 42.5098 329.524 43.6827C330.197 44.0354 330.903 44.3216 331.631 44.5372C331.902 44.6124 332.112 44.6534 332.247 44.6876H332.403C332.672 44.6876 332.931 44.7956 333.121 44.9879C333.312 45.1802 333.419 45.4411 333.419 45.713C333.419 45.985 333.312 46.2458 333.121 46.4381C332.931 46.6304 332.672 46.7384 332.403 46.7384C332.355 46.7384 331.57 46.923 330.452 48.5432C329.334 50.1633 327.979 53.137 326.895 58.6332C327.246 59.9499 327.859 61.1805 328.697 62.2495C329.951 63.7922 331.587 64.9717 333.439 65.6676C335.289 66.3783 337.252 66.7398 339.231 66.734C341.195 66.7942 343.144 66.3694 344.908 65.4967C345.348 65.2466 345.726 64.8982 346.012 64.4781C346.543 63.6018 346.881 62.6201 347.001 61.6001C347.15 60.7388 347.238 59.8022 347.353 58.8657C347.437 58.1757 347.559 57.491 347.719 56.8148C347.929 55.7738 348.419 54.8111 349.135 54.0325C349.534 53.6271 350.011 53.3084 350.537 53.096C351.131 52.8664 351.758 52.7371 352.393 52.7132H352.739C353.263 52.7039 353.786 52.7848 354.283 52.9524C354.623 53.0696 354.938 53.2505 355.211 53.4857C355.594 53.8155 355.878 54.2464 356.031 54.7298C356.173 55.1712 356.242 55.6331 356.234 56.097C356.189 57.1279 356.042 58.1517 355.794 59.1528C355.578 59.985 355.444 60.8369 355.394 61.6958C355.376 61.9312 355.42 62.1673 355.523 62.3794L355.631 62.4751C355.731 62.5249 355.839 62.5573 355.95 62.5708H356.221C356.416 62.5813 356.609 62.526 356.77 62.4136C356.93 62.2738 357.059 62.1014 357.149 61.9077C357.444 61.2361 357.641 60.5244 357.731 59.7954C357.962 58.4282 358.111 56.6849 358.409 54.8802C358.672 52.998 359.249 51.1743 360.116 49.4865C360.213 49.3061 360.362 49.1598 360.544 49.067C360.725 48.9742 360.93 48.9393 361.132 48.967C362.318 49.1246 363.513 49.2045 364.709 49.2063C368.435 49.2582 372.109 48.3148 375.358 46.4718C379.129 44.1956 382.248 40.9679 384.408 37.1064C385.181 35.8417 385.865 34.5236 386.454 33.1619Z" fill="black"/>
<path d="M315.457 218.154C312.206 218.189 308.956 217.985 305.738 217.545C303.166 217.239 300.677 216.478 298.397 215.299C297.267 214.69 296.324 213.807 295.663 212.739C294.625 210.849 293.932 208.803 293.612 206.69C293.189 204.176 292.988 201.633 293.011 199.088C293.011 189.123 295.464 178.444 295.745 177.18V177.056C295.806 176.803 295.761 176.537 295.619 176.316C295.477 176.096 295.249 175.938 294.986 175.877H294.911L307.672 99.9523L308.02 99.8279C309.178 99.3914 310.388 99.0051 311.65 98.6689L308.615 125.003C308.6 125.139 308.614 125.278 308.658 125.408C308.701 125.539 308.773 125.66 308.868 125.762L320.105 137.954L314.452 157.498C314.409 157.646 314.403 157.8 314.433 157.951C314.464 158.101 314.532 158.242 314.63 158.362L314.753 158.513L315.102 158.952C315.409 159.345 315.86 159.914 316.414 160.641C317.521 162.088 319.059 164.157 320.768 166.625C324.185 171.569 328.327 178.11 331.123 184.474C332.996 188.71 334.26 192.868 334.37 196.344C334.377 196.561 334.462 196.769 334.609 196.934C334.609 203.599 334.486 210.376 334.356 217.185L329.237 217.545C324.91 217.846 320.091 218.154 315.457 218.154Z" fill="white"/>
<path d="M325.953 171.358C322.94 166.656 319.679 162.102 316.181 157.714L321.967 137.874C322.014 137.715 322.017 137.547 321.978 137.386C321.939 137.225 321.859 137.076 321.744 136.952L310.191 124.522L313.333 97.5053C316.288 96.8098 319.286 96.2914 322.309 95.9531C322.372 96.1389 322.442 96.3577 322.526 96.6164C322.833 97.565 323.28 98.9712 323.817 100.795C324.892 104.437 326.33 109.75 327.81 116.403C331.698 133.946 333.892 151.79 334.365 169.713C334.511 175.729 334.588 181.951 334.609 188.286C334.144 186.932 333.601 185.568 332.982 184.193C330.962 179.762 328.613 175.473 325.953 171.358Z" fill="white"/>
<path d="M328.791 340.331C328.048 350.364 327.452 357.582 327.077 360.692C315.573 364.694 303.467 366.696 291.285 366.612C278.372 366.624 265.534 364.659 253.217 360.786C255.145 353.394 268.613 301.321 277.449 253.174C278.997 253.861 280.584 254.457 282.202 254.96C287.647 256.585 293.307 257.379 298.99 257.315C311.554 257.315 324.172 254.03 333.704 250.746C332.419 286.177 330.324 319.461 328.791 340.331ZM294.92 303.575C290.703 302.726 286.506 301.207 283.54 298.692C283.44 298.604 283.324 298.537 283.197 298.494C283.071 298.452 282.938 298.434 282.805 298.443C282.672 298.451 282.542 298.486 282.422 298.545C282.303 298.604 282.196 298.686 282.108 298.786C282.02 298.886 281.953 299.003 281.91 299.129C281.867 299.255 281.849 299.388 281.858 299.521C281.867 299.654 281.902 299.784 281.96 299.903C282.019 300.023 282.101 300.13 282.202 300.217C285.548 303.074 290.053 304.645 294.465 305.569C298.35 306.311 302.297 306.674 306.253 306.652C308.783 306.652 310.423 306.518 310.443 306.512C310.575 306.5 310.703 306.463 310.821 306.402C310.938 306.341 311.042 306.258 311.127 306.156C311.213 306.055 311.277 305.938 311.317 305.812C311.357 305.686 311.371 305.553 311.36 305.421C311.349 305.29 311.311 305.161 311.25 305.044C311.189 304.927 311.106 304.822 311.004 304.737C310.903 304.652 310.786 304.588 310.66 304.548C310.534 304.508 310.401 304.494 310.269 304.505H310.242H310.035C309.847 304.505 309.573 304.538 309.225 304.552C308.555 304.585 307.518 304.619 306.286 304.619C302.472 304.64 298.666 304.29 294.92 303.575Z" fill="white"/>
<path d="M307.479 96.8584C305.305 97.9039 303.191 99.1134 301.148 100.479C303.162 99.0491 305.281 97.8372 307.479 96.8584Z" fill="black"/>
<path d="M312.19 95.4437L312.011 97.7327C310.632 98.2946 309.314 98.9085 308.059 99.5744L308.223 99.4807C308.502 99.3428 308.731 99.0553 308.858 98.6816C308.986 98.308 309.002 97.8787 308.904 97.4882C308.805 97.0977 308.599 96.7781 308.332 96.5995C308.065 96.421 307.758 96.3982 307.478 96.5362C309.19 95.6483 310.999 94.8506 312.904 94.1431C312.711 94.2468 312.542 94.4232 312.416 94.6527C312.29 94.8822 312.212 95.1559 312.19 95.4437Z" fill="black"/>
<path d="M324.308 93.9037C324.308 93.9037 324.428 94.2678 324.641 94.943C326.481 100.755 335.311 130.404 336.177 168.87C336.344 176.152 336.417 183.652 336.417 191.377C336.417 199.804 336.331 208.436 336.164 217.127L334.164 217.253C334.29 210.369 334.377 203.517 334.41 196.779C334.505 196.898 334.627 196.993 334.766 197.056C334.905 197.12 335.058 197.149 335.21 197.143C335.475 197.132 335.725 197.019 335.906 196.827C336.087 196.635 336.185 196.38 336.177 196.117C336.001 193.18 335.406 190.282 334.41 187.511C334.41 181.17 334.317 174.934 334.177 168.976C333.725 151.09 331.629 133.283 327.915 115.775C326.501 109.155 325.128 103.86 324.101 100.199C323.587 98.3785 323.161 96.9752 322.867 96.0286C322.787 95.7704 322.72 95.552 322.66 95.3666C319.772 95.7043 316.908 96.2216 314.085 96.9156L314.165 96.2536C314.183 96.0926 314.161 95.9296 314.101 95.779C314.041 95.6284 313.944 95.4948 313.819 95.3901C313.695 95.2854 313.546 95.2127 313.387 95.1786C313.227 95.1445 313.061 95.15 312.904 95.1945C316.286 94.2944 319.729 93.6417 323.207 93.2417H323.274C323.496 93.222 323.718 93.2764 323.905 93.3964C324.093 93.5163 324.234 93.6948 324.308 93.9037Z" fill="black"/>
<path d="M277.062 252.991C268.195 301.146 254.697 353.2 252.764 360.59C265.115 364.463 277.989 366.427 290.937 366.415C303.152 366.5 315.291 364.498 326.827 360.496C327.176 357.386 327.801 350.203 328.546 340.138C330.103 319.271 332.184 285.964 333.473 250.563L333.64 250.51L335.513 249.841C335.406 252.962 335.289 256.047 335.164 259.097L335.084 261.104C334.533 274.48 333.882 287.408 333.211 299.28C332.311 315.331 331.358 329.47 330.559 340.285C329.761 351.1 329.096 358.584 328.754 361.359C328.73 361.545 328.654 361.72 328.535 361.865C328.417 362.011 328.26 362.12 328.083 362.182C316.152 366.4 303.575 368.511 290.917 368.422C284.527 368.414 278.147 367.94 271.827 367.004L269.813 366.696C263.476 365.733 257.234 364.222 251.16 362.182C250.927 362.093 250.734 361.922 250.619 361.701C250.504 361.481 250.474 361.226 250.535 360.985C250.535 360.985 250.663 360.51 250.898 359.6C252.67 352.818 260.651 321.892 268.189 286.8C270.632 275.43 273.022 263.645 275.143 252.088C275.807 252.402 276.438 252.703 277.062 252.991Z" fill="black"/>
<path d="M388.349 228.408C389.345 227.424 390.134 226.252 390.668 224.961C391.203 223.67 391.473 222.286 391.463 220.89C391.36 218.102 390.579 215.381 389.188 212.958C388.371 211.45 387.416 210.02 386.336 208.686C386.282 208.626 386.249 208.572 386.242 208.566C385.8 207.985 385.216 207.526 384.544 207.233C383.894 206.957 383.192 206.82 382.484 206.833C381.283 206.867 380.097 207.111 378.981 207.553C377.71 208.028 376.476 208.599 375.29 209.259C372.808 210.592 370.318 212.272 368.218 213.571C367.113 214.296 365.953 214.933 364.748 215.478C364.211 215.691 363.782 215.838 363.46 215.931H363.393C363.467 215.698 363.567 215.411 363.681 215.091C364.007 214.225 364.261 213.333 364.44 212.425C364.502 212.055 364.533 211.68 364.534 211.305C364.525 210.286 364.348 209.275 364.01 208.313C363.698 207.323 363.117 206.437 362.332 205.753C362.153 205.612 361.96 205.489 361.755 205.386C361.755 205.293 361.755 205.193 361.755 205.093C361.908 203.564 362.259 202.06 362.802 200.621C363.47 198.795 364.257 197.014 365.158 195.289C367.264 191.301 369.615 187.446 372.197 183.744C377.364 176.213 382.746 169.714 383.927 168.294L384.169 168.014C384.268 167.898 384.339 167.761 384.376 167.613C384.413 167.465 384.416 167.31 384.383 167.161L379.605 144.726L388.866 138.774C389.018 138.676 389.141 138.539 389.222 138.377C389.302 138.215 389.337 138.034 389.322 137.854L386.551 103.195C388.913 105.114 391.109 107.228 393.114 109.513L393.181 109.573V109.607L393.288 109.707L393.691 110.1C394.04 110.453 394.55 110.967 395.174 111.626C396.429 112.959 398.153 114.846 400.019 117.152C403.757 121.771 408.071 128.023 410.366 134.482C410.44 134.683 410.576 134.855 410.754 134.975C410.932 135.095 411.144 135.155 411.36 135.148L411.42 136.741L413.339 182.978C413.073 182.992 412.824 183.11 412.645 183.306C412.467 183.502 412.373 183.76 412.386 184.024C413.728 209.352 414.191 239.566 414.191 267.933C414.191 312.304 413.118 352.102 412.849 361.353C412.849 361.953 412.849 362.42 412.809 362.76C412.514 362.886 412.138 363.066 411.581 363.273C409.939 363.934 408.263 364.51 406.562 364.999C400.895 366.655 395.021 367.503 389.114 367.519C377.623 367.549 366.394 364.109 356.917 357.654C356.508 348.13 356.313 337.952 356.313 327.334C356.313 299.34 357.615 268.36 359.48 238.346C364.104 237.206 369.909 235.773 377.076 233.994C382.471 232.641 386.088 230.714 388.349 228.408ZM377.263 306.438C378.434 306.765 379.634 306.977 380.847 307.072C382.189 307.198 383.578 307.245 385.001 307.245C388.866 307.205 392.727 306.946 396.563 306.472C396.695 306.455 396.823 306.412 396.938 306.346C397.054 306.28 397.155 306.192 397.236 306.087C397.318 305.982 397.377 305.862 397.412 305.734C397.447 305.607 397.456 305.473 397.439 305.342C397.421 305.211 397.378 305.084 397.312 304.969C397.245 304.855 397.157 304.754 397.051 304.673C396.946 304.592 396.825 304.533 396.696 304.499C396.568 304.464 396.433 304.455 396.301 304.472H396.046L395.321 304.559C394.691 304.632 393.791 304.725 392.724 304.819C390.584 305.012 387.745 305.199 384.994 305.199C383.652 305.199 382.263 305.152 381.028 305.039C379.948 304.952 378.878 304.765 377.834 304.479C377.705 304.433 377.569 304.414 377.432 304.423C377.296 304.431 377.163 304.467 377.041 304.529C376.919 304.59 376.811 304.675 376.724 304.779C376.636 304.883 376.571 305.004 376.532 305.134C376.493 305.264 376.48 305.4 376.496 305.535C376.512 305.669 376.555 305.8 376.622 305.917C376.69 306.035 376.781 306.138 376.89 306.219C376.999 306.301 377.124 306.359 377.257 306.392L377.263 306.438Z" fill="white"/>
<path d="M387.061 137.764L377.539 143.739C377.365 143.85 377.23 144.008 377.151 144.194C377.071 144.38 377.052 144.585 377.094 144.782L382.009 167.357C380.291 169.349 372.001 179.182 365.847 189.049C364.34 191.436 362.969 193.901 361.739 196.433C365.847 145.838 370.604 104.678 371.59 96.3714C371.59 96.2187 371.59 96.0859 371.638 95.9531L372.446 96.1855C374.199 96.72 375.906 97.386 377.553 98.1774C379.855 99.2923 382.058 100.592 384.138 102.062L387.061 137.764Z" fill="white"/>
<path d="M399.67 368.315C396.015 368.986 392.308 369.325 388.592 369.33C376.776 369.355 365.239 365.711 355.55 358.893C355.424 358.807 355.319 358.692 355.245 358.557C355.17 358.422 355.129 358.272 355.123 358.117C354.695 348.463 354.504 338.14 354.504 327.365C354.504 306.81 355.202 284.572 356.3 262.339C356.3 261.676 356.366 261.013 356.405 260.35C356.754 253.328 357.149 246.313 357.576 239.345L359.55 238.841C357.78 268.678 356.465 299.53 356.465 327.365C356.465 337.927 356.655 348.052 357.057 357.527C366.336 363.94 377.328 367.362 388.579 367.341C394.369 367.325 400.128 366.481 405.682 364.834C407.351 364.347 408.993 363.774 410.603 363.117C411.122 362.911 411.517 362.732 411.807 362.606C411.807 362.268 411.807 361.804 411.846 361.207C412.109 352.004 413.162 312.413 413.162 268.274C413.162 240.054 412.734 209.978 411.392 184.802C411.38 184.539 411.471 184.282 411.646 184.087C411.821 183.892 412.066 183.775 412.326 183.761C412.585 183.748 412.839 183.84 413.031 184.015C413.223 184.19 413.339 184.435 413.352 184.696C414.188 200.49 414.668 218.193 414.918 236.149C414.918 236.812 414.918 237.475 414.918 238.138C415.043 248.223 415.096 258.361 415.096 268.274C415.096 318.752 413.721 363.269 413.721 363.276C413.715 363.456 413.661 363.631 413.565 363.783C413.469 363.934 413.334 364.057 413.175 364.138C409.455 365.846 405.552 367.118 401.545 367.931C400.992 368.063 400.341 368.196 399.67 368.315Z" fill="black"/>
<path d="M410.782 135.29C410.689 135.321 410.592 135.339 410.493 135.344C410.283 135.351 410.075 135.29 409.9 135.17C409.726 135.05 409.593 134.877 409.521 134.675C407.267 128.202 403.049 121.93 399.389 117.29C397.562 114.976 395.873 113.071 394.644 111.747C394.033 111.078 393.534 110.57 393.192 110.216L392.798 109.821L392.693 109.721V109.687L392.627 109.627C390.664 107.334 388.514 105.214 386.201 103.288L386.043 101.282C386.033 101.151 385.997 101.022 385.938 100.905C385.879 100.787 385.798 100.682 385.699 100.597C385.6 100.511 385.485 100.446 385.362 100.405C385.238 100.365 385.108 100.349 384.979 100.36C384.849 100.37 384.723 100.407 384.608 100.467C384.492 100.527 384.389 100.61 384.305 100.71C384.221 100.811 384.157 100.927 384.117 101.053C384.077 101.179 384.062 101.311 384.072 101.443V101.63C382.075 100.15 379.961 98.8413 377.751 97.7186C376.17 96.9215 374.532 96.2508 372.849 95.7126L372.074 95.4786C372.074 95.6123 372.074 95.746 372.028 95.8998C371.081 104.265 366.502 145.714 362.572 196.666C362.047 197.809 361.58 198.926 361.192 200.009C360.54 201.727 360.116 203.526 359.931 205.358C359.931 205.405 359.931 205.445 359.931 205.485C364.136 148.65 369.406 101.563 370.161 94.9102C370.221 94.382 370.253 94.1012 370.253 94.1012C370.291 93.8349 370.43 93.5944 370.641 93.4325C370.75 93.3528 370.874 93.2958 371.005 93.2648C371.135 93.2338 371.271 93.2294 371.403 93.252H371.482C373.965 93.8392 376.366 94.7376 378.631 95.9266C382.654 97.9832 386.375 100.603 389.683 103.71C390.998 104.92 392.312 106.257 393.626 107.722L393.849 107.976L394.086 108.236C394.309 108.464 396.451 110.57 399.231 113.887C399.783 114.555 400.361 115.257 400.959 116.013C404.691 120.734 409.015 127.133 411.4 133.939C411.454 134.069 411.481 134.208 411.478 134.348C411.476 134.489 411.445 134.627 411.386 134.755C411.328 134.882 411.244 134.995 411.14 135.088C411.036 135.18 410.914 135.249 410.782 135.29Z" fill="black"/>
<path d="M356.611 210.484C357.214 209.496 357.923 208.572 358.726 207.728C359.17 207.238 359.707 206.836 360.307 206.543C360.523 206.448 360.755 206.396 360.992 206.39C361.276 206.393 361.551 206.494 361.765 206.676C362.083 206.944 362.342 207.273 362.525 207.642C362.98 208.588 363.214 209.62 363.209 210.664C363.21 210.923 363.187 211.182 363.141 211.436C363.026 212.047 362.863 212.648 362.655 213.234C362.456 213.807 362.251 214.332 362.101 214.832C361.986 215.16 361.924 215.504 361.916 215.85C361.907 216.144 361.983 216.435 362.135 216.689C362.323 216.988 362.618 217.209 362.963 217.308C363.154 217.363 363.352 217.39 363.552 217.388C363.951 217.378 364.348 217.313 364.729 217.195C365.242 217.051 365.747 216.88 366.242 216.683C367.21 216.27 368.148 215.791 369.048 215.251C370.075 214.645 371.204 213.92 372.381 213.207C374.68 211.71 377.087 210.375 379.582 209.213C380.828 208.613 382.185 208.26 383.573 208.174C384.009 208.164 384.442 208.241 384.846 208.401C385.213 208.558 385.532 208.806 385.77 209.12L385.9 209.279L386.098 209.519C386.256 209.712 386.461 209.978 386.701 210.298C387.308 211.115 387.868 211.964 388.378 212.841C389.569 214.905 390.685 217.588 390.678 220.218C390.691 221.355 390.468 222.483 390.022 223.534C389.576 224.585 388.917 225.538 388.083 226.336C386.153 228.273 382.861 230.077 377.563 231.369C363.819 234.698 354.975 236.841 349.835 238.073C349.835 237.827 349.835 237.58 349.787 237.327C349.577 233.79 349.12 230.271 348.418 226.795C347.999 224.602 347.269 222.475 346.248 220.477C346.016 220.062 345.753 219.663 345.461 219.286L345.618 219.232C350.191 217.604 354.064 214.521 356.611 210.484Z" fill="white"/>
<path d="M348.855 237.938C353.958 236.75 362.795 234.695 376.496 231.471C381.777 230.226 385.059 228.486 386.983 226.617C387.814 225.848 388.472 224.929 388.916 223.915C389.36 222.901 389.583 221.813 389.569 220.716C389.569 218.18 388.464 215.579 387.277 213.601C386.768 212.755 386.21 211.936 385.605 211.148C385.366 210.84 385.162 210.583 385.005 210.397L384.807 210.166L384.677 210.012C384.44 209.709 384.122 209.47 383.756 209.318C383.353 209.165 382.921 209.09 382.487 209.1C381.103 209.182 379.751 209.523 378.509 210.102C376.021 211.223 373.622 212.51 371.331 213.954C370.157 214.661 369.031 215.341 368.008 215.926C367.111 216.447 366.176 216.908 365.21 217.306C364.717 217.497 364.214 217.662 363.702 217.801C363.322 217.914 362.927 217.977 362.529 217.987C362.33 217.989 362.132 217.963 361.942 217.91C361.598 217.814 361.303 217.601 361.116 217.313C360.965 217.067 360.889 216.787 360.898 216.504C360.906 216.169 360.968 215.838 361.082 215.521C361.232 215.04 361.437 214.532 361.635 213.98C361.842 213.415 362.004 212.835 362.119 212.246C362.165 212 362.188 211.751 362.187 211.502C362.192 210.494 361.959 209.499 361.505 208.586C361.323 208.231 361.065 207.914 360.748 207.655C360.533 207.466 360.251 207.358 359.956 207.353C359.721 207.36 359.489 207.41 359.274 207.501C358.675 207.783 358.14 208.172 357.698 208.644C356.897 209.458 356.191 210.349 355.589 211.302C353.056 215.202 349.197 218.182 344.638 219.759L344.481 219.811C344.131 219.361 343.716 218.961 343.246 218.623C343.089 218.513 342.918 218.417 342.748 218.321C343.171 218.199 343.614 218.064 344.071 217.897C348.127 216.453 351.556 213.778 353.815 210.294C354.649 208.935 355.7 207.704 356.933 206.647C357.38 206.281 357.881 205.978 358.421 205.748C358.721 205.622 359.038 205.534 359.363 205.485C359.373 205.706 359.465 205.917 359.622 206.082C359.779 206.247 359.992 206.355 360.225 206.388C360.458 206.422 360.696 206.378 360.898 206.265C361.1 206.152 361.255 205.976 361.334 205.767H361.375C361.583 205.866 361.78 205.984 361.962 206.121C362.76 206.78 363.35 207.633 363.668 208.586C364.012 209.514 364.191 210.487 364.2 211.469C364.2 211.831 364.168 212.192 364.105 212.548C363.923 213.423 363.665 214.282 363.334 215.117C363.218 215.425 363.115 215.701 363.04 215.926H363.109C363.436 215.836 363.873 215.695 364.419 215.489C365.644 214.965 366.823 214.351 367.946 213.653C370.082 212.4 372.613 210.802 375.138 209.498C376.343 208.862 377.598 208.313 378.891 207.854C380.026 207.429 381.231 207.194 382.453 207.161C383.172 207.149 383.886 207.28 384.547 207.546C385.23 207.828 385.824 208.271 386.274 208.83C386.274 208.83 386.315 208.888 386.369 208.946C387.468 210.232 388.438 211.609 389.269 213.062C390.684 215.396 391.477 218.018 391.582 220.703C391.593 222.048 391.318 223.381 390.775 224.625C390.231 225.868 389.429 226.998 388.416 227.946C386.117 230.168 382.473 232.024 376.953 233.327C369.666 235.042 363.764 236.422 359.062 237.52L357.015 238.008L348.964 239.883C348.936 239.318 348.902 238.663 348.855 237.938Z" fill="black"/>
<path d="M295.658 175.933C295.407 175.891 295.149 175.945 294.938 176.083C294.726 176.222 294.575 176.434 294.518 176.677C294.518 176.717 291.74 188.282 291.74 199.287C291.712 201.963 291.919 204.636 292.357 207.276C292.715 209.631 293.482 211.908 294.625 214.007C295.458 215.376 296.636 216.51 298.046 217.3C299.609 218.177 301.292 218.827 303.044 219.23C307.229 220.13 311.508 220.539 315.791 220.449C320.427 220.449 325.183 220.146 329.456 219.836C333.73 219.526 337.46 219.23 339.982 219.23C340.83 219.206 341.678 219.27 342.512 219.421C343.076 219.596 343.567 219.945 343.914 220.416C344.478 221.139 344.93 221.94 345.256 222.793C346.14 225.15 346.759 227.595 347.1 230.084C347.703 233.971 348.062 237.89 348.174 241.82L347.61 242.09C346.872 242.439 345.786 242.94 344.404 243.539C341.64 244.745 337.695 246.352 332.999 247.959C323.553 251.166 311.014 254.367 298.697 254.367C290.358 254.367 282.14 252.905 275.022 249.045C267.904 245.186 261.846 238.942 257.76 229.195C255.043 222.694 253.225 214.633 252.615 204.701C252.414 201.342 252.313 198.08 252.313 194.914C252.313 157.591 266.026 133.921 279.919 119.425C292.619 106.187 305.513 100.648 308.223 99.5742L295.658 175.933Z" fill="white"/>
<path d="M309.858 97.4842C309.902 97.6076 309.922 97.7386 309.916 97.8695C309.909 98.0005 309.876 98.1289 309.82 98.2474C309.763 98.3659 309.682 98.4721 309.584 98.56C309.485 98.6479 309.37 98.7157 309.244 98.7596L309.096 98.8194L308.752 98.9456C306.057 100.028 293.077 105.588 280.319 118.966C266.362 133.58 252.593 157.46 252.587 195.103C252.587 198.301 252.688 201.591 252.89 204.974C253.503 214.991 255.329 223.122 258.059 229.678C262.163 239.509 268.249 245.8 275.399 249.699C282.55 253.598 290.805 255.066 299.182 255.066C311.556 255.066 324.118 251.838 333.641 248.603C338.358 246.982 342.348 245.361 345.098 244.146C346.486 243.541 347.578 243.036 348.319 242.684L348.885 242.412C348.793 238.447 348.453 234.492 347.867 230.568C347.524 228.058 346.903 225.592 346.014 223.215C345.687 222.355 345.233 221.547 344.666 220.817C344.318 220.342 343.824 219.991 343.258 219.814C342.42 219.662 341.568 219.597 340.717 219.621C338.183 219.621 334.416 219.927 330.143 220.232C325.87 220.538 321.072 220.85 316.415 220.85C312.112 220.942 307.814 220.529 303.61 219.621C301.85 219.214 300.159 218.559 298.589 217.675C297.173 216.878 295.989 215.734 295.152 214.354C293.987 212.246 293.199 209.956 292.82 207.585C292.38 204.924 292.173 202.23 292.2 199.534C292.2 188.434 294.984 176.77 294.991 176.73C295.049 176.485 295.2 176.271 295.413 176.131C295.625 175.992 295.884 175.937 296.136 175.98H296.21C296.47 176.041 296.694 176.201 296.835 176.425C296.975 176.649 297.019 176.919 296.958 177.175V177.301C296.662 178.583 294.263 189.417 294.263 199.527C294.24 202.11 294.439 204.69 294.856 207.239C295.171 209.384 295.854 211.459 296.878 213.377C297.53 214.461 298.459 215.356 299.573 215.974C301.822 217.17 304.276 217.942 306.811 218.253C309.985 218.699 313.189 218.906 316.395 218.871C320.964 218.871 325.715 218.565 329.981 218.259L335.029 217.894L337.051 217.768C338.399 217.695 339.639 217.642 340.697 217.642C341.712 217.614 342.727 217.699 343.723 217.894C344.058 217.981 344.382 218.109 344.687 218.273C344.855 218.372 345.023 218.472 345.178 218.585C345.642 218.935 346.053 219.349 346.398 219.814C346.686 220.191 346.945 220.588 347.173 221.003C348.178 222.997 348.897 225.118 349.31 227.307C350.001 230.775 350.451 234.286 350.658 237.815C350.658 238.068 350.691 238.313 350.705 238.559C350.752 239.31 350.786 239.987 350.813 240.585C350.88 242.08 350.887 243.016 350.887 243.03C350.887 243.213 350.836 243.393 350.74 243.55C350.644 243.707 350.506 243.835 350.341 243.92C345.721 246.162 340.973 248.138 336.121 249.838L334.241 250.503L334.072 250.556C324.475 253.817 311.772 257.072 299.122 257.079C293.4 257.143 287.702 256.354 282.219 254.74C280.591 254.241 278.993 253.649 277.435 252.967C276.801 252.681 276.168 252.382 275.548 252.07C269.724 249.157 264.742 244.841 261.065 239.522C255.478 231.551 251.744 220.392 250.814 205.114C250.607 201.686 250.504 198.365 250.504 195.15C250.504 175.787 254.11 159.944 259.542 147.091C266.028 131.493 276.572 117.855 290.111 107.554C293.586 104.916 297.253 102.533 301.083 100.427C303.364 99.1565 305.725 98.0316 308.152 97.0591L308.537 96.9196H308.57C308.817 96.8301 309.09 96.8391 309.33 96.9445C309.571 97.0499 309.76 97.2435 309.858 97.4842Z" fill="black"/>
<path d="M150.209 297.834C149.664 298.404 149.016 298.856 148.303 299.164C147.589 299.472 146.825 299.629 146.052 299.628C144.493 299.628 142.998 298.983 141.896 297.834C140.794 296.686 140.174 295.128 140.174 293.504V249.841H151.931V293.504C151.932 294.308 151.781 295.105 151.485 295.848C151.19 296.592 150.756 297.266 150.209 297.834Z" fill="white"/>
<path d="M140.174 237.167H151.931V242.599H140.174V237.167Z" fill="white"/>
<path d="M146.052 301.438C143.774 301.438 141.588 300.585 139.977 299.066C138.366 297.547 137.461 295.486 137.461 293.338V249.841H139.582V293.338C139.582 294.956 140.264 296.507 141.477 297.651C142.691 298.795 144.336 299.438 146.052 299.438C147.768 299.438 149.414 298.795 150.627 297.651C151.841 296.507 152.522 294.956 152.522 293.338V249.841H154.644V293.338C154.644 295.486 153.738 297.547 152.127 299.066C150.516 300.585 148.331 301.438 146.052 301.438Z" fill="black"/>
<path d="M151.931 237.167H154.644V242.599H151.931V237.167Z" fill="black"/>
<path d="M137.461 237.167H140.174V242.599H137.461V237.167Z" fill="black"/>
<path d="M135.652 224.495H155.548V235.357H135.652V224.495Z" fill="#2A6049"/>
<path d="M151.146 237.168H133.09C132.81 237.168 132.542 237.062 132.344 236.874C132.146 236.685 132.035 236.43 132.035 236.164V222.782C132.036 222.517 132.148 222.262 132.344 222.073C132.542 221.885 132.81 221.779 133.09 221.779H156.301C156.583 221.779 156.854 221.885 157.054 222.073C157.246 222.264 157.354 222.518 157.356 222.782V236.164C157.354 236.428 157.246 236.682 157.054 236.873C156.854 237.062 156.583 237.168 156.301 237.168H151.117H151.146ZM155.26 223.786H134.159V235.16H155.26V223.786Z" fill="black"/>
<path d="M106.793 297.834C106.249 298.404 105.602 298.856 104.889 299.164C104.176 299.472 103.412 299.63 102.641 299.628C101.868 299.629 101.103 299.471 100.39 299.163C99.6762 298.856 99.0278 298.405 98.482 297.836C97.9362 297.267 97.5037 296.591 97.2091 295.848C96.9145 295.105 96.7638 294.308 96.7655 293.504V249.841H108.522V293.504C108.523 294.309 108.37 295.106 108.073 295.849C107.777 296.592 107.341 297.267 106.793 297.834Z" fill="white"/>
<path d="M96.7655 237.167H108.522V242.599H96.7655V237.167Z" fill="white"/>
<path d="M102.191 301.438C101.003 301.438 99.8265 301.229 98.7288 300.822C97.6311 300.414 96.6339 299.818 95.794 299.065C94.9541 298.313 94.2881 297.42 93.8341 296.437C93.3801 295.454 93.1469 294.401 93.1479 293.338V249.841H95.3827V293.338C95.3808 294.139 95.5555 294.932 95.8969 295.673C96.2382 296.413 96.7395 297.086 97.3721 297.653C98.0046 298.22 98.7559 298.669 99.5829 298.975C100.41 299.282 101.296 299.439 102.191 299.438C103.998 299.436 105.73 298.793 107.006 297.649C108.283 296.505 109 294.954 109 293.338V249.841H111.235V293.338C111.235 295.485 110.282 297.544 108.587 299.063C106.891 300.582 104.591 301.437 102.191 301.438Z" fill="black"/>
<path d="M108.522 237.167H111.235V242.599H108.522V237.167Z" fill="black"/>
<path d="M93.1477 237.167H96.7651V242.599H93.1477V237.167Z" fill="black"/>
<path d="M91.3391 224.495H113.043V235.357H91.3391V224.495Z" fill="#2A6049"/>
<path d="M108.207 237.168H91.4144C91.1546 237.168 90.9054 237.062 90.7217 236.874C90.5379 236.685 90.4347 236.43 90.4347 236.164V222.782C90.4347 222.516 90.5379 222.261 90.7217 222.073C90.9054 221.885 91.1546 221.779 91.4144 221.779H112.968C113.228 221.779 113.477 221.885 113.661 222.073C113.845 222.261 113.948 222.516 113.948 222.782V236.164C113.948 236.43 113.845 236.685 113.661 236.874C113.477 237.062 113.228 237.168 112.968 237.168H108.148H108.207ZM112.047 223.786H92.4529V235.16H112.047V223.786Z" fill="black"/>
<path d="M53.3568 237.167H65.1133V242.599H53.3568V237.167Z" fill="white"/>
<path d="M63.3906 297.834C62.8453 298.404 62.1971 298.856 61.4833 299.164C60.7696 299.472 60.0044 299.629 59.2318 299.628C57.6731 299.626 56.1787 298.98 55.0771 297.832C53.9755 296.684 53.3568 295.127 53.3568 293.504V249.841H65.1133V293.504C65.1136 294.308 64.9616 295.105 64.666 295.848C64.3704 296.591 63.937 297.266 63.3906 297.834Z" fill="white"/>
<path d="M59.2278 301.438C56.9498 301.435 54.7664 300.58 53.157 299.061C51.5476 297.542 50.6436 295.484 50.6436 293.338V249.841H52.7666V293.338C52.7666 294.954 53.4478 296.505 54.6607 297.649C55.8735 298.793 57.5187 299.436 59.2349 299.438C60.0851 299.439 60.9272 299.282 61.7129 298.975C62.4985 298.669 63.2122 298.22 63.8131 297.653C64.414 297.086 64.8904 296.413 65.2147 295.673C65.539 294.932 65.705 294.139 65.7031 293.338V249.841H67.8262V293.338C67.8271 294.402 67.6053 295.455 67.1735 296.439C66.7417 297.422 66.1084 298.315 65.3098 299.068C64.5112 299.82 63.5629 300.417 62.5193 300.824C61.4757 301.23 60.3572 301.439 59.2278 301.438Z" fill="black"/>
<path d="M50.6434 237.167H53.3564V242.599H50.6434V237.167Z" fill="black"/>
<path d="M65.1131 237.167H67.8262V242.599H65.1131V237.167Z" fill="black"/>
<path d="M49.7391 224.495H69.6348V235.357H49.7391V224.495Z" fill="#2A6049"/>
<path d="M66.3331 237.168H48.9462C48.6772 237.166 48.4195 237.06 48.2283 236.873C48.0377 236.685 47.9305 236.43 47.9303 236.164V222.782C47.9303 222.516 48.0373 222.261 48.2278 222.073C48.4184 221.885 48.6768 221.779 48.9462 221.779H71.3317C71.6011 221.779 71.8596 221.885 72.0501 222.073C72.2406 222.261 72.3477 222.516 72.3477 222.782V236.164C72.3477 236.43 72.2406 236.685 72.0501 236.874C71.8596 237.062 71.6011 237.168 71.3317 237.168H66.3331ZM70.3157 223.786H49.9622V235.16H70.3157V223.786Z" fill="black"/>
<path d="M40.7648 309.585H164.522H174.539V313.206H30.7478V309.585H40.7648Z" fill="black"/>
<path d="M30.2959 310.526H30.748V313.206H29.8437V309.585C29.8437 309.835 29.8913 310.074 29.9761 310.251C30.0609 310.427 30.1759 310.526 30.2959 310.526Z" fill="black"/>
<path d="M41.4058 309.32C41.4997 309.236 41.5742 309.137 41.6249 309.027C41.6755 308.917 41.7012 308.799 41.7006 308.68V307.775H162.682V308.68C162.681 308.799 162.707 308.917 162.757 309.027C162.807 309.138 162.881 309.238 162.974 309.322C163.068 309.406 163.179 309.473 163.301 309.518C163.424 309.563 163.555 309.586 163.687 309.585H40.6957C40.9621 309.585 41.2175 309.49 41.4058 309.32Z" fill="black"/>
<path d="M174.539 313.206V310.526H174.991C175.111 310.525 175.226 310.426 175.311 310.25C175.353 310.163 175.387 310.06 175.409 309.945C175.432 309.831 175.444 309.709 175.443 309.585V313.206H174.539Z" fill="black"/>
<path d="M165.533 248.874C165.533 248.612 165.427 248.36 165.237 248.174C165.047 247.988 164.79 247.884 164.522 247.884H40.7648C40.4966 247.884 40.2394 247.988 40.0498 248.174C39.8602 248.36 39.7537 248.612 39.7537 248.874V307.775H30.7478V244.409H174.539V307.775H165.533V248.874Z" fill="white"/>
<path d="M174.447 309.585H163.586C163.455 309.586 163.325 309.561 163.204 309.512C163.083 309.463 162.973 309.39 162.88 309.299C162.787 309.207 162.714 309.098 162.664 308.978C162.615 308.858 162.589 308.729 162.59 308.6V249.999H42.6965V308.6C42.6971 308.729 42.6716 308.857 42.6214 308.977C42.5712 309.097 42.4974 309.205 42.4043 309.296C42.2177 309.481 41.9646 309.585 41.7006 309.585H30.8392C30.5751 309.585 30.3218 309.481 30.135 309.297C29.9483 309.112 29.8434 308.861 29.8434 308.6V243.585C29.845 243.324 29.9498 243.074 30.1354 242.888C30.322 242.703 30.5752 242.599 30.8392 242.599H174.447C174.712 242.599 174.965 242.703 175.152 242.888C175.338 243.073 175.443 243.323 175.443 243.585V308.6C175.444 308.729 175.418 308.857 175.368 308.977C175.318 309.097 175.244 309.205 175.151 309.296C174.964 309.48 174.711 309.584 174.447 309.585ZM173.452 244.571H31.8351V307.614H40.7048V249.013C40.7048 248.752 40.8097 248.501 40.9964 248.316C41.1832 248.131 41.4365 248.027 41.7006 248.027H163.586C163.85 248.027 164.104 248.131 164.29 248.316C164.477 248.501 164.582 248.752 164.582 249.013V307.614H173.452V244.571Z" fill="black"/>
<path d="M171.826 640.896H26.2262V327.689H171.826V640.896ZM99.8902 354.262C90.0851 354.268 80.502 357.194 72.3525 362.669C64.2029 368.144 57.8529 375.922 54.1052 385.02C50.3575 394.118 49.3803 404.128 51.2973 413.783C53.2142 423.439 57.9392 432.307 64.8748 439.267C71.8105 446.226 80.6455 450.965 90.2627 452.883C99.88 454.802 109.848 453.814 118.906 450.044C127.964 446.275 135.706 439.894 141.153 431.707C146.6 423.52 149.507 413.895 149.507 404.05C149.505 397.509 148.22 391.033 145.726 384.991C143.231 378.949 139.576 373.46 134.969 368.836C130.361 364.213 124.892 360.546 118.873 358.046C112.854 355.545 106.404 354.259 99.8902 354.262Z" fill="white"/>
<path d="M26.426 327.689V640.677H172.53V327.689H174.539V641.702C174.537 641.968 174.432 642.222 174.244 642.411C174.056 642.6 173.801 642.706 173.535 642.706H25.4217C25.1534 642.706 24.8959 642.6 24.7053 642.411C24.5223 642.22 24.4193 641.966 24.4173 641.702V327.689H26.426Z" fill="black"/>
<path d="M0.904358 315.922H198.957V325.879H0.904358V315.922Z" fill="white"/>
<path d="M0.292709 313.478C0.480515 313.305 0.733612 313.208 0.997925 313.206H199.767C200.034 313.206 200.29 313.304 200.479 313.478C200.661 313.655 200.763 313.889 200.765 314.134V326.762C200.763 327.006 200.661 327.241 200.479 327.417C200.29 327.592 200.034 327.69 199.767 327.69H0.997925C0.733612 327.688 0.480515 327.59 0.292709 327.417C0.105499 327.244 0.000152588 327.008 -7.62939e-05 326.762V314.134C0.00158691 313.888 0.10672 313.653 0.292709 313.478ZM198.776 315.061H2.02257V325.834H198.776V315.061Z" fill="black"/>
<path d="M99.8972 453.515C90.1506 453.509 80.6247 450.61 72.5239 445.185C64.423 439.76 58.111 432.052 54.3857 423.037C50.6603 414.022 49.689 404.103 51.5945 394.536C53.5 384.968 58.1967 376.18 65.0909 369.284C71.9852 362.388 80.7673 357.693 90.3272 355.792C99.887 353.891 109.795 354.87 118.799 358.605C127.803 362.34 135.499 368.663 140.913 376.775C146.327 384.888 149.217 394.425 149.217 404.181C149.216 410.662 147.938 417.079 145.459 423.066C142.979 429.053 139.346 434.492 134.766 439.073C130.186 443.654 124.749 447.288 118.767 449.766C112.784 452.244 106.372 453.518 99.8972 453.515ZM99.8972 356.838C88.9505 356.841 78.3435 360.643 69.8834 367.596C61.4233 374.55 55.6334 384.224 53.5004 394.972C51.3673 405.719 53.023 416.874 58.1853 426.536C63.3476 436.198 71.6971 443.77 81.8113 447.961C91.9255 452.153 103.179 452.704 113.653 449.522C124.128 446.339 133.177 439.62 139.257 430.508C145.337 421.397 148.073 410.457 146.999 399.552C145.925 388.648 141.107 378.454 133.365 370.707C128.974 366.303 123.757 362.81 118.014 360.43C112.27 358.05 106.113 356.829 99.8972 356.838Z" fill="black"/>
<path d="M167.304 138.498C157.315 138.498 149.217 130.595 149.217 120.847C149.217 111.098 157.315 103.195 167.304 103.195C177.293 103.195 185.391 111.098 185.391 120.847C185.391 130.595 177.293 138.498 167.304 138.498Z" fill="white"/>
<path d="M191.642 122.288C188.575 122.287 185.538 122.891 182.704 124.065C179.87 125.239 177.295 126.961 175.126 129.131C172.958 131.301 171.237 133.878 170.063 136.714C168.889 139.551 168.285 142.59 168.285 145.66C168.285 145.922 168.181 146.172 167.997 146.357C167.812 146.542 167.562 146.645 167.301 146.645C167.172 146.647 167.043 146.622 166.924 146.572C166.804 146.523 166.696 146.449 166.606 146.356C166.421 146.172 166.317 145.921 166.317 145.66C166.317 139.461 163.857 133.517 159.478 129.133C155.099 124.75 149.159 122.288 142.967 122.288C142.704 122.288 142.451 122.184 142.265 121.999C142.085 121.811 141.984 121.562 141.983 121.303C141.982 121.173 142.006 121.044 142.056 120.925C142.105 120.805 142.177 120.696 142.269 120.604C142.36 120.512 142.469 120.44 142.589 120.391C142.709 120.341 142.837 120.317 142.967 120.317C149.16 120.314 155.098 117.849 159.476 113.466C163.855 109.082 166.315 103.137 166.317 96.9382C166.318 96.6773 166.422 96.4274 166.606 96.2421C166.79 96.0573 167.04 95.9534 167.301 95.9531C167.562 95.9534 167.812 96.0573 167.996 96.2421C168.18 96.4274 168.283 96.6773 168.285 96.9382C168.287 103.138 170.748 109.084 175.128 113.468C179.508 117.852 185.448 120.316 191.642 120.317C191.902 120.319 192.152 120.423 192.337 120.606C192.522 120.791 192.626 121.041 192.626 121.303C192.626 121.564 192.522 121.814 192.338 121.999C192.153 122.184 191.903 122.288 191.642 122.288ZM167.288 103.899C166.107 108.041 163.893 111.815 160.854 114.864C157.815 117.913 154.05 120.138 149.915 121.329C154.051 122.519 157.816 124.743 160.855 127.792C163.895 130.842 166.108 134.616 167.288 138.758C168.467 134.617 170.68 130.844 173.718 127.794C176.757 124.745 180.52 122.52 184.654 121.329C180.518 120.134 176.753 117.904 173.714 114.851C170.676 111.797 168.464 108.019 167.288 103.873V103.899Z" fill="black"/>
<path d="M572 535.89C573.136 540.085 575.268 543.906 578.195 546.994C581.122 550.082 584.747 552.335 588.73 553.542C584.748 554.75 581.123 557.004 578.196 560.091C575.27 563.179 573.137 567 572 571.194C570.863 567 568.731 563.179 565.804 560.091C562.877 557.004 559.252 554.75 555.27 553.542C559.253 552.335 562.878 550.082 565.805 546.994C568.732 543.906 570.864 540.085 572 535.89Z" fill="white"/>
<path d="M571.674 528.943C571.868 528.754 572.129 528.648 572.401 528.648C572.671 528.65 572.93 528.756 573.121 528.943C573.313 529.13 573.42 529.385 573.42 529.651C573.42 532.78 574.046 535.878 575.265 538.769C576.483 541.659 578.269 544.284 580.521 546.494C582.773 548.704 585.445 550.455 588.386 551.647C591.327 552.84 594.478 553.449 597.659 553.441C597.929 553.441 598.188 553.547 598.379 553.735C598.569 553.924 598.677 554.178 598.678 554.444C598.678 554.71 598.571 554.965 598.38 555.153C598.189 555.341 597.929 555.447 597.659 555.447C594.482 555.447 591.337 556.062 588.403 557.258C585.468 558.454 582.802 560.207 580.556 562.417C578.31 564.627 576.529 567.25 575.314 570.137C574.099 573.024 573.474 576.119 573.475 579.243C573.475 579.509 573.367 579.764 573.176 579.952C572.985 580.14 572.726 580.246 572.456 580.246C572.183 580.246 571.922 580.14 571.728 579.952C571.543 579.761 571.438 579.507 571.436 579.243C571.434 572.933 568.885 566.881 564.349 562.418C559.813 557.956 553.661 555.448 547.245 555.447C546.975 555.445 546.717 555.339 546.525 555.152C546.334 554.965 546.226 554.71 546.226 554.444C546.226 554.178 546.333 553.923 546.525 553.735C546.716 553.547 546.975 553.441 547.245 553.441C550.422 553.442 553.567 552.827 556.502 551.632C559.437 550.437 562.104 548.685 564.351 546.476C566.597 544.266 568.379 541.644 569.595 538.757C570.81 535.87 571.436 532.776 571.436 529.651C571.422 529.394 571.507 529.141 571.674 528.943ZM572.415 572.184C573.637 567.97 575.93 564.13 579.076 561.026C582.223 557.923 586.12 555.658 590.402 554.444C586.12 553.231 582.222 550.966 579.075 547.863C575.928 544.759 573.636 540.919 572.415 536.703C571.193 540.919 568.901 544.759 565.755 547.863C562.608 550.966 558.71 553.231 554.428 554.444C558.709 555.658 562.607 557.923 565.753 561.026C568.9 564.13 571.192 567.97 572.415 572.184Z" fill="black"/>
<path d="M207.089 450.799C204.228 450.798 201.431 449.921 199.052 448.279C196.674 446.637 194.82 444.304 193.726 441.575C192.632 438.845 192.346 435.842 192.905 432.945C193.464 430.048 194.843 427.388 196.867 425.3C198.891 423.211 201.469 421.79 204.275 421.214C207.082 420.638 209.991 420.934 212.635 422.065C215.278 423.196 217.538 425.11 219.127 427.566C220.717 430.022 221.565 432.91 221.565 435.863C221.564 439.825 220.038 443.624 217.323 446.425C214.609 449.226 210.928 450.799 207.089 450.799ZM207.089 425.928C205.191 425.928 203.335 426.51 201.756 427.599C200.177 428.688 198.947 430.236 198.221 432.046C197.495 433.857 197.305 435.85 197.676 437.772C198.047 439.694 198.961 441.46 200.304 442.845C201.647 444.23 203.358 445.174 205.221 445.555C207.083 445.937 209.013 445.739 210.767 444.988C212.521 444.238 214.02 442.967 215.074 441.336C216.127 439.706 216.689 437.79 216.688 435.83C216.678 433.209 215.662 430.699 213.863 428.85C212.064 427 209.628 425.962 207.089 425.962V425.928Z" fill="#EC744A"/>
<path d="M312.596 94.169C312.859 94.1979 313.101 94.3315 313.267 94.5404C313.433 94.7494 313.511 95.0166 313.483 95.2834L313.403 95.9588L310.402 123.468L321.437 136.126C321.547 136.252 321.624 136.404 321.661 136.568C321.699 136.732 321.695 136.902 321.651 137.064L316.123 157.266C319.465 161.734 322.58 166.371 325.458 171.159C328.006 175.355 330.257 179.729 332.192 184.249C332.775 185.649 333.292 187.038 333.746 188.416C334.742 191.243 335.337 194.2 335.513 197.196C335.52 197.464 335.423 197.725 335.242 197.921C335.061 198.117 334.811 198.233 334.546 198.243C334.282 198.249 334.026 198.149 333.833 197.966C333.64 197.783 333.525 197.531 333.513 197.264C333.406 193.677 332.179 189.388 330.345 185.019C327.618 178.454 323.591 171.706 320.244 166.607C318.577 164.061 317.077 161.926 315.997 160.434C315.456 159.684 315.016 159.083 314.716 158.691L314.376 158.239L314.256 158.083C314.16 157.959 314.095 157.813 314.065 157.658C314.034 157.503 314.041 157.344 314.083 157.192L319.597 137.031L308.635 124.454C308.542 124.349 308.473 124.224 308.43 124.089C308.388 123.954 308.373 123.812 308.389 123.671L311.349 96.5059L311.509 95.02C311.529 94.8277 311.602 94.645 311.72 94.4932C311.838 94.3413 311.996 94.2265 312.176 94.1623C312.315 94.1346 312.458 94.1369 312.596 94.169Z" fill="black"/>
<path d="M389.771 138.114C389.785 138.294 389.75 138.475 389.669 138.637C389.588 138.8 389.464 138.937 389.31 139.035L379.966 144.997L384.787 167.468C384.82 167.617 384.818 167.772 384.78 167.92C384.742 168.068 384.671 168.206 384.57 168.322L384.327 168.603C383.135 170.024 377.705 176.533 372.491 184.077C369.886 187.784 367.514 191.646 365.388 195.639C364.479 197.367 363.685 199.151 363.011 200.98C362.464 202.422 362.109 203.928 361.955 205.46C361.947 205.554 361.924 205.646 361.887 205.733C361.808 205.95 361.655 206.133 361.454 206.25C361.253 206.368 361.017 206.414 360.787 206.379C360.556 206.344 360.344 206.232 360.188 206.06C360.032 205.889 359.941 205.67 359.93 205.44C359.93 205.399 359.93 205.359 359.93 205.313C360.121 203.483 360.558 201.687 361.23 199.972C361.63 198.891 362.111 197.776 362.652 196.634C363.868 194.089 365.225 191.61 366.715 189.211C372.809 179.29 381.002 169.41 382.702 167.401L377.84 144.703C377.798 144.505 377.818 144.299 377.896 144.112C377.975 143.925 378.109 143.766 378.28 143.655L387.699 137.647L384.801 101.751V101.564C384.79 101.433 384.806 101.3 384.847 101.175C384.888 101.049 384.954 100.933 385.041 100.833C385.127 100.732 385.233 100.65 385.353 100.59C385.472 100.53 385.602 100.493 385.735 100.483C385.868 100.472 386.003 100.488 386.13 100.528C386.257 100.569 386.375 100.634 386.477 100.719C386.579 100.805 386.663 100.909 386.724 101.027C386.784 101.144 386.821 101.272 386.832 101.404L386.994 103.407L389.771 138.114Z" fill="black"/>
<path d="M308.855 304.07H309.059H309.118C309.247 304.06 309.377 304.073 309.501 304.108C309.625 304.143 309.74 304.2 309.839 304.275C309.938 304.35 310.02 304.442 310.08 304.546C310.14 304.649 310.177 304.762 310.188 304.878C310.199 304.995 310.185 305.112 310.145 305.223C310.106 305.334 310.043 305.437 309.96 305.526C309.876 305.616 309.774 305.689 309.659 305.743C309.543 305.797 309.418 305.83 309.288 305.84C309.288 305.84 307.66 305.964 305.179 305.964C301.3 305.983 297.428 305.663 293.618 305.008C289.292 304.218 284.88 302.832 281.591 300.29C281.493 300.212 281.413 300.118 281.355 300.013C281.297 299.907 281.263 299.793 281.254 299.675C281.246 299.558 281.263 299.441 281.305 299.329C281.347 299.218 281.413 299.116 281.499 299.027C281.586 298.939 281.69 298.867 281.808 298.815C281.925 298.763 282.052 298.732 282.183 298.725C282.313 298.717 282.444 298.732 282.568 298.77C282.692 298.808 282.806 298.867 282.904 298.945C285.78 301.162 289.896 302.484 294.065 303.25C297.743 303.882 301.48 304.19 305.225 304.171C306.433 304.171 307.424 304.141 308.107 304.112C308.376 304.1 308.671 304.082 308.855 304.07Z" fill="black"/>
<path d="M378.389 304.169C379.381 304.448 380.396 304.631 381.422 304.715C382.594 304.826 383.881 304.871 385.187 304.871C387.799 304.871 390.493 304.689 392.525 304.5C393.538 304.409 394.392 304.318 394.991 304.247L395.679 304.162H395.921C396.174 304.128 396.431 304.199 396.633 304.358C396.836 304.518 396.968 304.752 397.001 305.011C397.034 305.27 396.965 305.532 396.809 305.739C396.653 305.946 396.423 306.081 396.169 306.115C392.525 306.578 388.859 306.83 385.187 306.869C383.836 306.869 382.492 306.824 381.243 306.7C380.092 306.608 378.953 306.401 377.842 306.082C377.716 306.05 377.597 305.993 377.494 305.914C377.39 305.834 377.304 305.734 377.239 305.619C377.175 305.504 377.134 305.377 377.119 305.245C377.105 305.114 377.116 304.98 377.153 304.853C377.191 304.727 377.253 304.609 377.336 304.507C377.419 304.406 377.521 304.323 377.637 304.263C377.753 304.203 377.879 304.168 378.008 304.159C378.138 304.151 378.267 304.17 378.389 304.214V304.169Z" fill="black"/>
</svg>
