<svg width="201" height="201" viewBox="0 0 201 201" fill="none" xmlns="http://www.w3.org/2000/svg">
<path d="M178.771 129.306H169.749C167.591 129.306 165.745 131.19 165.745 133.348V137.27C165.745 146.756 159.104 154.691 150.119 156.507V137.119H154.32C156.478 137.119 158.227 135.369 158.227 133.212C158.227 131.055 156.478 129.306 154.32 129.306H138.5C136.343 129.306 134.593 131.055 134.593 133.212C134.593 135.369 136.343 137.119 138.5 137.119H142.306V156.507C133.321 154.69 126.68 146.756 126.68 137.27V133.347C126.68 131.19 124.836 129.305 122.679 129.305H113.657C111.5 129.305 109.751 131.055 109.751 133.212C109.751 135.369 111.5 137.118 113.657 137.118H118.867V137.27C118.867 151.075 129.024 162.526 142.306 164.429V172.668H138.5C136.343 172.668 134.593 174.417 134.593 176.574C134.593 178.732 136.343 180.481 138.5 180.481H154.32C156.478 180.481 158.227 178.732 158.227 176.574C158.227 174.417 156.478 172.668 154.32 172.668H150.119V164.429C163.401 162.526 173.655 151.075 173.655 137.27L178.77 137.254C180.927 137.254 182.677 135.437 182.677 133.28C182.677 131.122 180.928 129.306 178.771 129.306Z" fill="white"/>
<path d="M77.2324 79.5935C74.931 81.8941 71.1882 81.8941 68.8888 79.5935C67.3629 78.0684 64.8901 78.0684 63.3638 79.5935C61.8384 81.119 61.8384 83.5926 63.3638 85.1185C68.7095 90.4646 77.4093 90.4658 82.7566 85.1185C84.2825 83.593 84.2825 81.1198 82.757 79.5939C81.2319 78.0688 78.7579 78.0684 77.2324 79.5935Z" fill="white"/>
<path d="M59.3313 66.6485C61.4888 66.6485 63.2378 64.8995 63.2378 62.742C63.2378 60.5845 61.4888 58.8354 59.3313 58.8354C57.1738 58.8354 55.4248 60.5845 55.4248 62.742C55.4248 64.8995 57.1738 66.6485 59.3313 66.6485Z" fill="white"/>
<path d="M86.7903 66.6485C88.9478 66.6485 90.6968 64.8995 90.6968 62.742C90.6968 60.5845 88.9478 58.8354 86.7903 58.8354C84.6328 58.8354 82.8838 60.5845 82.8838 62.742C82.8838 64.8995 84.6328 66.6485 86.7903 66.6485Z" fill="white"/>
<path d="M146.165 91.3934C139.023 91.3934 132.15 92.7817 125.899 95.2983V52.9372C125.899 23.4891 102.136 0 72.9874 0C43.7979 0 20.0326 23.7473 20.0326 52.9372V129.767C7.92238 138.323 0.5 152.183 0.5 167.277V196.107C0.5 198.264 2.26028 200.014 4.41746 200.014H146.215C176.161 200.014 200.5 175.65 200.5 145.704C200.5 115.757 176.112 91.3934 146.165 91.3934ZM73.0092 7.81303C97.802 7.81303 118.086 27.8437 118.086 52.9372V99.2017C109.491 104.541 102.172 112.508 97.5574 121.493H88.7869V106.334C101.288 100.405 110.273 87.4919 110.273 72.5495V47.0536C110.273 44.8964 108.541 43.1471 106.384 43.1471C97.3422 43.1471 88.6318 39.8594 81.8419 33.8898L75.6352 28.4297C74.1539 27.1276 71.9365 27.1335 70.463 28.4441L64.4899 33.6668C57.6758 39.7238 48.9037 42.9717 39.7871 42.9717H39.7195C37.5623 42.9717 35.6587 44.8964 35.6587 47.0536V72.5495C35.6587 87.4919 44.6436 100.405 57.5351 106.334V121.493H46.1914C39.8656 121.493 33.705 122.901 27.8452 125.398V52.9372C27.8456 28.0554 48.1279 7.81303 73.0092 7.81303ZM72.9655 101.984C56.7355 101.984 43.4717 88.7795 43.4717 72.5491V50.7964C53.238 49.9741 62.3198 46.0684 69.6043 39.5933L73.0362 36.5771L76.6552 39.757C83.8889 46.1168 93.0841 49.9612 102.46 50.7902V72.5487C102.46 88.7799 89.1959 101.984 72.9655 101.984ZM65.3482 108.96C67.6921 109.507 70.4649 109.797 73.1608 109.797C75.8571 109.797 78.2397 109.507 80.9743 108.96V124.09C77.0677 128.608 69.2547 128.613 65.3482 124.09V108.96ZM31.7521 192.201V176.495C31.7521 174.338 30.0028 172.588 27.8456 172.588C25.6884 172.588 23.9391 174.338 23.9391 176.495V192.201H8.31303V167.277C8.31303 145.812 25.8384 129.306 46.1918 129.306H59.3321C59.3802 129.306 59.4267 129.352 59.4743 129.351C66.8155 137.232 79.2671 137.259 86.6473 129.338C86.695 129.339 86.7414 129.306 86.7895 129.306H94.4029C92.7809 134.385 91.9043 139.978 91.9043 145.652C91.9043 165.347 102.443 182.678 118.177 192.201L31.7521 192.201ZM146.214 192.201C120.576 192.201 99.7173 171.342 99.7173 145.704C99.7173 120.066 120.576 99.2068 146.214 99.2068C171.852 99.2068 192.711 120.066 192.711 145.704C192.711 171.342 171.853 192.201 146.214 192.201Z" fill="white"/>
</svg>
